<?xml version="1.0" encoding="UTF-8"?>
<svg xmlns="http://www.w3.org/2000/svg" width="1000" height="650" viewBox="0 0 1000 650">
  <rect width="100%" height="100%" fill="#0d1218"/>
  <rect x="22" y="48.91917293233075" width="956" height="579.0808270676692" rx="8" fill="#13251f" stroke="#4f806c" stroke-width="2"/>
  <g><line x1="814.2490601503758" y1="374.39943609022555" x2="419.359962406015" y2="302.5197368421053" stroke="#4ecdc4" stroke-width="0.85" opacity="0.46"/><line x1="742.3693609022556" y1="356.4295112781955" x2="401.39003759398497" y2="302.5197368421053" stroke="#4ecdc4" stroke-width="0.85" opacity="0.46"/><line x1="832.218984962406" y1="356.4295112781955" x2="455.29981203007515" y2="284.5498120300752" stroke="#4ecdc4" stroke-width="0.85" opacity="0.46"/><line x1="724.3994360902255" y1="356.4295112781955" x2="437.3298872180451" y2="284.5498120300752" stroke="#4ecdc4" stroke-width="0.85" opacity="0.46"/><line x1="814.2490601503758" y1="320.4896616541354" x2="419.359962406015" y2="284.5498120300752" stroke="#4ecdc4" stroke-width="0.85" opacity="0.46"/><line x1="724.3994360902255" y1="320.4896616541354" x2="401.39003759398497" y2="284.5498120300752" stroke="#4ecdc4" stroke-width="0.85" opacity="0.46"/><line x1="832.218984962406" y1="338.45958646616543" x2="419.359962406015" y2="266.57988721804514" stroke="#4ecdc4" stroke-width="0.85" opacity="0.46"/><line x1="742.3693609022556" y1="320.4896616541354" x2="401.39003759398497" y2="266.57988721804514" stroke="#4ecdc4" stroke-width="0.85" opacity="0.46"/><line x1="742.3693609022556" y1="392.36936090225566" x2="455.29981203007515" y2="356.4295112781955" stroke="#4ecdc4" stroke-width="0.85" opacity="0.46"/><line x1="814.2490601503758" y1="410.3392857142857" x2="455.29981203007515" y2="338.45958646616543" stroke="#4ecdc4" stroke-width="0.85" opacity="0.46"/><line x1="724.3994360902255" y1="410.3392857142857" x2="437.3298872180451" y2="338.45958646616543" stroke="#4ecdc4" stroke-width="0.85" opacity="0.46"/><line x1="832.218984962406" y1="410.3392857142857" x2="419.359962406015" y2="338.45958646616543" stroke="#4ecdc4" stroke-width="0.85" opacity="0.46"/><line x1="742.3693609022556" y1="446.2791353383459" x2="401.39003759398497" y2="338.45958646616543" stroke="#4ecdc4" stroke-width="0.85" opacity="0.46"/><line x1="832.218984962406" y1="446.2791353383459" x2="419.359962406015" y2="320.4896616541354" stroke="#4ecdc4" stroke-width="0.85" opacity="0.46"/><line x1="724.3994360902255" y1="428.30921052631584" x2="401.39003759398497" y2="320.4896616541354" stroke="#4ecdc4" stroke-width="0.85" opacity="0.46"/><line x1="814.2490601503758" y1="446.2791353383459" x2="455.29981203007515" y2="302.5197368421053" stroke="#4ecdc4" stroke-width="0.85" opacity="0.46"/><line x1="814.2490601503758" y1="356.4295112781955" x2="455.29981203007515" y2="266.57988721804514" stroke="#ff6b6b" stroke-width="0.85" opacity="0.46"/><line x1="814.2490601503758" y1="338.45958646616543" x2="437.3298872180451" y2="266.57988721804514" stroke="#ff6b6b" stroke-width="0.85" opacity="0.46"/><line x1="742.3693609022556" y1="374.39943609022555" x2="437.3298872180451" y2="302.5197368421053" stroke="#ffd166" stroke-width="0.85" opacity="0.46"/><line x1="742.3693609022556" y1="410.3392857142857" x2="455.29981203007515" y2="320.4896616541354" stroke="#ff6b6b" stroke-width="0.85" opacity="0.46"/><line x1="742.3693609022556" y1="428.30921052631584" x2="437.3298872180451" y2="320.4896616541354" stroke="#ff6b6b" stroke-width="0.85" opacity="0.46"/><line x1="814.2490601503758" y1="392.36936090225566" x2="437.3298872180451" y2="356.4295112781955" stroke="#ffd166" stroke-width="0.85" opacity="0.46"/><line x1="814.2490601503758" y1="230.64003759398503" x2="419.359962406015" y2="410.3392857142857" stroke="#5f9df7" stroke-width="0.85" opacity="0.46"/><line x1="742.3693609022556" y1="212.6701127819549" x2="455.29981203007515" y2="374.39943609022555" stroke="#5f9df7" stroke-width="0.85" opacity="0.46"/><line x1="814.2490601503758" y1="212.6701127819549" x2="401.39003759398497" y2="428.30921052631584" stroke="#5f9df7" stroke-width="0.85" opacity="0.46"/><line x1="832.218984962406" y1="230.64003759398503" x2="419.359962406015" y2="464.24906015037595" stroke="#5f9df7" stroke-width="0.85" opacity="0.46"/><line x1="724.3994360902255" y1="212.6701127819549" x2="437.3298872180451" y2="464.24906015037595" stroke="#5f9df7" stroke-width="0.85" opacity="0.46"/><line x1="832.218984962406" y1="212.6701127819549" x2="455.29981203007515" y2="482.218984962406" stroke="#5f9df7" stroke-width="0.85" opacity="0.46"/><line x1="724.3994360902255" y1="194.70018796992485" x2="383.42011278195486" y2="446.2791353383459" stroke="#5f9df7" stroke-width="0.85" opacity="0.46"/><line x1="832.218984962406" y1="194.70018796992485" x2="437.3298872180451" y2="428.30921052631584" stroke="#5f9df7" stroke-width="0.85" opacity="0.46"/><line x1="724.3994360902255" y1="176.73026315789474" x2="401.39003759398497" y2="446.2791353383459" stroke="#5f9df7" stroke-width="0.85" opacity="0.46"/><line x1="814.2490601503758" y1="194.70018796992485" x2="455.29981203007515" y2="464.24906015037595" stroke="#5f9df7" stroke-width="0.85" opacity="0.46"/><line x1="742.3693609022556" y1="266.57988721804514" x2="401.39003759398497" y2="410.3392857142857" stroke="#5f9df7" stroke-width="0.85" opacity="0.46"/><line x1="742.3693609022556" y1="194.70018796992485" x2="437.3298872180451" y2="410.3392857142857" stroke="#5f9df7" stroke-width="0.85" opacity="0.46"/><line x1="742.3693609022556" y1="230.64003759398503" x2="419.359962406015" y2="428.30921052631584" stroke="#5f9df7" stroke-width="0.85" opacity="0.46"/><line x1="814.2490601503758" y1="176.73026315789474" x2="419.359962406015" y2="374.39943609022555" stroke="#5f9df7" stroke-width="0.85" opacity="0.46"/><line x1="742.3693609022556" y1="176.73026315789474" x2="401.39003759398497" y2="374.39943609022555" stroke="#5f9df7" stroke-width="0.85" opacity="0.46"/><line x1="742.3693609022556" y1="248.60996240601503" x2="419.359962406015" y2="446.2791353383459" stroke="#5f9df7" stroke-width="0.85" opacity="0.46"/><line x1="832.218984962406" y1="248.60996240601503" x2="401.39003759398497" y2="464.24906015037595" stroke="#9b7ede" stroke-width="0.85" opacity="0.46"/><line x1="724.3994360902255" y1="230.64003759398503" x2="455.29981203007515" y2="428.30921052631584" stroke="#9b7ede" stroke-width="0.85" opacity="0.46"/><line x1="814.2490601503758" y1="248.60996240601503" x2="419.359962406015" y2="482.218984962406" stroke="#9b7ede" stroke-width="0.85" opacity="0.46"/><line x1="814.2490601503758" y1="302.5197368421053" x2="401.39003759398497" y2="392.36936090225566" stroke="#f28e2b" stroke-width="0.85" opacity="0.46"/><line x1="814.2490601503758" y1="284.5498120300752" x2="455.29981203007515" y2="410.3392857142857" stroke="#f28e2b" stroke-width="0.85" opacity="0.46"/><line x1="814.2490601503758" y1="266.57988721804514" x2="437.3298872180451" y2="482.218984962406" stroke="#f28e2b" stroke-width="0.85" opacity="0.46"/><line x1="742.3693609022556" y1="302.5197368421053" x2="437.3298872180451" y2="446.2791353383459" stroke="#e15759" stroke-width="0.85" opacity="0.46"/><line x1="742.3693609022556" y1="284.5498120300752" x2="455.29981203007515" y2="446.2791353383459" stroke="#e15759" stroke-width="0.85" opacity="0.46"/><line x1="706.4295112781955" y1="284.5498120300752" x2="419.359962406015" y2="392.36936090225566" stroke="#76b7b2" stroke-width="0.85" opacity="0.46"/><line x1="832.218984962406" y1="266.57988721804514" x2="437.3298872180451" y2="374.39943609022555" stroke="#76b7b2" stroke-width="0.85" opacity="0.46"/><line x1="850.1889097744361" y1="284.5498120300752" x2="455.29981203007515" y2="392.36936090225566" stroke="#76b7b2" stroke-width="0.85" opacity="0.46"/><line x1="832.218984962406" y1="176.73026315789474" x2="419.359962406015" y2="356.4295112781955" stroke="#76b7b2" stroke-width="0.85" opacity="0.46"/></g>
  <g><rect x="845.921052631579" y="442.0112781954887" width="8.535714285714286" height="8.535714285714286" rx="1.8778571428571431" fill="#f5a742" stroke="#0b1015" stroke-width="0.45"/><rect x="827.9511278195489" y="442.0112781954887" width="8.535714285714286" height="8.535714285714286" rx="1.8778571428571431" fill="#f5a742" stroke="#0b1015" stroke-width="0.45"/><rect x="809.9812030075187" y="442.0112781954887" width="8.535714285714286" height="8.535714285714286" rx="1.8778571428571431" fill="#f5a742" stroke="#0b1015" stroke-width="0.45"/><rect x="738.1015037593985" y="442.0112781954887" width="8.535714285714286" height="8.535714285714286" rx="1.8778571428571431" fill="#f5a742" stroke="#0b1015" stroke-width="0.45"/><rect x="720.1315789473684" y="442.0112781954887" width="8.535714285714286" height="8.535714285714286" rx="1.8778571428571431" fill="#f5a742" stroke="#0b1015" stroke-width="0.45"/><rect x="702.1616541353384" y="442.0112781954887" width="8.535714285714286" height="8.535714285714286" rx="1.8778571428571431" fill="#f5a742" stroke="#0b1015" stroke-width="0.45"/><rect x="845.921052631579" y="424.04135338345867" width="8.535714285714286" height="8.535714285714286" rx="1.8778571428571431" fill="#f5a742" stroke="#0b1015" stroke-width="0.45"/><rect x="827.9511278195489" y="424.04135338345867" width="8.535714285714286" height="8.535714285714286" rx="1.8778571428571431" fill="#f5a742" stroke="#0b1015" stroke-width="0.45"/><rect x="809.9812030075187" y="424.04135338345867" width="8.535714285714286" height="8.535714285714286" rx="1.8778571428571431" fill="#f5a742" stroke="#0b1015" stroke-width="0.45"/><rect x="738.1015037593985" y="424.04135338345867" width="8.535714285714286" height="8.535714285714286" rx="1.8778571428571431" fill="#f5a742" stroke="#0b1015" stroke-width="0.45"/><rect x="720.1315789473684" y="424.04135338345867" width="8.535714285714286" height="8.535714285714286" rx="1.8778571428571431" fill="#f5a742" stroke="#0b1015" stroke-width="0.45"/><rect x="702.1616541353384" y="424.04135338345867" width="8.535714285714286" height="8.535714285714286" rx="1.8778571428571431" fill="#f5a742" stroke="#0b1015" stroke-width="0.45"/><rect x="845.921052631579" y="406.07142857142856" width="8.535714285714286" height="8.535714285714286" rx="1.8778571428571431" fill="#f5a742" stroke="#0b1015" stroke-width="0.45"/><rect x="827.9511278195489" y="406.07142857142856" width="8.535714285714286" height="8.535714285714286" rx="1.8778571428571431" fill="#f5a742" stroke="#0b1015" stroke-width="0.45"/><rect x="809.9812030075187" y="406.07142857142856" width="8.535714285714286" height="8.535714285714286" rx="1.8778571428571431" fill="#f5a742" stroke="#0b1015" stroke-width="0.45"/><rect x="738.1015037593985" y="406.07142857142856" width="8.535714285714286" height="8.535714285714286" rx="1.8778571428571431" fill="#f5a742" stroke="#0b1015" stroke-width="0.45"/><rect x="720.1315789473684" y="406.07142857142856" width="8.535714285714286" height="8.535714285714286" rx="1.8778571428571431" fill="#f5a742" stroke="#0b1015" stroke-width="0.45"/><rect x="702.1616541353384" y="406.07142857142856" width="8.535714285714286" height="8.535714285714286" rx="1.8778571428571431" fill="#f5a742" stroke="#0b1015" stroke-width="0.45"/><rect x="845.921052631579" y="388.1015037593985" width="8.535714285714286" height="8.535714285714286" rx="1.8778571428571431" fill="#f5a742" stroke="#0b1015" stroke-width="0.45"/><rect x="827.9511278195489" y="388.1015037593985" width="8.535714285714286" height="8.535714285714286" rx="1.8778571428571431" fill="#f5a742" stroke="#0b1015" stroke-width="0.45"/><rect x="809.9812030075187" y="388.1015037593985" width="8.535714285714286" height="8.535714285714286" rx="1.8778571428571431" fill="#f5a742" stroke="#0b1015" stroke-width="0.45"/><rect x="738.1015037593985" y="388.1015037593985" width="8.535714285714286" height="8.535714285714286" rx="1.8778571428571431" fill="#f5a742" stroke="#0b1015" stroke-width="0.45"/><rect x="720.1315789473684" y="388.1015037593985" width="8.535714285714286" height="8.535714285714286" rx="1.8778571428571431" fill="#f5a742" stroke="#0b1015" stroke-width="0.45"/><rect x="702.1616541353384" y="388.1015037593985" width="8.535714285714286" height="8.535714285714286" rx="1.8778571428571431" fill="#f5a742" stroke="#0b1015" stroke-width="0.45"/><rect x="845.921052631579" y="370.1315789473684" width="8.535714285714286" height="8.535714285714286" rx="1.8778571428571431" fill="#f5a742" stroke="#0b1015" stroke-width="0.45"/><rect x="827.9511278195489" y="370.1315789473684" width="8.535714285714286" height="8.535714285714286" rx="1.8778571428571431" fill="#f5a742" stroke="#0b1015" stroke-width="0.45"/><rect x="809.9812030075187" y="370.1315789473684" width="8.535714285714286" height="8.535714285714286" rx="1.8778571428571431" fill="#f5a742" stroke="#0b1015" stroke-width="0.45"/><rect x="738.1015037593985" y="370.1315789473684" width="8.535714285714286" height="8.535714285714286" rx="1.8778571428571431" fill="#f5a742" stroke="#0b1015" stroke-width="0.45"/><rect x="720.1315789473684" y="370.1315789473684" width="8.535714285714286" height="8.535714285714286" rx="1.8778571428571431" fill="#f5a742" stroke="#0b1015" stroke-width="0.45"/><rect x="702.1616541353384" y="370.1315789473684" width="8.535714285714286" height="8.535714285714286" rx="1.8778571428571431" fill="#f5a742" stroke="#0b1015" stroke-width="0.45"/><rect x="845.921052631579" y="352.1616541353383" width="8.535714285714286" height="8.535714285714286" rx="1.8778571428571431" fill="#f5a742" stroke="#0b1015" stroke-width="0.45"/><rect x="827.9511278195489" y="352.1616541353383" width="8.535714285714286" height="8.535714285714286" rx="1.8778571428571431" fill="#f5a742" stroke="#0b1015" stroke-width="0.45"/><rect x="809.9812030075187" y="352.1616541353383" width="8.535714285714286" height="8.535714285714286" rx="1.8778571428571431" fill="#f5a742" stroke="#0b1015" stroke-width="0.45"/><rect x="738.1015037593985" y="352.1616541353383" width="8.535714285714286" height="8.535714285714286" rx="1.8778571428571431" fill="#f5a742" stroke="#0b1015" stroke-width="0.45"/><rect x="720.1315789473684" y="352.1616541353383" width="8.535714285714286" height="8.535714285714286" rx="1.8778571428571431" fill="#f5a742" stroke="#0b1015" stroke-width="0.45"/><rect x="702.1616541353384" y="352.1616541353383" width="8.535714285714286" height="8.535714285714286" rx="1.8778571428571431" fill="#f5a742" stroke="#0b1015" stroke-width="0.45"/><rect x="845.921052631579" y="334.19172932330827" width="8.535714285714286" height="8.535714285714286" rx="1.8778571428571431" fill="#f5a742" stroke="#0b1015" stroke-width="0.45"/><rect x="827.9511278195489" y="334.19172932330827" width="8.535714285714286" height="8.535714285714286" rx="1.8778571428571431" fill="#f5a742" stroke="#0b1015" stroke-width="0.45"/><rect x="809.9812030075187" y="334.19172932330827" width="8.535714285714286" height="8.535714285714286" rx="1.8778571428571431" fill="#f5a742" stroke="#0b1015" stroke-width="0.45"/><rect x="738.1015037593985" y="334.19172932330827" width="8.535714285714286" height="8.535714285714286" rx="1.8778571428571431" fill="#f5a742" stroke="#0b1015" stroke-width="0.45"/><rect x="720.1315789473684" y="334.19172932330827" width="8.535714285714286" height="8.535714285714286" rx="1.8778571428571431" fill="#f5a742" stroke="#0b1015" stroke-width="0.45"/><rect x="702.1616541353384" y="334.19172932330827" width="8.535714285714286" height="8.535714285714286" rx="1.8778571428571431" fill="#f5a742" stroke="#0b1015" stroke-width="0.45"/><rect x="845.921052631579" y="316.2218045112782" width="8.535714285714286" height="8.535714285714286" rx="1.8778571428571431" fill="#f5a742" stroke="#0b1015" stroke-width="0.45"/><rect x="827.9511278195489" y="316.2218045112782" width="8.535714285714286" height="8.535714285714286" rx="1.8778571428571431" fill="#f5a742" stroke="#0b1015" stroke-width="0.45"/><rect x="809.9812030075187" y="316.2218045112782" width="8.535714285714286" height="8.535714285714286" rx="1.8778571428571431" fill="#f5a742" stroke="#0b1015" stroke-width="0.45"/><rect x="738.1015037593985" y="316.2218045112782" width="8.535714285714286" height="8.535714285714286" rx="1.8778571428571431" fill="#f5a742" stroke="#0b1015" stroke-width="0.45"/><rect x="720.1315789473684" y="316.2218045112782" width="8.535714285714286" height="8.535714285714286" rx="1.8778571428571431" fill="#f5a742" stroke="#0b1015" stroke-width="0.45"/><rect x="702.1616541353384" y="316.2218045112782" width="8.535714285714286" height="8.535714285714286" rx="1.8778571428571431" fill="#f5a742" stroke="#0b1015" stroke-width="0.45"/><rect x="845.921052631579" y="298.25187969924815" width="8.535714285714286" height="8.535714285714286" rx="1.8778571428571431" fill="#f5a742" stroke="#0b1015" stroke-width="0.45"/><rect x="827.9511278195489" y="298.25187969924815" width="8.535714285714286" height="8.535714285714286" rx="1.8778571428571431" fill="#f5a742" stroke="#0b1015" stroke-width="0.45"/><rect x="809.9812030075187" y="298.25187969924815" width="8.535714285714286" height="8.535714285714286" rx="1.8778571428571431" fill="#f5a742" stroke="#0b1015" stroke-width="0.45"/><rect x="738.1015037593985" y="298.25187969924815" width="8.535714285714286" height="8.535714285714286" rx="1.8778571428571431" fill="#f5a742" stroke="#0b1015" stroke-width="0.45"/><rect x="720.1315789473684" y="298.25187969924815" width="8.535714285714286" height="8.535714285714286" rx="1.8778571428571431" fill="#f5a742" stroke="#0b1015" stroke-width="0.45"/><rect x="702.1616541353384" y="298.25187969924815" width="8.535714285714286" height="8.535714285714286" rx="1.8778571428571431" fill="#f5a742" stroke="#0b1015" stroke-width="0.45"/><rect x="845.921052631579" y="280.28195488721803" width="8.535714285714286" height="8.535714285714286" rx="1.8778571428571431" fill="#f5a742" stroke="#0b1015" stroke-width="0.45"/><rect x="827.9511278195489" y="280.28195488721803" width="8.535714285714286" height="8.535714285714286" rx="1.8778571428571431" fill="#f5a742" stroke="#0b1015" stroke-width="0.45"/><rect x="809.9812030075187" y="280.28195488721803" width="8.535714285714286" height="8.535714285714286" rx="1.8778571428571431" fill="#f5a742" stroke="#0b1015" stroke-width="0.45"/><rect x="738.1015037593985" y="280.28195488721803" width="8.535714285714286" height="8.535714285714286" rx="1.8778571428571431" fill="#f5a742" stroke="#0b1015" stroke-width="0.45"/><rect x="720.1315789473684" y="280.28195488721803" width="8.535714285714286" height="8.535714285714286" rx="1.8778571428571431" fill="#f5a742" stroke="#0b1015" stroke-width="0.45"/><rect x="702.1616541353384" y="280.28195488721803" width="8.535714285714286" height="8.535714285714286" rx="1.8778571428571431" fill="#f5a742" stroke="#0b1015" stroke-width="0.45"/><rect x="845.921052631579" y="262.312030075188" width="8.535714285714286" height="8.535714285714286" rx="1.8778571428571431" fill="#f5a742" stroke="#0b1015" stroke-width="0.45"/><rect x="827.9511278195489" y="262.312030075188" width="8.535714285714286" height="8.535714285714286" rx="1.8778571428571431" fill="#f5a742" stroke="#0b1015" stroke-width="0.45"/><rect x="809.9812030075187" y="262.312030075188" width="8.535714285714286" height="8.535714285714286" rx="1.8778571428571431" fill="#f5a742" stroke="#0b1015" stroke-width="0.45"/><rect x="738.1015037593985" y="262.312030075188" width="8.535714285714286" height="8.535714285714286" rx="1.8778571428571431" fill="#f5a742" stroke="#0b1015" stroke-width="0.45"/><rect x="720.1315789473684" y="262.312030075188" width="8.535714285714286" height="8.535714285714286" rx="1.8778571428571431" fill="#f5a742" stroke="#0b1015" stroke-width="0.45"/><rect x="702.1616541353384" y="262.312030075188" width="8.535714285714286" height="8.535714285714286" rx="1.8778571428571431" fill="#f5a742" stroke="#0b1015" stroke-width="0.45"/><rect x="845.921052631579" y="244.3421052631579" width="8.535714285714286" height="8.535714285714286" rx="1.8778571428571431" fill="#f5a742" stroke="#0b1015" stroke-width="0.45"/><rect x="827.9511278195489" y="244.3421052631579" width="8.535714285714286" height="8.535714285714286" rx="1.8778571428571431" fill="#f5a742" stroke="#0b1015" stroke-width="0.45"/><rect x="809.9812030075187" y="244.3421052631579" width="8.535714285714286" height="8.535714285714286" rx="1.8778571428571431" fill="#f5a742" stroke="#0b1015" stroke-width="0.45"/><rect x="738.1015037593985" y="244.3421052631579" width="8.535714285714286" height="8.535714285714286" rx="1.8778571428571431" fill="#f5a742" stroke="#0b1015" stroke-width="0.45"/><rect x="720.1315789473684" y="244.3421052631579" width="8.535714285714286" height="8.535714285714286" rx="1.8778571428571431" fill="#f5a742" stroke="#0b1015" stroke-width="0.45"/><rect x="702.1616541353384" y="244.3421052631579" width="8.535714285714286" height="8.535714285714286" rx="1.8778571428571431" fill="#f5a742" stroke="#0b1015" stroke-width="0.45"/><rect x="845.921052631579" y="226.3721804511279" width="8.535714285714286" height="8.535714285714286" rx="1.8778571428571431" fill="#f5a742" stroke="#0b1015" stroke-width="0.45"/><rect x="827.9511278195489" y="226.3721804511279" width="8.535714285714286" height="8.535714285714286" rx="1.8778571428571431" fill="#f5a742" stroke="#0b1015" stroke-width="0.45"/><rect x="809.9812030075187" y="226.3721804511279" width="8.535714285714286" height="8.535714285714286" rx="1.8778571428571431" fill="#f5a742" stroke="#0b1015" stroke-width="0.45"/><rect x="738.1015037593985" y="226.3721804511279" width="8.535714285714286" height="8.535714285714286" rx="1.8778571428571431" fill="#f5a742" stroke="#0b1015" stroke-width="0.45"/><rect x="720.1315789473684" y="226.3721804511279" width="8.535714285714286" height="8.535714285714286" rx="1.8778571428571431" fill="#f5a742" stroke="#0b1015" stroke-width="0.45"/><rect x="702.1616541353384" y="226.3721804511279" width="8.535714285714286" height="8.535714285714286" rx="1.8778571428571431" fill="#f5a742" stroke="#0b1015" stroke-width="0.45"/><rect x="845.921052631579" y="208.40225563909777" width="8.535714285714286" height="8.535714285714286" rx="1.8778571428571431" fill="#f5a742" stroke="#0b1015" stroke-width="0.45"/><rect x="827.9511278195489" y="208.40225563909777" width="8.535714285714286" height="8.535714285714286" rx="1.8778571428571431" fill="#f5a742" stroke="#0b1015" stroke-width="0.45"/><rect x="809.9812030075187" y="208.40225563909777" width="8.535714285714286" height="8.535714285714286" rx="1.8778571428571431" fill="#f5a742" stroke="#0b1015" stroke-width="0.45"/><rect x="738.1015037593985" y="208.40225563909777" width="8.535714285714286" height="8.535714285714286" rx="1.8778571428571431" fill="#f5a742" stroke="#0b1015" stroke-width="0.45"/><rect x="720.1315789473684" y="208.40225563909777" width="8.535714285714286" height="8.535714285714286" rx="1.8778571428571431" fill="#f5a742" stroke="#0b1015" stroke-width="0.45"/><rect x="702.1616541353384" y="208.40225563909777" width="8.535714285714286" height="8.535714285714286" rx="1.8778571428571431" fill="#f5a742" stroke="#0b1015" stroke-width="0.45"/><rect x="845.921052631579" y="190.43233082706772" width="8.535714285714286" height="8.535714285714286" rx="1.8778571428571431" fill="#f5a742" stroke="#0b1015" stroke-width="0.45"/><rect x="827.9511278195489" y="190.43233082706772" width="8.535714285714286" height="8.535714285714286" rx="1.8778571428571431" fill="#f5a742" stroke="#0b1015" stroke-width="0.45"/><rect x="809.9812030075187" y="190.43233082706772" width="8.535714285714286" height="8.535714285714286" rx="1.8778571428571431" fill="#f5a742" stroke="#0b1015" stroke-width="0.45"/><rect x="738.1015037593985" y="190.43233082706772" width="8.535714285714286" height="8.535714285714286" rx="1.8778571428571431" fill="#f5a742" stroke="#0b1015" stroke-width="0.45"/><rect x="720.1315789473684" y="190.43233082706772" width="8.535714285714286" height="8.535714285714286" rx="1.8778571428571431" fill="#f5a742" stroke="#0b1015" stroke-width="0.45"/><rect x="702.1616541353384" y="190.43233082706772" width="8.535714285714286" height="8.535714285714286" rx="1.8778571428571431" fill="#f5a742" stroke="#0b1015" stroke-width="0.45"/><rect x="845.921052631579" y="172.4624060150376" width="8.535714285714286" height="8.535714285714286" rx="1.8778571428571431" fill="#f5a742" stroke="#0b1015" stroke-width="0.45"/><rect x="827.9511278195489" y="172.4624060150376" width="8.535714285714286" height="8.535714285714286" rx="1.8778571428571431" fill="#f5a742" stroke="#0b1015" stroke-width="0.45"/><rect x="809.9812030075187" y="172.4624060150376" width="8.535714285714286" height="8.535714285714286" rx="1.8778571428571431" fill="#f5a742" stroke="#0b1015" stroke-width="0.45"/><rect x="738.1015037593985" y="172.4624060150376" width="8.535714285714286" height="8.535714285714286" rx="1.8778571428571431" fill="#f5a742" stroke="#0b1015" stroke-width="0.45"/><rect x="720.1315789473684" y="172.4624060150376" width="8.535714285714286" height="8.535714285714286" rx="1.8778571428571431" fill="#f5a742" stroke="#0b1015" stroke-width="0.45"/><rect x="702.1616541353384" y="172.4624060150376" width="8.535714285714286" height="8.535714285714286" rx="1.8778571428571431" fill="#f5a742" stroke="#0b1015" stroke-width="0.45"/><rect x="451.031954887218" y="495.9210526315789" width="8.535714285714286" height="8.535714285714286" rx="1.8778571428571431" fill="#4d8cc9" stroke="#0b1015" stroke-width="0.45"/><rect x="433.0620300751879" y="495.9210526315789" width="8.535714285714286" height="8.535714285714286" rx="1.8778571428571431" fill="#4d8cc9" stroke="#0b1015" stroke-width="0.45"/><rect x="415.0921052631578" y="495.9210526315789" width="8.535714285714286" height="8.535714285714286" rx="1.8778571428571431" fill="#4d8cc9" stroke="#0b1015" stroke-width="0.45"/><rect x="397.1221804511278" y="495.9210526315789" width="8.535714285714286" height="8.535714285714286" rx="1.8778571428571431" fill="#4d8cc9" stroke="#0b1015" stroke-width="0.45"/><rect x="379.1522556390977" y="495.9210526315789" width="8.535714285714286" height="8.535714285714286" rx="1.8778571428571431" fill="#4d8cc9" stroke="#0b1015" stroke-width="0.45"/><rect x="361.18233082706763" y="495.9210526315789" width="8.535714285714286" height="8.535714285714286" rx="1.8778571428571431" fill="#4d8cc9" stroke="#0b1015" stroke-width="0.45"/><rect x="343.2124060150375" y="495.9210526315789" width="8.535714285714286" height="8.535714285714286" rx="1.8778571428571431" fill="#4d8cc9" stroke="#0b1015" stroke-width="0.45"/><rect x="325.24248120300746" y="495.9210526315789" width="8.535714285714286" height="8.535714285714286" rx="1.8778571428571431" fill="#4d8cc9" stroke="#0b1015" stroke-width="0.45"/><rect x="307.2725563909774" y="495.9210526315789" width="8.535714285714286" height="8.535714285714286" rx="1.8778571428571431" fill="#4d8cc9" stroke="#0b1015" stroke-width="0.45"/><rect x="289.30263157894734" y="495.9210526315789" width="8.535714285714286" height="8.535714285714286" rx="1.8778571428571431" fill="#4d8cc9" stroke="#0b1015" stroke-width="0.45"/><rect x="271.3327067669173" y="495.9210526315789" width="8.535714285714286" height="8.535714285714286" rx="1.8778571428571431" fill="#4d8cc9" stroke="#0b1015" stroke-width="0.45"/><rect x="253.3627819548872" y="495.9210526315789" width="8.535714285714286" height="8.535714285714286" rx="1.8778571428571431" fill="#4d8cc9" stroke="#0b1015" stroke-width="0.45"/><rect x="235.39285714285714" y="495.9210526315789" width="8.535714285714286" height="8.535714285714286" rx="1.8778571428571431" fill="#4d8cc9" stroke="#0b1015" stroke-width="0.45"/><rect x="217.42293233082705" y="495.9210526315789" width="8.535714285714286" height="8.535714285714286" rx="1.8778571428571431" fill="#4d8cc9" stroke="#0b1015" stroke-width="0.45"/><rect x="199.453007518797" y="495.9210526315789" width="8.535714285714286" height="8.535714285714286" rx="1.8778571428571431" fill="#4d8cc9" stroke="#0b1015" stroke-width="0.45"/><rect x="181.4830827067669" y="495.9210526315789" width="8.535714285714286" height="8.535714285714286" rx="1.8778571428571431" fill="#4d8cc9" stroke="#0b1015" stroke-width="0.45"/><rect x="163.51315789473682" y="495.9210526315789" width="8.535714285714286" height="8.535714285714286" rx="1.8778571428571431" fill="#4d8cc9" stroke="#0b1015" stroke-width="0.45"/><rect x="145.54323308270673" y="495.9210526315789" width="8.535714285714286" height="8.535714285714286" rx="1.8778571428571431" fill="#4d8cc9" stroke="#0b1015" stroke-width="0.45"/><rect x="451.031954887218" y="477.95112781954884" width="8.535714285714286" height="8.535714285714286" rx="1.8778571428571431" fill="#4d8cc9" stroke="#0b1015" stroke-width="0.45"/><rect x="433.0620300751879" y="477.95112781954884" width="8.535714285714286" height="8.535714285714286" rx="1.8778571428571431" fill="#4d8cc9" stroke="#0b1015" stroke-width="0.45"/><rect x="415.0921052631578" y="477.95112781954884" width="8.535714285714286" height="8.535714285714286" rx="1.8778571428571431" fill="#4d8cc9" stroke="#0b1015" stroke-width="0.45"/><rect x="397.1221804511278" y="477.95112781954884" width="8.535714285714286" height="8.535714285714286" rx="1.8778571428571431" fill="#4d8cc9" stroke="#0b1015" stroke-width="0.45"/><rect x="379.1522556390977" y="477.95112781954884" width="8.535714285714286" height="8.535714285714286" rx="1.8778571428571431" fill="#4d8cc9" stroke="#0b1015" stroke-width="0.45"/><rect x="361.18233082706763" y="477.95112781954884" width="8.535714285714286" height="8.535714285714286" rx="1.8778571428571431" fill="#4d8cc9" stroke="#0b1015" stroke-width="0.45"/><rect x="343.2124060150375" y="477.95112781954884" width="8.535714285714286" height="8.535714285714286" rx="1.8778571428571431" fill="#4d8cc9" stroke="#0b1015" stroke-width="0.45"/><rect x="325.24248120300746" y="477.95112781954884" width="8.535714285714286" height="8.535714285714286" rx="1.8778571428571431" fill="#4d8cc9" stroke="#0b1015" stroke-width="0.45"/><rect x="307.2725563909774" y="477.95112781954884" width="8.535714285714286" height="8.535714285714286" rx="1.8778571428571431" fill="#4d8cc9" stroke="#0b1015" stroke-width="0.45"/><rect x="289.30263157894734" y="477.95112781954884" width="8.535714285714286" height="8.535714285714286" rx="1.8778571428571431" fill="#4d8cc9" stroke="#0b1015" stroke-width="0.45"/><rect x="271.3327067669173" y="477.95112781954884" width="8.535714285714286" height="8.535714285714286" rx="1.8778571428571431" fill="#4d8cc9" stroke="#0b1015" stroke-width="0.45"/><rect x="253.3627819548872" y="477.95112781954884" width="8.535714285714286" height="8.535714285714286" rx="1.8778571428571431" fill="#4d8cc9" stroke="#0b1015" stroke-width="0.45"/><rect x="235.39285714285714" y="477.95112781954884" width="8.535714285714286" height="8.535714285714286" rx="1.8778571428571431" fill="#4d8cc9" stroke="#0b1015" stroke-width="0.45"/><rect x="217.42293233082705" y="477.95112781954884" width="8.535714285714286" height="8.535714285714286" rx="1.8778571428571431" fill="#4d8cc9" stroke="#0b1015" stroke-width="0.45"/><rect x="199.453007518797" y="477.95112781954884" width="8.535714285714286" height="8.535714285714286" rx="1.8778571428571431" fill="#4d8cc9" stroke="#0b1015" stroke-width="0.45"/><rect x="181.4830827067669" y="477.95112781954884" width="8.535714285714286" height="8.535714285714286" rx="1.8778571428571431" fill="#4d8cc9" stroke="#0b1015" stroke-width="0.45"/><rect x="163.51315789473682" y="477.95112781954884" width="8.535714285714286" height="8.535714285714286" rx="1.8778571428571431" fill="#4d8cc9" stroke="#0b1015" stroke-width="0.45"/><rect x="145.54323308270673" y="477.95112781954884" width="8.535714285714286" height="8.535714285714286" rx="1.8778571428571431" fill="#4d8cc9" stroke="#0b1015" stroke-width="0.45"/><rect x="451.031954887218" y="459.9812030075188" width="8.535714285714286" height="8.535714285714286" rx="1.8778571428571431" fill="#4d8cc9" stroke="#0b1015" stroke-width="0.45"/><rect x="433.0620300751879" y="459.9812030075188" width="8.535714285714286" height="8.535714285714286" rx="1.8778571428571431" fill="#4d8cc9" stroke="#0b1015" stroke-width="0.45"/><rect x="415.0921052631578" y="459.9812030075188" width="8.535714285714286" height="8.535714285714286" rx="1.8778571428571431" fill="#4d8cc9" stroke="#0b1015" stroke-width="0.45"/><rect x="397.1221804511278" y="459.9812030075188" width="8.535714285714286" height="8.535714285714286" rx="1.8778571428571431" fill="#4d8cc9" stroke="#0b1015" stroke-width="0.45"/><rect x="379.1522556390977" y="459.9812030075188" width="8.535714285714286" height="8.535714285714286" rx="1.8778571428571431" fill="#4d8cc9" stroke="#0b1015" stroke-width="0.45"/><rect x="361.18233082706763" y="459.9812030075188" width="8.535714285714286" height="8.535714285714286" rx="1.8778571428571431" fill="#4d8cc9" stroke="#0b1015" stroke-width="0.45"/><rect x="343.2124060150375" y="459.9812030075188" width="8.535714285714286" height="8.535714285714286" rx="1.8778571428571431" fill="#4d8cc9" stroke="#0b1015" stroke-width="0.45"/><rect x="325.24248120300746" y="459.9812030075188" width="8.535714285714286" height="8.535714285714286" rx="1.8778571428571431" fill="#4d8cc9" stroke="#0b1015" stroke-width="0.45"/><rect x="307.2725563909774" y="459.9812030075188" width="8.535714285714286" height="8.535714285714286" rx="1.8778571428571431" fill="#4d8cc9" stroke="#0b1015" stroke-width="0.45"/><rect x="289.30263157894734" y="459.9812030075188" width="8.535714285714286" height="8.535714285714286" rx="1.8778571428571431" fill="#4d8cc9" stroke="#0b1015" stroke-width="0.45"/><rect x="271.3327067669173" y="459.9812030075188" width="8.535714285714286" height="8.535714285714286" rx="1.8778571428571431" fill="#4d8cc9" stroke="#0b1015" stroke-width="0.45"/><rect x="253.3627819548872" y="459.9812030075188" width="8.535714285714286" height="8.535714285714286" rx="1.8778571428571431" fill="#4d8cc9" stroke="#0b1015" stroke-width="0.45"/><rect x="235.39285714285714" y="459.9812030075188" width="8.535714285714286" height="8.535714285714286" rx="1.8778571428571431" fill="#4d8cc9" stroke="#0b1015" stroke-width="0.45"/><rect x="217.42293233082705" y="459.9812030075188" width="8.535714285714286" height="8.535714285714286" rx="1.8778571428571431" fill="#4d8cc9" stroke="#0b1015" stroke-width="0.45"/><rect x="199.453007518797" y="459.9812030075188" width="8.535714285714286" height="8.535714285714286" rx="1.8778571428571431" fill="#4d8cc9" stroke="#0b1015" stroke-width="0.45"/><rect x="181.4830827067669" y="459.9812030075188" width="8.535714285714286" height="8.535714285714286" rx="1.8778571428571431" fill="#4d8cc9" stroke="#0b1015" stroke-width="0.45"/><rect x="163.51315789473682" y="459.9812030075188" width="8.535714285714286" height="8.535714285714286" rx="1.8778571428571431" fill="#4d8cc9" stroke="#0b1015" stroke-width="0.45"/><rect x="145.54323308270673" y="459.9812030075188" width="8.535714285714286" height="8.535714285714286" rx="1.8778571428571431" fill="#4d8cc9" stroke="#0b1015" stroke-width="0.45"/><rect x="451.031954887218" y="442.0112781954887" width="8.535714285714286" height="8.535714285714286" rx="1.8778571428571431" fill="#4d8cc9" stroke="#0b1015" stroke-width="0.45"/><rect x="433.0620300751879" y="442.0112781954887" width="8.535714285714286" height="8.535714285714286" rx="1.8778571428571431" fill="#4d8cc9" stroke="#0b1015" stroke-width="0.45"/><rect x="415.0921052631578" y="442.0112781954887" width="8.535714285714286" height="8.535714285714286" rx="1.8778571428571431" fill="#4d8cc9" stroke="#0b1015" stroke-width="0.45"/><rect x="397.1221804511278" y="442.0112781954887" width="8.535714285714286" height="8.535714285714286" rx="1.8778571428571431" fill="#4d8cc9" stroke="#0b1015" stroke-width="0.45"/><rect x="379.1522556390977" y="442.0112781954887" width="8.535714285714286" height="8.535714285714286" rx="1.8778571428571431" fill="#4d8cc9" stroke="#0b1015" stroke-width="0.45"/><rect x="361.18233082706763" y="442.0112781954887" width="8.535714285714286" height="8.535714285714286" rx="1.8778571428571431" fill="#4d8cc9" stroke="#0b1015" stroke-width="0.45"/><rect x="343.2124060150375" y="442.0112781954887" width="8.535714285714286" height="8.535714285714286" rx="1.8778571428571431" fill="#4d8cc9" stroke="#0b1015" stroke-width="0.45"/><rect x="325.24248120300746" y="442.0112781954887" width="8.535714285714286" height="8.535714285714286" rx="1.8778571428571431" fill="#4d8cc9" stroke="#0b1015" stroke-width="0.45"/><rect x="307.2725563909774" y="442.0112781954887" width="8.535714285714286" height="8.535714285714286" rx="1.8778571428571431" fill="#4d8cc9" stroke="#0b1015" stroke-width="0.45"/><rect x="289.30263157894734" y="442.0112781954887" width="8.535714285714286" height="8.535714285714286" rx="1.8778571428571431" fill="#4d8cc9" stroke="#0b1015" stroke-width="0.45"/><rect x="271.3327067669173" y="442.0112781954887" width="8.535714285714286" height="8.535714285714286" rx="1.8778571428571431" fill="#4d8cc9" stroke="#0b1015" stroke-width="0.45"/><rect x="253.3627819548872" y="442.0112781954887" width="8.535714285714286" height="8.535714285714286" rx="1.8778571428571431" fill="#4d8cc9" stroke="#0b1015" stroke-width="0.45"/><rect x="235.39285714285714" y="442.0112781954887" width="8.535714285714286" height="8.535714285714286" rx="1.8778571428571431" fill="#4d8cc9" stroke="#0b1015" stroke-width="0.45"/><rect x="217.42293233082705" y="442.0112781954887" width="8.535714285714286" height="8.535714285714286" rx="1.8778571428571431" fill="#4d8cc9" stroke="#0b1015" stroke-width="0.45"/><rect x="199.453007518797" y="442.0112781954887" width="8.535714285714286" height="8.535714285714286" rx="1.8778571428571431" fill="#4d8cc9" stroke="#0b1015" stroke-width="0.45"/><rect x="181.4830827067669" y="442.0112781954887" width="8.535714285714286" height="8.535714285714286" rx="1.8778571428571431" fill="#4d8cc9" stroke="#0b1015" stroke-width="0.45"/><rect x="163.51315789473682" y="442.0112781954887" width="8.535714285714286" height="8.535714285714286" rx="1.8778571428571431" fill="#4d8cc9" stroke="#0b1015" stroke-width="0.45"/><rect x="145.54323308270673" y="442.0112781954887" width="8.535714285714286" height="8.535714285714286" rx="1.8778571428571431" fill="#4d8cc9" stroke="#0b1015" stroke-width="0.45"/><rect x="451.031954887218" y="424.04135338345867" width="8.535714285714286" height="8.535714285714286" rx="1.8778571428571431" fill="#4d8cc9" stroke="#0b1015" stroke-width="0.45"/><rect x="433.0620300751879" y="424.04135338345867" width="8.535714285714286" height="8.535714285714286" rx="1.8778571428571431" fill="#4d8cc9" stroke="#0b1015" stroke-width="0.45"/><rect x="415.0921052631578" y="424.04135338345867" width="8.535714285714286" height="8.535714285714286" rx="1.8778571428571431" fill="#4d8cc9" stroke="#0b1015" stroke-width="0.45"/><rect x="397.1221804511278" y="424.04135338345867" width="8.535714285714286" height="8.535714285714286" rx="1.8778571428571431" fill="#4d8cc9" stroke="#0b1015" stroke-width="0.45"/><rect x="379.1522556390977" y="424.04135338345867" width="8.535714285714286" height="8.535714285714286" rx="1.8778571428571431" fill="#4d8cc9" stroke="#0b1015" stroke-width="0.45"/><rect x="361.18233082706763" y="424.04135338345867" width="8.535714285714286" height="8.535714285714286" rx="1.8778571428571431" fill="#4d8cc9" stroke="#0b1015" stroke-width="0.45"/><rect x="343.2124060150375" y="424.04135338345867" width="8.535714285714286" height="8.535714285714286" rx="1.8778571428571431" fill="#4d8cc9" stroke="#0b1015" stroke-width="0.45"/><rect x="325.24248120300746" y="424.04135338345867" width="8.535714285714286" height="8.535714285714286" rx="1.8778571428571431" fill="#4d8cc9" stroke="#0b1015" stroke-width="0.45"/><rect x="307.2725563909774" y="424.04135338345867" width="8.535714285714286" height="8.535714285714286" rx="1.8778571428571431" fill="#4d8cc9" stroke="#0b1015" stroke-width="0.45"/><rect x="289.30263157894734" y="424.04135338345867" width="8.535714285714286" height="8.535714285714286" rx="1.8778571428571431" fill="#4d8cc9" stroke="#0b1015" stroke-width="0.45"/><rect x="271.3327067669173" y="424.04135338345867" width="8.535714285714286" height="8.535714285714286" rx="1.8778571428571431" fill="#4d8cc9" stroke="#0b1015" stroke-width="0.45"/><rect x="253.3627819548872" y="424.04135338345867" width="8.535714285714286" height="8.535714285714286" rx="1.8778571428571431" fill="#4d8cc9" stroke="#0b1015" stroke-width="0.45"/><rect x="235.39285714285714" y="424.04135338345867" width="8.535714285714286" height="8.535714285714286" rx="1.8778571428571431" fill="#4d8cc9" stroke="#0b1015" stroke-width="0.45"/><rect x="217.42293233082705" y="424.04135338345867" width="8.535714285714286" height="8.535714285714286" rx="1.8778571428571431" fill="#4d8cc9" stroke="#0b1015" stroke-width="0.45"/><rect x="199.453007518797" y="424.04135338345867" width="8.535714285714286" height="8.535714285714286" rx="1.8778571428571431" fill="#4d8cc9" stroke="#0b1015" stroke-width="0.45"/><rect x="181.4830827067669" y="424.04135338345867" width="8.535714285714286" height="8.535714285714286" rx="1.8778571428571431" fill="#4d8cc9" stroke="#0b1015" stroke-width="0.45"/><rect x="163.51315789473682" y="424.04135338345867" width="8.535714285714286" height="8.535714285714286" rx="1.8778571428571431" fill="#4d8cc9" stroke="#0b1015" stroke-width="0.45"/><rect x="145.54323308270673" y="424.04135338345867" width="8.535714285714286" height="8.535714285714286" rx="1.8778571428571431" fill="#4d8cc9" stroke="#0b1015" stroke-width="0.45"/><rect x="451.031954887218" y="406.07142857142856" width="8.535714285714286" height="8.535714285714286" rx="1.8778571428571431" fill="#4d8cc9" stroke="#0b1015" stroke-width="0.45"/><rect x="433.0620300751879" y="406.07142857142856" width="8.535714285714286" height="8.535714285714286" rx="1.8778571428571431" fill="#4d8cc9" stroke="#0b1015" stroke-width="0.45"/><rect x="415.0921052631578" y="406.07142857142856" width="8.535714285714286" height="8.535714285714286" rx="1.8778571428571431" fill="#4d8cc9" stroke="#0b1015" stroke-width="0.45"/><rect x="397.1221804511278" y="406.07142857142856" width="8.535714285714286" height="8.535714285714286" rx="1.8778571428571431" fill="#4d8cc9" stroke="#0b1015" stroke-width="0.45"/><rect x="379.1522556390977" y="406.07142857142856" width="8.535714285714286" height="8.535714285714286" rx="1.8778571428571431" fill="#4d8cc9" stroke="#0b1015" stroke-width="0.45"/><rect x="361.18233082706763" y="406.07142857142856" width="8.535714285714286" height="8.535714285714286" rx="1.8778571428571431" fill="#4d8cc9" stroke="#0b1015" stroke-width="0.45"/><rect x="343.2124060150375" y="406.07142857142856" width="8.535714285714286" height="8.535714285714286" rx="1.8778571428571431" fill="#4d8cc9" stroke="#0b1015" stroke-width="0.45"/><rect x="325.24248120300746" y="406.07142857142856" width="8.535714285714286" height="8.535714285714286" rx="1.8778571428571431" fill="#4d8cc9" stroke="#0b1015" stroke-width="0.45"/><rect x="307.2725563909774" y="406.07142857142856" width="8.535714285714286" height="8.535714285714286" rx="1.8778571428571431" fill="#4d8cc9" stroke="#0b1015" stroke-width="0.45"/><rect x="289.30263157894734" y="406.07142857142856" width="8.535714285714286" height="8.535714285714286" rx="1.8778571428571431" fill="#4d8cc9" stroke="#0b1015" stroke-width="0.45"/><rect x="271.3327067669173" y="406.07142857142856" width="8.535714285714286" height="8.535714285714286" rx="1.8778571428571431" fill="#4d8cc9" stroke="#0b1015" stroke-width="0.45"/><rect x="253.3627819548872" y="406.07142857142856" width="8.535714285714286" height="8.535714285714286" rx="1.8778571428571431" fill="#4d8cc9" stroke="#0b1015" stroke-width="0.45"/><rect x="235.39285714285714" y="406.07142857142856" width="8.535714285714286" height="8.535714285714286" rx="1.8778571428571431" fill="#4d8cc9" stroke="#0b1015" stroke-width="0.45"/><rect x="217.42293233082705" y="406.07142857142856" width="8.535714285714286" height="8.535714285714286" rx="1.8778571428571431" fill="#4d8cc9" stroke="#0b1015" stroke-width="0.45"/><rect x="199.453007518797" y="406.07142857142856" width="8.535714285714286" height="8.535714285714286" rx="1.8778571428571431" fill="#4d8cc9" stroke="#0b1015" stroke-width="0.45"/><rect x="181.4830827067669" y="406.07142857142856" width="8.535714285714286" height="8.535714285714286" rx="1.8778571428571431" fill="#4d8cc9" stroke="#0b1015" stroke-width="0.45"/><rect x="163.51315789473682" y="406.07142857142856" width="8.535714285714286" height="8.535714285714286" rx="1.8778571428571431" fill="#4d8cc9" stroke="#0b1015" stroke-width="0.45"/><rect x="145.54323308270673" y="406.07142857142856" width="8.535714285714286" height="8.535714285714286" rx="1.8778571428571431" fill="#4d8cc9" stroke="#0b1015" stroke-width="0.45"/><rect x="451.031954887218" y="388.1015037593985" width="8.535714285714286" height="8.535714285714286" rx="1.8778571428571431" fill="#4d8cc9" stroke="#0b1015" stroke-width="0.45"/><rect x="433.0620300751879" y="388.1015037593985" width="8.535714285714286" height="8.535714285714286" rx="1.8778571428571431" fill="#4d8cc9" stroke="#0b1015" stroke-width="0.45"/><rect x="415.0921052631578" y="388.1015037593985" width="8.535714285714286" height="8.535714285714286" rx="1.8778571428571431" fill="#4d8cc9" stroke="#0b1015" stroke-width="0.45"/><rect x="397.1221804511278" y="388.1015037593985" width="8.535714285714286" height="8.535714285714286" rx="1.8778571428571431" fill="#4d8cc9" stroke="#0b1015" stroke-width="0.45"/><rect x="379.1522556390977" y="388.1015037593985" width="8.535714285714286" height="8.535714285714286" rx="1.8778571428571431" fill="#4d8cc9" stroke="#0b1015" stroke-width="0.45"/><rect x="361.18233082706763" y="388.1015037593985" width="8.535714285714286" height="8.535714285714286" rx="1.8778571428571431" fill="#4d8cc9" stroke="#0b1015" stroke-width="0.45"/><rect x="343.2124060150375" y="388.1015037593985" width="8.535714285714286" height="8.535714285714286" rx="1.8778571428571431" fill="#4d8cc9" stroke="#0b1015" stroke-width="0.45"/><rect x="325.24248120300746" y="388.1015037593985" width="8.535714285714286" height="8.535714285714286" rx="1.8778571428571431" fill="#4d8cc9" stroke="#0b1015" stroke-width="0.45"/><rect x="307.2725563909774" y="388.1015037593985" width="8.535714285714286" height="8.535714285714286" rx="1.8778571428571431" fill="#4d8cc9" stroke="#0b1015" stroke-width="0.45"/><rect x="289.30263157894734" y="388.1015037593985" width="8.535714285714286" height="8.535714285714286" rx="1.8778571428571431" fill="#4d8cc9" stroke="#0b1015" stroke-width="0.45"/><rect x="271.3327067669173" y="388.1015037593985" width="8.535714285714286" height="8.535714285714286" rx="1.8778571428571431" fill="#4d8cc9" stroke="#0b1015" stroke-width="0.45"/><rect x="253.3627819548872" y="388.1015037593985" width="8.535714285714286" height="8.535714285714286" rx="1.8778571428571431" fill="#4d8cc9" stroke="#0b1015" stroke-width="0.45"/><rect x="235.39285714285714" y="388.1015037593985" width="8.535714285714286" height="8.535714285714286" rx="1.8778571428571431" fill="#4d8cc9" stroke="#0b1015" stroke-width="0.45"/><rect x="217.42293233082705" y="388.1015037593985" width="8.535714285714286" height="8.535714285714286" rx="1.8778571428571431" fill="#4d8cc9" stroke="#0b1015" stroke-width="0.45"/><rect x="199.453007518797" y="388.1015037593985" width="8.535714285714286" height="8.535714285714286" rx="1.8778571428571431" fill="#4d8cc9" stroke="#0b1015" stroke-width="0.45"/><rect x="181.4830827067669" y="388.1015037593985" width="8.535714285714286" height="8.535714285714286" rx="1.8778571428571431" fill="#4d8cc9" stroke="#0b1015" stroke-width="0.45"/><rect x="163.51315789473682" y="388.1015037593985" width="8.535714285714286" height="8.535714285714286" rx="1.8778571428571431" fill="#4d8cc9" stroke="#0b1015" stroke-width="0.45"/><rect x="145.54323308270673" y="388.1015037593985" width="8.535714285714286" height="8.535714285714286" rx="1.8778571428571431" fill="#4d8cc9" stroke="#0b1015" stroke-width="0.45"/><rect x="451.031954887218" y="370.1315789473684" width="8.535714285714286" height="8.535714285714286" rx="1.8778571428571431" fill="#4d8cc9" stroke="#0b1015" stroke-width="0.45"/><rect x="433.0620300751879" y="370.1315789473684" width="8.535714285714286" height="8.535714285714286" rx="1.8778571428571431" fill="#4d8cc9" stroke="#0b1015" stroke-width="0.45"/><rect x="415.0921052631578" y="370.1315789473684" width="8.535714285714286" height="8.535714285714286" rx="1.8778571428571431" fill="#4d8cc9" stroke="#0b1015" stroke-width="0.45"/><rect x="397.1221804511278" y="370.1315789473684" width="8.535714285714286" height="8.535714285714286" rx="1.8778571428571431" fill="#4d8cc9" stroke="#0b1015" stroke-width="0.45"/><rect x="379.1522556390977" y="370.1315789473684" width="8.535714285714286" height="8.535714285714286" rx="1.8778571428571431" fill="#4d8cc9" stroke="#0b1015" stroke-width="0.45"/><rect x="361.18233082706763" y="370.1315789473684" width="8.535714285714286" height="8.535714285714286" rx="1.8778571428571431" fill="#4d8cc9" stroke="#0b1015" stroke-width="0.45"/><rect x="343.2124060150375" y="370.1315789473684" width="8.535714285714286" height="8.535714285714286" rx="1.8778571428571431" fill="#4d8cc9" stroke="#0b1015" stroke-width="0.45"/><rect x="325.24248120300746" y="370.1315789473684" width="8.535714285714286" height="8.535714285714286" rx="1.8778571428571431" fill="#4d8cc9" stroke="#0b1015" stroke-width="0.45"/><rect x="307.2725563909774" y="370.1315789473684" width="8.535714285714286" height="8.535714285714286" rx="1.8778571428571431" fill="#4d8cc9" stroke="#0b1015" stroke-width="0.45"/><rect x="289.30263157894734" y="370.1315789473684" width="8.535714285714286" height="8.535714285714286" rx="1.8778571428571431" fill="#4d8cc9" stroke="#0b1015" stroke-width="0.45"/><rect x="271.3327067669173" y="370.1315789473684" width="8.535714285714286" height="8.535714285714286" rx="1.8778571428571431" fill="#4d8cc9" stroke="#0b1015" stroke-width="0.45"/><rect x="253.3627819548872" y="370.1315789473684" width="8.535714285714286" height="8.535714285714286" rx="1.8778571428571431" fill="#4d8cc9" stroke="#0b1015" stroke-width="0.45"/><rect x="235.39285714285714" y="370.1315789473684" width="8.535714285714286" height="8.535714285714286" rx="1.8778571428571431" fill="#4d8cc9" stroke="#0b1015" stroke-width="0.45"/><rect x="217.42293233082705" y="370.1315789473684" width="8.535714285714286" height="8.535714285714286" rx="1.8778571428571431" fill="#4d8cc9" stroke="#0b1015" stroke-width="0.45"/><rect x="199.453007518797" y="370.1315789473684" width="8.535714285714286" height="8.535714285714286" rx="1.8778571428571431" fill="#4d8cc9" stroke="#0b1015" stroke-width="0.45"/><rect x="181.4830827067669" y="370.1315789473684" width="8.535714285714286" height="8.535714285714286" rx="1.8778571428571431" fill="#4d8cc9" stroke="#0b1015" stroke-width="0.45"/><rect x="163.51315789473682" y="370.1315789473684" width="8.535714285714286" height="8.535714285714286" rx="1.8778571428571431" fill="#4d8cc9" stroke="#0b1015" stroke-width="0.45"/><rect x="145.54323308270673" y="370.1315789473684" width="8.535714285714286" height="8.535714285714286" rx="1.8778571428571431" fill="#4d8cc9" stroke="#0b1015" stroke-width="0.45"/><rect x="451.031954887218" y="352.1616541353383" width="8.535714285714286" height="8.535714285714286" rx="1.8778571428571431" fill="#4d8cc9" stroke="#0b1015" stroke-width="0.45"/><rect x="433.0620300751879" y="352.1616541353383" width="8.535714285714286" height="8.535714285714286" rx="1.8778571428571431" fill="#4d8cc9" stroke="#0b1015" stroke-width="0.45"/><rect x="415.0921052631578" y="352.1616541353383" width="8.535714285714286" height="8.535714285714286" rx="1.8778571428571431" fill="#4d8cc9" stroke="#0b1015" stroke-width="0.45"/><rect x="397.1221804511278" y="352.1616541353383" width="8.535714285714286" height="8.535714285714286" rx="1.8778571428571431" fill="#4d8cc9" stroke="#0b1015" stroke-width="0.45"/><rect x="379.1522556390977" y="352.1616541353383" width="8.535714285714286" height="8.535714285714286" rx="1.8778571428571431" fill="#4d8cc9" stroke="#0b1015" stroke-width="0.45"/><rect x="361.18233082706763" y="352.1616541353383" width="8.535714285714286" height="8.535714285714286" rx="1.8778571428571431" fill="#4d8cc9" stroke="#0b1015" stroke-width="0.45"/><rect x="343.2124060150375" y="352.1616541353383" width="8.535714285714286" height="8.535714285714286" rx="1.8778571428571431" fill="#4d8cc9" stroke="#0b1015" stroke-width="0.45"/><rect x="325.24248120300746" y="352.1616541353383" width="8.535714285714286" height="8.535714285714286" rx="1.8778571428571431" fill="#4d8cc9" stroke="#0b1015" stroke-width="0.45"/><rect x="307.2725563909774" y="352.1616541353383" width="8.535714285714286" height="8.535714285714286" rx="1.8778571428571431" fill="#4d8cc9" stroke="#0b1015" stroke-width="0.45"/><rect x="289.30263157894734" y="352.1616541353383" width="8.535714285714286" height="8.535714285714286" rx="1.8778571428571431" fill="#4d8cc9" stroke="#0b1015" stroke-width="0.45"/><rect x="271.3327067669173" y="352.1616541353383" width="8.535714285714286" height="8.535714285714286" rx="1.8778571428571431" fill="#4d8cc9" stroke="#0b1015" stroke-width="0.45"/><rect x="253.3627819548872" y="352.1616541353383" width="8.535714285714286" height="8.535714285714286" rx="1.8778571428571431" fill="#4d8cc9" stroke="#0b1015" stroke-width="0.45"/><rect x="235.39285714285714" y="352.1616541353383" width="8.535714285714286" height="8.535714285714286" rx="1.8778571428571431" fill="#4d8cc9" stroke="#0b1015" stroke-width="0.45"/><rect x="217.42293233082705" y="352.1616541353383" width="8.535714285714286" height="8.535714285714286" rx="1.8778571428571431" fill="#4d8cc9" stroke="#0b1015" stroke-width="0.45"/><rect x="199.453007518797" y="352.1616541353383" width="8.535714285714286" height="8.535714285714286" rx="1.8778571428571431" fill="#4d8cc9" stroke="#0b1015" stroke-width="0.45"/><rect x="181.4830827067669" y="352.1616541353383" width="8.535714285714286" height="8.535714285714286" rx="1.8778571428571431" fill="#4d8cc9" stroke="#0b1015" stroke-width="0.45"/><rect x="163.51315789473682" y="352.1616541353383" width="8.535714285714286" height="8.535714285714286" rx="1.8778571428571431" fill="#4d8cc9" stroke="#0b1015" stroke-width="0.45"/><rect x="145.54323308270673" y="352.1616541353383" width="8.535714285714286" height="8.535714285714286" rx="1.8778571428571431" fill="#4d8cc9" stroke="#0b1015" stroke-width="0.45"/><rect x="451.031954887218" y="334.19172932330827" width="8.535714285714286" height="8.535714285714286" rx="1.8778571428571431" fill="#4d8cc9" stroke="#0b1015" stroke-width="0.45"/><rect x="433.0620300751879" y="334.19172932330827" width="8.535714285714286" height="8.535714285714286" rx="1.8778571428571431" fill="#4d8cc9" stroke="#0b1015" stroke-width="0.45"/><rect x="415.0921052631578" y="334.19172932330827" width="8.535714285714286" height="8.535714285714286" rx="1.8778571428571431" fill="#4d8cc9" stroke="#0b1015" stroke-width="0.45"/><rect x="397.1221804511278" y="334.19172932330827" width="8.535714285714286" height="8.535714285714286" rx="1.8778571428571431" fill="#4d8cc9" stroke="#0b1015" stroke-width="0.45"/><rect x="379.1522556390977" y="334.19172932330827" width="8.535714285714286" height="8.535714285714286" rx="1.8778571428571431" fill="#4d8cc9" stroke="#0b1015" stroke-width="0.45"/><rect x="361.18233082706763" y="334.19172932330827" width="8.535714285714286" height="8.535714285714286" rx="1.8778571428571431" fill="#4d8cc9" stroke="#0b1015" stroke-width="0.45"/><rect x="343.2124060150375" y="334.19172932330827" width="8.535714285714286" height="8.535714285714286" rx="1.8778571428571431" fill="#4d8cc9" stroke="#0b1015" stroke-width="0.45"/><rect x="325.24248120300746" y="334.19172932330827" width="8.535714285714286" height="8.535714285714286" rx="1.8778571428571431" fill="#4d8cc9" stroke="#0b1015" stroke-width="0.45"/><rect x="307.2725563909774" y="334.19172932330827" width="8.535714285714286" height="8.535714285714286" rx="1.8778571428571431" fill="#4d8cc9" stroke="#0b1015" stroke-width="0.45"/><rect x="289.30263157894734" y="334.19172932330827" width="8.535714285714286" height="8.535714285714286" rx="1.8778571428571431" fill="#4d8cc9" stroke="#0b1015" stroke-width="0.45"/><rect x="271.3327067669173" y="334.19172932330827" width="8.535714285714286" height="8.535714285714286" rx="1.8778571428571431" fill="#4d8cc9" stroke="#0b1015" stroke-width="0.45"/><rect x="253.3627819548872" y="334.19172932330827" width="8.535714285714286" height="8.535714285714286" rx="1.8778571428571431" fill="#4d8cc9" stroke="#0b1015" stroke-width="0.45"/><rect x="235.39285714285714" y="334.19172932330827" width="8.535714285714286" height="8.535714285714286" rx="1.8778571428571431" fill="#4d8cc9" stroke="#0b1015" stroke-width="0.45"/><rect x="217.42293233082705" y="334.19172932330827" width="8.535714285714286" height="8.535714285714286" rx="1.8778571428571431" fill="#4d8cc9" stroke="#0b1015" stroke-width="0.45"/><rect x="199.453007518797" y="334.19172932330827" width="8.535714285714286" height="8.535714285714286" rx="1.8778571428571431" fill="#4d8cc9" stroke="#0b1015" stroke-width="0.45"/><rect x="181.4830827067669" y="334.19172932330827" width="8.535714285714286" height="8.535714285714286" rx="1.8778571428571431" fill="#4d8cc9" stroke="#0b1015" stroke-width="0.45"/><rect x="163.51315789473682" y="334.19172932330827" width="8.535714285714286" height="8.535714285714286" rx="1.8778571428571431" fill="#4d8cc9" stroke="#0b1015" stroke-width="0.45"/><rect x="145.54323308270673" y="334.19172932330827" width="8.535714285714286" height="8.535714285714286" rx="1.8778571428571431" fill="#4d8cc9" stroke="#0b1015" stroke-width="0.45"/><rect x="451.031954887218" y="316.2218045112782" width="8.535714285714286" height="8.535714285714286" rx="1.8778571428571431" fill="#4d8cc9" stroke="#0b1015" stroke-width="0.45"/><rect x="433.0620300751879" y="316.2218045112782" width="8.535714285714286" height="8.535714285714286" rx="1.8778571428571431" fill="#4d8cc9" stroke="#0b1015" stroke-width="0.45"/><rect x="415.0921052631578" y="316.2218045112782" width="8.535714285714286" height="8.535714285714286" rx="1.8778571428571431" fill="#4d8cc9" stroke="#0b1015" stroke-width="0.45"/><rect x="397.1221804511278" y="316.2218045112782" width="8.535714285714286" height="8.535714285714286" rx="1.8778571428571431" fill="#4d8cc9" stroke="#0b1015" stroke-width="0.45"/><rect x="379.1522556390977" y="316.2218045112782" width="8.535714285714286" height="8.535714285714286" rx="1.8778571428571431" fill="#4d8cc9" stroke="#0b1015" stroke-width="0.45"/><rect x="361.18233082706763" y="316.2218045112782" width="8.535714285714286" height="8.535714285714286" rx="1.8778571428571431" fill="#4d8cc9" stroke="#0b1015" stroke-width="0.45"/><rect x="343.2124060150375" y="316.2218045112782" width="8.535714285714286" height="8.535714285714286" rx="1.8778571428571431" fill="#4d8cc9" stroke="#0b1015" stroke-width="0.45"/><rect x="325.24248120300746" y="316.2218045112782" width="8.535714285714286" height="8.535714285714286" rx="1.8778571428571431" fill="#4d8cc9" stroke="#0b1015" stroke-width="0.45"/><rect x="307.2725563909774" y="316.2218045112782" width="8.535714285714286" height="8.535714285714286" rx="1.8778571428571431" fill="#4d8cc9" stroke="#0b1015" stroke-width="0.45"/><rect x="289.30263157894734" y="316.2218045112782" width="8.535714285714286" height="8.535714285714286" rx="1.8778571428571431" fill="#4d8cc9" stroke="#0b1015" stroke-width="0.45"/><rect x="271.3327067669173" y="316.2218045112782" width="8.535714285714286" height="8.535714285714286" rx="1.8778571428571431" fill="#4d8cc9" stroke="#0b1015" stroke-width="0.45"/><rect x="253.3627819548872" y="316.2218045112782" width="8.535714285714286" height="8.535714285714286" rx="1.8778571428571431" fill="#4d8cc9" stroke="#0b1015" stroke-width="0.45"/><rect x="235.39285714285714" y="316.2218045112782" width="8.535714285714286" height="8.535714285714286" rx="1.8778571428571431" fill="#4d8cc9" stroke="#0b1015" stroke-width="0.45"/><rect x="217.42293233082705" y="316.2218045112782" width="8.535714285714286" height="8.535714285714286" rx="1.8778571428571431" fill="#4d8cc9" stroke="#0b1015" stroke-width="0.45"/><rect x="199.453007518797" y="316.2218045112782" width="8.535714285714286" height="8.535714285714286" rx="1.8778571428571431" fill="#4d8cc9" stroke="#0b1015" stroke-width="0.45"/><rect x="181.4830827067669" y="316.2218045112782" width="8.535714285714286" height="8.535714285714286" rx="1.8778571428571431" fill="#4d8cc9" stroke="#0b1015" stroke-width="0.45"/><rect x="163.51315789473682" y="316.2218045112782" width="8.535714285714286" height="8.535714285714286" rx="1.8778571428571431" fill="#4d8cc9" stroke="#0b1015" stroke-width="0.45"/><rect x="145.54323308270673" y="316.2218045112782" width="8.535714285714286" height="8.535714285714286" rx="1.8778571428571431" fill="#4d8cc9" stroke="#0b1015" stroke-width="0.45"/><rect x="451.031954887218" y="298.25187969924815" width="8.535714285714286" height="8.535714285714286" rx="1.8778571428571431" fill="#4d8cc9" stroke="#0b1015" stroke-width="0.45"/><rect x="433.0620300751879" y="298.25187969924815" width="8.535714285714286" height="8.535714285714286" rx="1.8778571428571431" fill="#4d8cc9" stroke="#0b1015" stroke-width="0.45"/><rect x="415.0921052631578" y="298.25187969924815" width="8.535714285714286" height="8.535714285714286" rx="1.8778571428571431" fill="#4d8cc9" stroke="#0b1015" stroke-width="0.45"/><rect x="397.1221804511278" y="298.25187969924815" width="8.535714285714286" height="8.535714285714286" rx="1.8778571428571431" fill="#4d8cc9" stroke="#0b1015" stroke-width="0.45"/><rect x="379.1522556390977" y="298.25187969924815" width="8.535714285714286" height="8.535714285714286" rx="1.8778571428571431" fill="#4d8cc9" stroke="#0b1015" stroke-width="0.45"/><rect x="361.18233082706763" y="298.25187969924815" width="8.535714285714286" height="8.535714285714286" rx="1.8778571428571431" fill="#4d8cc9" stroke="#0b1015" stroke-width="0.45"/><rect x="343.2124060150375" y="298.25187969924815" width="8.535714285714286" height="8.535714285714286" rx="1.8778571428571431" fill="#4d8cc9" stroke="#0b1015" stroke-width="0.45"/><rect x="325.24248120300746" y="298.25187969924815" width="8.535714285714286" height="8.535714285714286" rx="1.8778571428571431" fill="#4d8cc9" stroke="#0b1015" stroke-width="0.45"/><rect x="307.2725563909774" y="298.25187969924815" width="8.535714285714286" height="8.535714285714286" rx="1.8778571428571431" fill="#4d8cc9" stroke="#0b1015" stroke-width="0.45"/><rect x="289.30263157894734" y="298.25187969924815" width="8.535714285714286" height="8.535714285714286" rx="1.8778571428571431" fill="#4d8cc9" stroke="#0b1015" stroke-width="0.45"/><rect x="271.3327067669173" y="298.25187969924815" width="8.535714285714286" height="8.535714285714286" rx="1.8778571428571431" fill="#4d8cc9" stroke="#0b1015" stroke-width="0.45"/><rect x="253.3627819548872" y="298.25187969924815" width="8.535714285714286" height="8.535714285714286" rx="1.8778571428571431" fill="#4d8cc9" stroke="#0b1015" stroke-width="0.45"/><rect x="235.39285714285714" y="298.25187969924815" width="8.535714285714286" height="8.535714285714286" rx="1.8778571428571431" fill="#4d8cc9" stroke="#0b1015" stroke-width="0.45"/><rect x="217.42293233082705" y="298.25187969924815" width="8.535714285714286" height="8.535714285714286" rx="1.8778571428571431" fill="#4d8cc9" stroke="#0b1015" stroke-width="0.45"/><rect x="199.453007518797" y="298.25187969924815" width="8.535714285714286" height="8.535714285714286" rx="1.8778571428571431" fill="#4d8cc9" stroke="#0b1015" stroke-width="0.45"/><rect x="181.4830827067669" y="298.25187969924815" width="8.535714285714286" height="8.535714285714286" rx="1.8778571428571431" fill="#4d8cc9" stroke="#0b1015" stroke-width="0.45"/><rect x="163.51315789473682" y="298.25187969924815" width="8.535714285714286" height="8.535714285714286" rx="1.8778571428571431" fill="#4d8cc9" stroke="#0b1015" stroke-width="0.45"/><rect x="145.54323308270673" y="298.25187969924815" width="8.535714285714286" height="8.535714285714286" rx="1.8778571428571431" fill="#4d8cc9" stroke="#0b1015" stroke-width="0.45"/><rect x="451.031954887218" y="280.28195488721803" width="8.535714285714286" height="8.535714285714286" rx="1.8778571428571431" fill="#4d8cc9" stroke="#0b1015" stroke-width="0.45"/><rect x="433.0620300751879" y="280.28195488721803" width="8.535714285714286" height="8.535714285714286" rx="1.8778571428571431" fill="#4d8cc9" stroke="#0b1015" stroke-width="0.45"/><rect x="415.0921052631578" y="280.28195488721803" width="8.535714285714286" height="8.535714285714286" rx="1.8778571428571431" fill="#4d8cc9" stroke="#0b1015" stroke-width="0.45"/><rect x="397.1221804511278" y="280.28195488721803" width="8.535714285714286" height="8.535714285714286" rx="1.8778571428571431" fill="#4d8cc9" stroke="#0b1015" stroke-width="0.45"/><rect x="379.1522556390977" y="280.28195488721803" width="8.535714285714286" height="8.535714285714286" rx="1.8778571428571431" fill="#4d8cc9" stroke="#0b1015" stroke-width="0.45"/><rect x="361.18233082706763" y="280.28195488721803" width="8.535714285714286" height="8.535714285714286" rx="1.8778571428571431" fill="#4d8cc9" stroke="#0b1015" stroke-width="0.45"/><rect x="343.2124060150375" y="280.28195488721803" width="8.535714285714286" height="8.535714285714286" rx="1.8778571428571431" fill="#4d8cc9" stroke="#0b1015" stroke-width="0.45"/><rect x="325.24248120300746" y="280.28195488721803" width="8.535714285714286" height="8.535714285714286" rx="1.8778571428571431" fill="#4d8cc9" stroke="#0b1015" stroke-width="0.45"/><rect x="307.2725563909774" y="280.28195488721803" width="8.535714285714286" height="8.535714285714286" rx="1.8778571428571431" fill="#4d8cc9" stroke="#0b1015" stroke-width="0.45"/><rect x="289.30263157894734" y="280.28195488721803" width="8.535714285714286" height="8.535714285714286" rx="1.8778571428571431" fill="#4d8cc9" stroke="#0b1015" stroke-width="0.45"/><rect x="271.3327067669173" y="280.28195488721803" width="8.535714285714286" height="8.535714285714286" rx="1.8778571428571431" fill="#4d8cc9" stroke="#0b1015" stroke-width="0.45"/><rect x="253.3627819548872" y="280.28195488721803" width="8.535714285714286" height="8.535714285714286" rx="1.8778571428571431" fill="#4d8cc9" stroke="#0b1015" stroke-width="0.45"/><rect x="235.39285714285714" y="280.28195488721803" width="8.535714285714286" height="8.535714285714286" rx="1.8778571428571431" fill="#4d8cc9" stroke="#0b1015" stroke-width="0.45"/><rect x="217.42293233082705" y="280.28195488721803" width="8.535714285714286" height="8.535714285714286" rx="1.8778571428571431" fill="#4d8cc9" stroke="#0b1015" stroke-width="0.45"/><rect x="199.453007518797" y="280.28195488721803" width="8.535714285714286" height="8.535714285714286" rx="1.8778571428571431" fill="#4d8cc9" stroke="#0b1015" stroke-width="0.45"/><rect x="181.4830827067669" y="280.28195488721803" width="8.535714285714286" height="8.535714285714286" rx="1.8778571428571431" fill="#4d8cc9" stroke="#0b1015" stroke-width="0.45"/><rect x="163.51315789473682" y="280.28195488721803" width="8.535714285714286" height="8.535714285714286" rx="1.8778571428571431" fill="#4d8cc9" stroke="#0b1015" stroke-width="0.45"/><rect x="145.54323308270673" y="280.28195488721803" width="8.535714285714286" height="8.535714285714286" rx="1.8778571428571431" fill="#4d8cc9" stroke="#0b1015" stroke-width="0.45"/><rect x="451.031954887218" y="262.312030075188" width="8.535714285714286" height="8.535714285714286" rx="1.8778571428571431" fill="#4d8cc9" stroke="#0b1015" stroke-width="0.45"/><rect x="433.0620300751879" y="262.312030075188" width="8.535714285714286" height="8.535714285714286" rx="1.8778571428571431" fill="#4d8cc9" stroke="#0b1015" stroke-width="0.45"/><rect x="415.0921052631578" y="262.312030075188" width="8.535714285714286" height="8.535714285714286" rx="1.8778571428571431" fill="#4d8cc9" stroke="#0b1015" stroke-width="0.45"/><rect x="397.1221804511278" y="262.312030075188" width="8.535714285714286" height="8.535714285714286" rx="1.8778571428571431" fill="#4d8cc9" stroke="#0b1015" stroke-width="0.45"/><rect x="379.1522556390977" y="262.312030075188" width="8.535714285714286" height="8.535714285714286" rx="1.8778571428571431" fill="#4d8cc9" stroke="#0b1015" stroke-width="0.45"/><rect x="361.18233082706763" y="262.312030075188" width="8.535714285714286" height="8.535714285714286" rx="1.8778571428571431" fill="#4d8cc9" stroke="#0b1015" stroke-width="0.45"/><rect x="343.2124060150375" y="262.312030075188" width="8.535714285714286" height="8.535714285714286" rx="1.8778571428571431" fill="#4d8cc9" stroke="#0b1015" stroke-width="0.45"/><rect x="325.24248120300746" y="262.312030075188" width="8.535714285714286" height="8.535714285714286" rx="1.8778571428571431" fill="#4d8cc9" stroke="#0b1015" stroke-width="0.45"/><rect x="307.2725563909774" y="262.312030075188" width="8.535714285714286" height="8.535714285714286" rx="1.8778571428571431" fill="#4d8cc9" stroke="#0b1015" stroke-width="0.45"/><rect x="289.30263157894734" y="262.312030075188" width="8.535714285714286" height="8.535714285714286" rx="1.8778571428571431" fill="#4d8cc9" stroke="#0b1015" stroke-width="0.45"/><rect x="271.3327067669173" y="262.312030075188" width="8.535714285714286" height="8.535714285714286" rx="1.8778571428571431" fill="#4d8cc9" stroke="#0b1015" stroke-width="0.45"/><rect x="253.3627819548872" y="262.312030075188" width="8.535714285714286" height="8.535714285714286" rx="1.8778571428571431" fill="#4d8cc9" stroke="#0b1015" stroke-width="0.45"/><rect x="235.39285714285714" y="262.312030075188" width="8.535714285714286" height="8.535714285714286" rx="1.8778571428571431" fill="#4d8cc9" stroke="#0b1015" stroke-width="0.45"/><rect x="217.42293233082705" y="262.312030075188" width="8.535714285714286" height="8.535714285714286" rx="1.8778571428571431" fill="#4d8cc9" stroke="#0b1015" stroke-width="0.45"/><rect x="199.453007518797" y="262.312030075188" width="8.535714285714286" height="8.535714285714286" rx="1.8778571428571431" fill="#4d8cc9" stroke="#0b1015" stroke-width="0.45"/><rect x="181.4830827067669" y="262.312030075188" width="8.535714285714286" height="8.535714285714286" rx="1.8778571428571431" fill="#4d8cc9" stroke="#0b1015" stroke-width="0.45"/><rect x="163.51315789473682" y="262.312030075188" width="8.535714285714286" height="8.535714285714286" rx="1.8778571428571431" fill="#4d8cc9" stroke="#0b1015" stroke-width="0.45"/><rect x="145.54323308270673" y="262.312030075188" width="8.535714285714286" height="8.535714285714286" rx="1.8778571428571431" fill="#4d8cc9" stroke="#0b1015" stroke-width="0.45"/><rect x="451.031954887218" y="244.3421052631579" width="8.535714285714286" height="8.535714285714286" rx="1.8778571428571431" fill="#4d8cc9" stroke="#0b1015" stroke-width="0.45"/><rect x="433.0620300751879" y="244.3421052631579" width="8.535714285714286" height="8.535714285714286" rx="1.8778571428571431" fill="#4d8cc9" stroke="#0b1015" stroke-width="0.45"/><rect x="415.0921052631578" y="244.3421052631579" width="8.535714285714286" height="8.535714285714286" rx="1.8778571428571431" fill="#4d8cc9" stroke="#0b1015" stroke-width="0.45"/><rect x="397.1221804511278" y="244.3421052631579" width="8.535714285714286" height="8.535714285714286" rx="1.8778571428571431" fill="#4d8cc9" stroke="#0b1015" stroke-width="0.45"/><rect x="379.1522556390977" y="244.3421052631579" width="8.535714285714286" height="8.535714285714286" rx="1.8778571428571431" fill="#4d8cc9" stroke="#0b1015" stroke-width="0.45"/><rect x="361.18233082706763" y="244.3421052631579" width="8.535714285714286" height="8.535714285714286" rx="1.8778571428571431" fill="#4d8cc9" stroke="#0b1015" stroke-width="0.45"/><rect x="343.2124060150375" y="244.3421052631579" width="8.535714285714286" height="8.535714285714286" rx="1.8778571428571431" fill="#4d8cc9" stroke="#0b1015" stroke-width="0.45"/><rect x="325.24248120300746" y="244.3421052631579" width="8.535714285714286" height="8.535714285714286" rx="1.8778571428571431" fill="#4d8cc9" stroke="#0b1015" stroke-width="0.45"/><rect x="307.2725563909774" y="244.3421052631579" width="8.535714285714286" height="8.535714285714286" rx="1.8778571428571431" fill="#4d8cc9" stroke="#0b1015" stroke-width="0.45"/><rect x="289.30263157894734" y="244.3421052631579" width="8.535714285714286" height="8.535714285714286" rx="1.8778571428571431" fill="#4d8cc9" stroke="#0b1015" stroke-width="0.45"/><rect x="271.3327067669173" y="244.3421052631579" width="8.535714285714286" height="8.535714285714286" rx="1.8778571428571431" fill="#4d8cc9" stroke="#0b1015" stroke-width="0.45"/><rect x="253.3627819548872" y="244.3421052631579" width="8.535714285714286" height="8.535714285714286" rx="1.8778571428571431" fill="#4d8cc9" stroke="#0b1015" stroke-width="0.45"/><rect x="235.39285714285714" y="244.3421052631579" width="8.535714285714286" height="8.535714285714286" rx="1.8778571428571431" fill="#4d8cc9" stroke="#0b1015" stroke-width="0.45"/><rect x="217.42293233082705" y="244.3421052631579" width="8.535714285714286" height="8.535714285714286" rx="1.8778571428571431" fill="#4d8cc9" stroke="#0b1015" stroke-width="0.45"/><rect x="199.453007518797" y="244.3421052631579" width="8.535714285714286" height="8.535714285714286" rx="1.8778571428571431" fill="#4d8cc9" stroke="#0b1015" stroke-width="0.45"/><rect x="181.4830827067669" y="244.3421052631579" width="8.535714285714286" height="8.535714285714286" rx="1.8778571428571431" fill="#4d8cc9" stroke="#0b1015" stroke-width="0.45"/><rect x="163.51315789473682" y="244.3421052631579" width="8.535714285714286" height="8.535714285714286" rx="1.8778571428571431" fill="#4d8cc9" stroke="#0b1015" stroke-width="0.45"/><rect x="145.54323308270673" y="244.3421052631579" width="8.535714285714286" height="8.535714285714286" rx="1.8778571428571431" fill="#4d8cc9" stroke="#0b1015" stroke-width="0.45"/><rect x="451.031954887218" y="226.3721804511279" width="8.535714285714286" height="8.535714285714286" rx="1.8778571428571431" fill="#4d8cc9" stroke="#0b1015" stroke-width="0.45"/><rect x="433.0620300751879" y="226.3721804511279" width="8.535714285714286" height="8.535714285714286" rx="1.8778571428571431" fill="#4d8cc9" stroke="#0b1015" stroke-width="0.45"/><rect x="415.0921052631578" y="226.3721804511279" width="8.535714285714286" height="8.535714285714286" rx="1.8778571428571431" fill="#4d8cc9" stroke="#0b1015" stroke-width="0.45"/><rect x="397.1221804511278" y="226.3721804511279" width="8.535714285714286" height="8.535714285714286" rx="1.8778571428571431" fill="#4d8cc9" stroke="#0b1015" stroke-width="0.45"/><rect x="379.1522556390977" y="226.3721804511279" width="8.535714285714286" height="8.535714285714286" rx="1.8778571428571431" fill="#4d8cc9" stroke="#0b1015" stroke-width="0.45"/><rect x="361.18233082706763" y="226.3721804511279" width="8.535714285714286" height="8.535714285714286" rx="1.8778571428571431" fill="#4d8cc9" stroke="#0b1015" stroke-width="0.45"/><rect x="343.2124060150375" y="226.3721804511279" width="8.535714285714286" height="8.535714285714286" rx="1.8778571428571431" fill="#4d8cc9" stroke="#0b1015" stroke-width="0.45"/><rect x="325.24248120300746" y="226.3721804511279" width="8.535714285714286" height="8.535714285714286" rx="1.8778571428571431" fill="#4d8cc9" stroke="#0b1015" stroke-width="0.45"/><rect x="307.2725563909774" y="226.3721804511279" width="8.535714285714286" height="8.535714285714286" rx="1.8778571428571431" fill="#4d8cc9" stroke="#0b1015" stroke-width="0.45"/><rect x="289.30263157894734" y="226.3721804511279" width="8.535714285714286" height="8.535714285714286" rx="1.8778571428571431" fill="#4d8cc9" stroke="#0b1015" stroke-width="0.45"/><rect x="271.3327067669173" y="226.3721804511279" width="8.535714285714286" height="8.535714285714286" rx="1.8778571428571431" fill="#4d8cc9" stroke="#0b1015" stroke-width="0.45"/><rect x="253.3627819548872" y="226.3721804511279" width="8.535714285714286" height="8.535714285714286" rx="1.8778571428571431" fill="#4d8cc9" stroke="#0b1015" stroke-width="0.45"/><rect x="235.39285714285714" y="226.3721804511279" width="8.535714285714286" height="8.535714285714286" rx="1.8778571428571431" fill="#4d8cc9" stroke="#0b1015" stroke-width="0.45"/><rect x="217.42293233082705" y="226.3721804511279" width="8.535714285714286" height="8.535714285714286" rx="1.8778571428571431" fill="#4d8cc9" stroke="#0b1015" stroke-width="0.45"/><rect x="199.453007518797" y="226.3721804511279" width="8.535714285714286" height="8.535714285714286" rx="1.8778571428571431" fill="#4d8cc9" stroke="#0b1015" stroke-width="0.45"/><rect x="181.4830827067669" y="226.3721804511279" width="8.535714285714286" height="8.535714285714286" rx="1.8778571428571431" fill="#4d8cc9" stroke="#0b1015" stroke-width="0.45"/><rect x="163.51315789473682" y="226.3721804511279" width="8.535714285714286" height="8.535714285714286" rx="1.8778571428571431" fill="#4d8cc9" stroke="#0b1015" stroke-width="0.45"/><rect x="145.54323308270673" y="226.3721804511279" width="8.535714285714286" height="8.535714285714286" rx="1.8778571428571431" fill="#4d8cc9" stroke="#0b1015" stroke-width="0.45"/><rect x="451.031954887218" y="208.40225563909777" width="8.535714285714286" height="8.535714285714286" rx="1.8778571428571431" fill="#4d8cc9" stroke="#0b1015" stroke-width="0.45"/><rect x="433.0620300751879" y="208.40225563909777" width="8.535714285714286" height="8.535714285714286" rx="1.8778571428571431" fill="#4d8cc9" stroke="#0b1015" stroke-width="0.45"/><rect x="415.0921052631578" y="208.40225563909777" width="8.535714285714286" height="8.535714285714286" rx="1.8778571428571431" fill="#4d8cc9" stroke="#0b1015" stroke-width="0.45"/><rect x="397.1221804511278" y="208.40225563909777" width="8.535714285714286" height="8.535714285714286" rx="1.8778571428571431" fill="#4d8cc9" stroke="#0b1015" stroke-width="0.45"/><rect x="379.1522556390977" y="208.40225563909777" width="8.535714285714286" height="8.535714285714286" rx="1.8778571428571431" fill="#4d8cc9" stroke="#0b1015" stroke-width="0.45"/><rect x="361.18233082706763" y="208.40225563909777" width="8.535714285714286" height="8.535714285714286" rx="1.8778571428571431" fill="#4d8cc9" stroke="#0b1015" stroke-width="0.45"/><rect x="343.2124060150375" y="208.40225563909777" width="8.535714285714286" height="8.535714285714286" rx="1.8778571428571431" fill="#4d8cc9" stroke="#0b1015" stroke-width="0.45"/><rect x="325.24248120300746" y="208.40225563909777" width="8.535714285714286" height="8.535714285714286" rx="1.8778571428571431" fill="#4d8cc9" stroke="#0b1015" stroke-width="0.45"/><rect x="307.2725563909774" y="208.40225563909777" width="8.535714285714286" height="8.535714285714286" rx="1.8778571428571431" fill="#4d8cc9" stroke="#0b1015" stroke-width="0.45"/><rect x="289.30263157894734" y="208.40225563909777" width="8.535714285714286" height="8.535714285714286" rx="1.8778571428571431" fill="#4d8cc9" stroke="#0b1015" stroke-width="0.45"/><rect x="271.3327067669173" y="208.40225563909777" width="8.535714285714286" height="8.535714285714286" rx="1.8778571428571431" fill="#4d8cc9" stroke="#0b1015" stroke-width="0.45"/><rect x="253.3627819548872" y="208.40225563909777" width="8.535714285714286" height="8.535714285714286" rx="1.8778571428571431" fill="#4d8cc9" stroke="#0b1015" stroke-width="0.45"/><rect x="235.39285714285714" y="208.40225563909777" width="8.535714285714286" height="8.535714285714286" rx="1.8778571428571431" fill="#4d8cc9" stroke="#0b1015" stroke-width="0.45"/><rect x="217.42293233082705" y="208.40225563909777" width="8.535714285714286" height="8.535714285714286" rx="1.8778571428571431" fill="#4d8cc9" stroke="#0b1015" stroke-width="0.45"/><rect x="199.453007518797" y="208.40225563909777" width="8.535714285714286" height="8.535714285714286" rx="1.8778571428571431" fill="#4d8cc9" stroke="#0b1015" stroke-width="0.45"/><rect x="181.4830827067669" y="208.40225563909777" width="8.535714285714286" height="8.535714285714286" rx="1.8778571428571431" fill="#4d8cc9" stroke="#0b1015" stroke-width="0.45"/><rect x="163.51315789473682" y="208.40225563909777" width="8.535714285714286" height="8.535714285714286" rx="1.8778571428571431" fill="#4d8cc9" stroke="#0b1015" stroke-width="0.45"/><rect x="145.54323308270673" y="208.40225563909777" width="8.535714285714286" height="8.535714285714286" rx="1.8778571428571431" fill="#4d8cc9" stroke="#0b1015" stroke-width="0.45"/><rect x="451.031954887218" y="190.43233082706772" width="8.535714285714286" height="8.535714285714286" rx="1.8778571428571431" fill="#4d8cc9" stroke="#0b1015" stroke-width="0.45"/><rect x="433.0620300751879" y="190.43233082706772" width="8.535714285714286" height="8.535714285714286" rx="1.8778571428571431" fill="#4d8cc9" stroke="#0b1015" stroke-width="0.45"/><rect x="415.0921052631578" y="190.43233082706772" width="8.535714285714286" height="8.535714285714286" rx="1.8778571428571431" fill="#4d8cc9" stroke="#0b1015" stroke-width="0.45"/><rect x="397.1221804511278" y="190.43233082706772" width="8.535714285714286" height="8.535714285714286" rx="1.8778571428571431" fill="#4d8cc9" stroke="#0b1015" stroke-width="0.45"/><rect x="379.1522556390977" y="190.43233082706772" width="8.535714285714286" height="8.535714285714286" rx="1.8778571428571431" fill="#4d8cc9" stroke="#0b1015" stroke-width="0.45"/><rect x="361.18233082706763" y="190.43233082706772" width="8.535714285714286" height="8.535714285714286" rx="1.8778571428571431" fill="#4d8cc9" stroke="#0b1015" stroke-width="0.45"/><rect x="343.2124060150375" y="190.43233082706772" width="8.535714285714286" height="8.535714285714286" rx="1.8778571428571431" fill="#4d8cc9" stroke="#0b1015" stroke-width="0.45"/><rect x="325.24248120300746" y="190.43233082706772" width="8.535714285714286" height="8.535714285714286" rx="1.8778571428571431" fill="#4d8cc9" stroke="#0b1015" stroke-width="0.45"/><rect x="307.2725563909774" y="190.43233082706772" width="8.535714285714286" height="8.535714285714286" rx="1.8778571428571431" fill="#4d8cc9" stroke="#0b1015" stroke-width="0.45"/><rect x="289.30263157894734" y="190.43233082706772" width="8.535714285714286" height="8.535714285714286" rx="1.8778571428571431" fill="#4d8cc9" stroke="#0b1015" stroke-width="0.45"/><rect x="271.3327067669173" y="190.43233082706772" width="8.535714285714286" height="8.535714285714286" rx="1.8778571428571431" fill="#4d8cc9" stroke="#0b1015" stroke-width="0.45"/><rect x="253.3627819548872" y="190.43233082706772" width="8.535714285714286" height="8.535714285714286" rx="1.8778571428571431" fill="#4d8cc9" stroke="#0b1015" stroke-width="0.45"/><rect x="235.39285714285714" y="190.43233082706772" width="8.535714285714286" height="8.535714285714286" rx="1.8778571428571431" fill="#4d8cc9" stroke="#0b1015" stroke-width="0.45"/><rect x="217.42293233082705" y="190.43233082706772" width="8.535714285714286" height="8.535714285714286" rx="1.8778571428571431" fill="#4d8cc9" stroke="#0b1015" stroke-width="0.45"/><rect x="199.453007518797" y="190.43233082706772" width="8.535714285714286" height="8.535714285714286" rx="1.8778571428571431" fill="#4d8cc9" stroke="#0b1015" stroke-width="0.45"/><rect x="181.4830827067669" y="190.43233082706772" width="8.535714285714286" height="8.535714285714286" rx="1.8778571428571431" fill="#4d8cc9" stroke="#0b1015" stroke-width="0.45"/><rect x="163.51315789473682" y="190.43233082706772" width="8.535714285714286" height="8.535714285714286" rx="1.8778571428571431" fill="#4d8cc9" stroke="#0b1015" stroke-width="0.45"/><rect x="145.54323308270673" y="190.43233082706772" width="8.535714285714286" height="8.535714285714286" rx="1.8778571428571431" fill="#4d8cc9" stroke="#0b1015" stroke-width="0.45"/></g>
  <text x="778.3092105263158" y="478.546992481203" text-anchor="middle" fill="#ffc977" font-family="ui-monospace, monospace" font-size="14" font-weight="700">U12 · DDR3L x16 · 96-ball</text>
  <text x="302.55545112781977" y="532.4567669172932" text-anchor="middle" fill="#88b9eb" font-family="ui-monospace, monospace" font-size="14" font-weight="700">U5 · AM3358BZCZ100 · 324-ball</text>
  <text x="28" y="38" fill="#eef5fb" font-family="ui-sans-serif, system-ui" font-size="19" font-weight="700">sample008 · 50 real board nets · 12 layers</text>
  <text x="28" y="61" fill="#9fb0bf" font-family="ui-sans-serif, system-ui" font-size="13">BeagleBone Black D1 U12↔U5 map · 10.8 mm gap · unrouted</text>
</svg>