<?xml version="1.0" encoding="UTF-8"?>
<svg xmlns="http://www.w3.org/2000/svg" width="1000" height="650" viewBox="0 0 1000 650">
  <rect width="100%" height="100%" fill="#0d1218"/>
  <rect x="22" y="22" width="928.3404255319149" height="606" rx="8" fill="#13251f" stroke="#4f806c" stroke-width="2"/>
  <g><line x1="191.9378723404255" y1="243.51234042553193" x2="552.9591489361702" y2="179.04425531914893" stroke="#4ecdc4" stroke-width="0.85" opacity="0.46"/><line x1="274.4570212765957" y1="264.1421276595745" x2="511.6995744680851" y2="179.04425531914893" stroke="#4ecdc4" stroke-width="0.85" opacity="0.46"/><line x1="171.30808510638295" y1="264.1421276595745" x2="532.3293617021277" y2="179.04425531914893" stroke="#4ecdc4" stroke-width="0.85" opacity="0.46"/><line x1="295.08680851063826" y1="264.1421276595745" x2="573.5889361702127" y2="179.04425531914893" stroke="#4ecdc4" stroke-width="0.85" opacity="0.46"/><line x1="191.9378723404255" y1="305.4017021276596" x2="511.6995744680851" y2="199.6740425531915" stroke="#4ecdc4" stroke-width="0.85" opacity="0.46"/><line x1="295.08680851063826" y1="305.4017021276596" x2="532.3293617021277" y2="199.6740425531915" stroke="#4ecdc4" stroke-width="0.85" opacity="0.46"/><line x1="171.30808510638295" y1="284.771914893617" x2="552.9591489361702" y2="199.6740425531915" stroke="#4ecdc4" stroke-width="0.85" opacity="0.46"/><line x1="274.4570212765957" y1="305.4017021276596" x2="573.5889361702127" y2="199.6740425531915" stroke="#4ecdc4" stroke-width="0.85" opacity="0.46"/><line x1="274.4570212765957" y1="222.88255319148936" x2="573.5889361702127" y2="220.30382978723406" stroke="#4ecdc4" stroke-width="0.85" opacity="0.46"/><line x1="191.9378723404255" y1="202.25276595744685" x2="552.9591489361702" y2="220.30382978723406" stroke="#4ecdc4" stroke-width="0.85" opacity="0.46"/><line x1="295.08680851063826" y1="202.25276595744685" x2="532.3293617021277" y2="220.30382978723406" stroke="#4ecdc4" stroke-width="0.85" opacity="0.46"/><line x1="171.30808510638295" y1="202.25276595744685" x2="511.6995744680851" y2="220.30382978723406" stroke="#4ecdc4" stroke-width="0.85" opacity="0.46"/><line x1="274.4570212765957" y1="160.99319148936172" x2="511.6995744680851" y2="240.93361702127663" stroke="#4ecdc4" stroke-width="0.85" opacity="0.46"/><line x1="171.30808510638295" y1="160.99319148936172" x2="532.3293617021277" y2="240.93361702127663" stroke="#4ecdc4" stroke-width="0.85" opacity="0.46"/><line x1="295.08680851063826" y1="181.6229787234043" x2="552.9591489361702" y2="240.93361702127663" stroke="#4ecdc4" stroke-width="0.85" opacity="0.46"/><line x1="191.9378723404255" y1="160.99319148936172" x2="573.5889361702127" y2="240.93361702127663" stroke="#4ecdc4" stroke-width="0.85" opacity="0.46"/><line x1="191.9378723404255" y1="264.1421276595745" x2="573.5889361702127" y2="323.4527659574468" stroke="#ff6b6b" stroke-width="0.85" opacity="0.46"/><line x1="191.9378723404255" y1="284.771914893617" x2="552.9591489361702" y2="323.4527659574468" stroke="#ff6b6b" stroke-width="0.85" opacity="0.46"/><line x1="274.4570212765957" y1="243.51234042553193" x2="532.3293617021277" y2="323.4527659574468" stroke="#ffd166" stroke-width="0.85" opacity="0.46"/><line x1="274.4570212765957" y1="202.25276595744685" x2="511.6995744680851" y2="323.4527659574468" stroke="#ff6b6b" stroke-width="0.85" opacity="0.46"/><line x1="274.4570212765957" y1="181.6229787234043" x2="573.5889361702127" y2="302.8229787234043" stroke="#ff6b6b" stroke-width="0.85" opacity="0.46"/><line x1="191.9378723404255" y1="222.88255319148936" x2="552.9591489361702" y2="302.8229787234043" stroke="#ffd166" stroke-width="0.85" opacity="0.46"/><line x1="191.9378723404255" y1="408.55063829787235" x2="532.3293617021277" y2="302.8229787234043" stroke="#5f9df7" stroke-width="0.85" opacity="0.46"/><line x1="274.4570212765957" y1="429.1804255319149" x2="511.6995744680851" y2="302.8229787234043" stroke="#5f9df7" stroke-width="0.85" opacity="0.46"/><line x1="191.9378723404255" y1="429.1804255319149" x2="573.5889361702127" y2="282.1931914893617" stroke="#5f9df7" stroke-width="0.85" opacity="0.46"/><line x1="171.30808510638295" y1="408.55063829787235" x2="552.9591489361702" y2="282.1931914893617" stroke="#5f9df7" stroke-width="0.85" opacity="0.46"/><line x1="295.08680851063826" y1="429.1804255319149" x2="532.3293617021277" y2="282.1931914893617" stroke="#5f9df7" stroke-width="0.85" opacity="0.46"/><line x1="171.30808510638295" y1="429.1804255319149" x2="511.6995744680851" y2="282.1931914893617" stroke="#5f9df7" stroke-width="0.85" opacity="0.46"/><line x1="295.08680851063826" y1="449.81021276595743" x2="573.5889361702127" y2="261.56340425531914" stroke="#5f9df7" stroke-width="0.85" opacity="0.46"/><line x1="171.30808510638295" y1="449.81021276595743" x2="552.9591489361702" y2="261.56340425531914" stroke="#5f9df7" stroke-width="0.85" opacity="0.46"/><line x1="295.08680851063826" y1="470.44000000000005" x2="532.3293617021277" y2="261.56340425531914" stroke="#5f9df7" stroke-width="0.85" opacity="0.46"/><line x1="191.9378723404255" y1="449.81021276595743" x2="511.6995744680851" y2="261.56340425531914" stroke="#5f9df7" stroke-width="0.85" opacity="0.46"/><line x1="274.4570212765957" y1="367.2910638297873" x2="532.3293617021277" y2="344.08255319148935" stroke="#5f9df7" stroke-width="0.85" opacity="0.46"/><line x1="274.4570212765957" y1="449.81021276595743" x2="511.6995744680851" y2="344.08255319148935" stroke="#5f9df7" stroke-width="0.85" opacity="0.46"/><line x1="274.4570212765957" y1="408.55063829787235" x2="573.5889361702127" y2="344.08255319148935" stroke="#5f9df7" stroke-width="0.85" opacity="0.46"/><line x1="191.9378723404255" y1="470.44000000000005" x2="552.9591489361702" y2="344.08255319148935" stroke="#5f9df7" stroke-width="0.85" opacity="0.46"/><line x1="274.4570212765957" y1="470.44000000000005" x2="532.3293617021277" y2="364.7123404255319" stroke="#5f9df7" stroke-width="0.85" opacity="0.46"/><line x1="171.30808510638295" y1="387.9208510638298" x2="573.5889361702127" y2="364.7123404255319" stroke="#9b7ede" stroke-width="0.85" opacity="0.46"/><line x1="295.08680851063826" y1="408.55063829787235" x2="511.6995744680851" y2="364.7123404255319" stroke="#9b7ede" stroke-width="0.85" opacity="0.46"/><line x1="191.9378723404255" y1="387.9208510638298" x2="552.9591489361702" y2="364.7123404255319" stroke="#9b7ede" stroke-width="0.85" opacity="0.46"/><line x1="191.9378723404255" y1="326.03148936170214" x2="511.6995744680851" y2="385.34212765957443" stroke="#f28e2b" stroke-width="0.85" opacity="0.46"/><line x1="191.9378723404255" y1="346.6612765957447" x2="532.3293617021277" y2="385.34212765957443" stroke="#f28e2b" stroke-width="0.85" opacity="0.46"/><line x1="191.9378723404255" y1="367.2910638297873" x2="552.9591489361702" y2="385.34212765957443" stroke="#f28e2b" stroke-width="0.85" opacity="0.46"/><line x1="274.4570212765957" y1="326.03148936170214" x2="573.5889361702127" y2="385.34212765957443" stroke="#e15759" stroke-width="0.85" opacity="0.46"/><line x1="274.4570212765957" y1="346.6612765957447" x2="552.9591489361702" y2="405.97191489361705" stroke="#e15759" stroke-width="0.85" opacity="0.46"/><line x1="315.7165957446809" y1="346.6612765957447" x2="511.6995744680851" y2="405.97191489361705" stroke="#76b7b2" stroke-width="0.85" opacity="0.46"/><line x1="171.30808510638295" y1="367.2910638297873" x2="573.5889361702127" y2="405.97191489361705" stroke="#76b7b2" stroke-width="0.85" opacity="0.46"/><line x1="150.67829787234044" y1="346.6612765957447" x2="532.3293617021277" y2="405.97191489361705" stroke="#76b7b2" stroke-width="0.85" opacity="0.46"/><line x1="171.30808510638295" y1="470.44000000000005" x2="573.5889361702127" y2="488.4910638297872" stroke="#76b7b2" stroke-width="0.85" opacity="0.46"/></g>
  <g><rect x="145.77872340425535" y="156.0936170212766" width="9.799148936170212" height="9.799148936170212" rx="2.155812765957447" fill="#f5a742" stroke="#0b1015" stroke-width="0.45"/><rect x="166.40851063829786" y="156.0936170212766" width="9.799148936170212" height="9.799148936170212" rx="2.155812765957447" fill="#f5a742" stroke="#0b1015" stroke-width="0.45"/><rect x="187.03829787234042" y="156.0936170212766" width="9.799148936170212" height="9.799148936170212" rx="2.155812765957447" fill="#f5a742" stroke="#0b1015" stroke-width="0.45"/><rect x="269.5574468085106" y="156.0936170212766" width="9.799148936170212" height="9.799148936170212" rx="2.155812765957447" fill="#f5a742" stroke="#0b1015" stroke-width="0.45"/><rect x="290.18723404255314" y="156.0936170212766" width="9.799148936170212" height="9.799148936170212" rx="2.155812765957447" fill="#f5a742" stroke="#0b1015" stroke-width="0.45"/><rect x="310.81702127659577" y="156.0936170212766" width="9.799148936170212" height="9.799148936170212" rx="2.155812765957447" fill="#f5a742" stroke="#0b1015" stroke-width="0.45"/><rect x="145.77872340425535" y="176.72340425531917" width="9.799148936170212" height="9.799148936170212" rx="2.155812765957447" fill="#f5a742" stroke="#0b1015" stroke-width="0.45"/><rect x="166.40851063829786" y="176.72340425531917" width="9.799148936170212" height="9.799148936170212" rx="2.155812765957447" fill="#f5a742" stroke="#0b1015" stroke-width="0.45"/><rect x="187.03829787234042" y="176.72340425531917" width="9.799148936170212" height="9.799148936170212" rx="2.155812765957447" fill="#f5a742" stroke="#0b1015" stroke-width="0.45"/><rect x="269.5574468085106" y="176.72340425531917" width="9.799148936170212" height="9.799148936170212" rx="2.155812765957447" fill="#f5a742" stroke="#0b1015" stroke-width="0.45"/><rect x="290.18723404255314" y="176.72340425531917" width="9.799148936170212" height="9.799148936170212" rx="2.155812765957447" fill="#f5a742" stroke="#0b1015" stroke-width="0.45"/><rect x="310.81702127659577" y="176.72340425531917" width="9.799148936170212" height="9.799148936170212" rx="2.155812765957447" fill="#f5a742" stroke="#0b1015" stroke-width="0.45"/><rect x="145.77872340425535" y="197.35319148936173" width="9.799148936170212" height="9.799148936170212" rx="2.155812765957447" fill="#f5a742" stroke="#0b1015" stroke-width="0.45"/><rect x="166.40851063829786" y="197.35319148936173" width="9.799148936170212" height="9.799148936170212" rx="2.155812765957447" fill="#f5a742" stroke="#0b1015" stroke-width="0.45"/><rect x="187.03829787234042" y="197.35319148936173" width="9.799148936170212" height="9.799148936170212" rx="2.155812765957447" fill="#f5a742" stroke="#0b1015" stroke-width="0.45"/><rect x="269.5574468085106" y="197.35319148936173" width="9.799148936170212" height="9.799148936170212" rx="2.155812765957447" fill="#f5a742" stroke="#0b1015" stroke-width="0.45"/><rect x="290.18723404255314" y="197.35319148936173" width="9.799148936170212" height="9.799148936170212" rx="2.155812765957447" fill="#f5a742" stroke="#0b1015" stroke-width="0.45"/><rect x="310.81702127659577" y="197.35319148936173" width="9.799148936170212" height="9.799148936170212" rx="2.155812765957447" fill="#f5a742" stroke="#0b1015" stroke-width="0.45"/><rect x="145.77872340425535" y="217.98297872340424" width="9.799148936170212" height="9.799148936170212" rx="2.155812765957447" fill="#f5a742" stroke="#0b1015" stroke-width="0.45"/><rect x="166.40851063829786" y="217.98297872340424" width="9.799148936170212" height="9.799148936170212" rx="2.155812765957447" fill="#f5a742" stroke="#0b1015" stroke-width="0.45"/><rect x="187.03829787234042" y="217.98297872340424" width="9.799148936170212" height="9.799148936170212" rx="2.155812765957447" fill="#f5a742" stroke="#0b1015" stroke-width="0.45"/><rect x="269.5574468085106" y="217.98297872340424" width="9.799148936170212" height="9.799148936170212" rx="2.155812765957447" fill="#f5a742" stroke="#0b1015" stroke-width="0.45"/><rect x="290.18723404255314" y="217.98297872340424" width="9.799148936170212" height="9.799148936170212" rx="2.155812765957447" fill="#f5a742" stroke="#0b1015" stroke-width="0.45"/><rect x="310.81702127659577" y="217.98297872340424" width="9.799148936170212" height="9.799148936170212" rx="2.155812765957447" fill="#f5a742" stroke="#0b1015" stroke-width="0.45"/><rect x="145.77872340425535" y="238.6127659574468" width="9.799148936170212" height="9.799148936170212" rx="2.155812765957447" fill="#f5a742" stroke="#0b1015" stroke-width="0.45"/><rect x="166.40851063829786" y="238.6127659574468" width="9.799148936170212" height="9.799148936170212" rx="2.155812765957447" fill="#f5a742" stroke="#0b1015" stroke-width="0.45"/><rect x="187.03829787234042" y="238.6127659574468" width="9.799148936170212" height="9.799148936170212" rx="2.155812765957447" fill="#f5a742" stroke="#0b1015" stroke-width="0.45"/><rect x="269.5574468085106" y="238.6127659574468" width="9.799148936170212" height="9.799148936170212" rx="2.155812765957447" fill="#f5a742" stroke="#0b1015" stroke-width="0.45"/><rect x="290.18723404255314" y="238.6127659574468" width="9.799148936170212" height="9.799148936170212" rx="2.155812765957447" fill="#f5a742" stroke="#0b1015" stroke-width="0.45"/><rect x="310.81702127659577" y="238.6127659574468" width="9.799148936170212" height="9.799148936170212" rx="2.155812765957447" fill="#f5a742" stroke="#0b1015" stroke-width="0.45"/><rect x="145.77872340425535" y="259.2425531914894" width="9.799148936170212" height="9.799148936170212" rx="2.155812765957447" fill="#f5a742" stroke="#0b1015" stroke-width="0.45"/><rect x="166.40851063829786" y="259.2425531914894" width="9.799148936170212" height="9.799148936170212" rx="2.155812765957447" fill="#f5a742" stroke="#0b1015" stroke-width="0.45"/><rect x="187.03829787234042" y="259.2425531914894" width="9.799148936170212" height="9.799148936170212" rx="2.155812765957447" fill="#f5a742" stroke="#0b1015" stroke-width="0.45"/><rect x="269.5574468085106" y="259.2425531914894" width="9.799148936170212" height="9.799148936170212" rx="2.155812765957447" fill="#f5a742" stroke="#0b1015" stroke-width="0.45"/><rect x="290.18723404255314" y="259.2425531914894" width="9.799148936170212" height="9.799148936170212" rx="2.155812765957447" fill="#f5a742" stroke="#0b1015" stroke-width="0.45"/><rect x="310.81702127659577" y="259.2425531914894" width="9.799148936170212" height="9.799148936170212" rx="2.155812765957447" fill="#f5a742" stroke="#0b1015" stroke-width="0.45"/><rect x="145.77872340425535" y="279.8723404255319" width="9.799148936170212" height="9.799148936170212" rx="2.155812765957447" fill="#f5a742" stroke="#0b1015" stroke-width="0.45"/><rect x="166.40851063829786" y="279.8723404255319" width="9.799148936170212" height="9.799148936170212" rx="2.155812765957447" fill="#f5a742" stroke="#0b1015" stroke-width="0.45"/><rect x="187.03829787234042" y="279.8723404255319" width="9.799148936170212" height="9.799148936170212" rx="2.155812765957447" fill="#f5a742" stroke="#0b1015" stroke-width="0.45"/><rect x="269.5574468085106" y="279.8723404255319" width="9.799148936170212" height="9.799148936170212" rx="2.155812765957447" fill="#f5a742" stroke="#0b1015" stroke-width="0.45"/><rect x="290.18723404255314" y="279.8723404255319" width="9.799148936170212" height="9.799148936170212" rx="2.155812765957447" fill="#f5a742" stroke="#0b1015" stroke-width="0.45"/><rect x="310.81702127659577" y="279.8723404255319" width="9.799148936170212" height="9.799148936170212" rx="2.155812765957447" fill="#f5a742" stroke="#0b1015" stroke-width="0.45"/><rect x="145.77872340425535" y="300.50212765957446" width="9.799148936170212" height="9.799148936170212" rx="2.155812765957447" fill="#f5a742" stroke="#0b1015" stroke-width="0.45"/><rect x="166.40851063829786" y="300.50212765957446" width="9.799148936170212" height="9.799148936170212" rx="2.155812765957447" fill="#f5a742" stroke="#0b1015" stroke-width="0.45"/><rect x="187.03829787234042" y="300.50212765957446" width="9.799148936170212" height="9.799148936170212" rx="2.155812765957447" fill="#f5a742" stroke="#0b1015" stroke-width="0.45"/><rect x="269.5574468085106" y="300.50212765957446" width="9.799148936170212" height="9.799148936170212" rx="2.155812765957447" fill="#f5a742" stroke="#0b1015" stroke-width="0.45"/><rect x="290.18723404255314" y="300.50212765957446" width="9.799148936170212" height="9.799148936170212" rx="2.155812765957447" fill="#f5a742" stroke="#0b1015" stroke-width="0.45"/><rect x="310.81702127659577" y="300.50212765957446" width="9.799148936170212" height="9.799148936170212" rx="2.155812765957447" fill="#f5a742" stroke="#0b1015" stroke-width="0.45"/><rect x="145.77872340425535" y="321.131914893617" width="9.799148936170212" height="9.799148936170212" rx="2.155812765957447" fill="#f5a742" stroke="#0b1015" stroke-width="0.45"/><rect x="166.40851063829786" y="321.131914893617" width="9.799148936170212" height="9.799148936170212" rx="2.155812765957447" fill="#f5a742" stroke="#0b1015" stroke-width="0.45"/><rect x="187.03829787234042" y="321.131914893617" width="9.799148936170212" height="9.799148936170212" rx="2.155812765957447" fill="#f5a742" stroke="#0b1015" stroke-width="0.45"/><rect x="269.5574468085106" y="321.131914893617" width="9.799148936170212" height="9.799148936170212" rx="2.155812765957447" fill="#f5a742" stroke="#0b1015" stroke-width="0.45"/><rect x="290.18723404255314" y="321.131914893617" width="9.799148936170212" height="9.799148936170212" rx="2.155812765957447" fill="#f5a742" stroke="#0b1015" stroke-width="0.45"/><rect x="310.81702127659577" y="321.131914893617" width="9.799148936170212" height="9.799148936170212" rx="2.155812765957447" fill="#f5a742" stroke="#0b1015" stroke-width="0.45"/><rect x="145.77872340425535" y="341.7617021276596" width="9.799148936170212" height="9.799148936170212" rx="2.155812765957447" fill="#f5a742" stroke="#0b1015" stroke-width="0.45"/><rect x="166.40851063829786" y="341.7617021276596" width="9.799148936170212" height="9.799148936170212" rx="2.155812765957447" fill="#f5a742" stroke="#0b1015" stroke-width="0.45"/><rect x="187.03829787234042" y="341.7617021276596" width="9.799148936170212" height="9.799148936170212" rx="2.155812765957447" fill="#f5a742" stroke="#0b1015" stroke-width="0.45"/><rect x="269.5574468085106" y="341.7617021276596" width="9.799148936170212" height="9.799148936170212" rx="2.155812765957447" fill="#f5a742" stroke="#0b1015" stroke-width="0.45"/><rect x="290.18723404255314" y="341.7617021276596" width="9.799148936170212" height="9.799148936170212" rx="2.155812765957447" fill="#f5a742" stroke="#0b1015" stroke-width="0.45"/><rect x="310.81702127659577" y="341.7617021276596" width="9.799148936170212" height="9.799148936170212" rx="2.155812765957447" fill="#f5a742" stroke="#0b1015" stroke-width="0.45"/><rect x="145.77872340425535" y="362.39148936170216" width="9.799148936170212" height="9.799148936170212" rx="2.155812765957447" fill="#f5a742" stroke="#0b1015" stroke-width="0.45"/><rect x="166.40851063829786" y="362.39148936170216" width="9.799148936170212" height="9.799148936170212" rx="2.155812765957447" fill="#f5a742" stroke="#0b1015" stroke-width="0.45"/><rect x="187.03829787234042" y="362.39148936170216" width="9.799148936170212" height="9.799148936170212" rx="2.155812765957447" fill="#f5a742" stroke="#0b1015" stroke-width="0.45"/><rect x="269.5574468085106" y="362.39148936170216" width="9.799148936170212" height="9.799148936170212" rx="2.155812765957447" fill="#f5a742" stroke="#0b1015" stroke-width="0.45"/><rect x="290.18723404255314" y="362.39148936170216" width="9.799148936170212" height="9.799148936170212" rx="2.155812765957447" fill="#f5a742" stroke="#0b1015" stroke-width="0.45"/><rect x="310.81702127659577" y="362.39148936170216" width="9.799148936170212" height="9.799148936170212" rx="2.155812765957447" fill="#f5a742" stroke="#0b1015" stroke-width="0.45"/><rect x="145.77872340425535" y="383.02127659574467" width="9.799148936170212" height="9.799148936170212" rx="2.155812765957447" fill="#f5a742" stroke="#0b1015" stroke-width="0.45"/><rect x="166.40851063829786" y="383.02127659574467" width="9.799148936170212" height="9.799148936170212" rx="2.155812765957447" fill="#f5a742" stroke="#0b1015" stroke-width="0.45"/><rect x="187.03829787234042" y="383.02127659574467" width="9.799148936170212" height="9.799148936170212" rx="2.155812765957447" fill="#f5a742" stroke="#0b1015" stroke-width="0.45"/><rect x="269.5574468085106" y="383.02127659574467" width="9.799148936170212" height="9.799148936170212" rx="2.155812765957447" fill="#f5a742" stroke="#0b1015" stroke-width="0.45"/><rect x="290.18723404255314" y="383.02127659574467" width="9.799148936170212" height="9.799148936170212" rx="2.155812765957447" fill="#f5a742" stroke="#0b1015" stroke-width="0.45"/><rect x="310.81702127659577" y="383.02127659574467" width="9.799148936170212" height="9.799148936170212" rx="2.155812765957447" fill="#f5a742" stroke="#0b1015" stroke-width="0.45"/><rect x="145.77872340425535" y="403.65106382978723" width="9.799148936170212" height="9.799148936170212" rx="2.155812765957447" fill="#f5a742" stroke="#0b1015" stroke-width="0.45"/><rect x="166.40851063829786" y="403.65106382978723" width="9.799148936170212" height="9.799148936170212" rx="2.155812765957447" fill="#f5a742" stroke="#0b1015" stroke-width="0.45"/><rect x="187.03829787234042" y="403.65106382978723" width="9.799148936170212" height="9.799148936170212" rx="2.155812765957447" fill="#f5a742" stroke="#0b1015" stroke-width="0.45"/><rect x="269.5574468085106" y="403.65106382978723" width="9.799148936170212" height="9.799148936170212" rx="2.155812765957447" fill="#f5a742" stroke="#0b1015" stroke-width="0.45"/><rect x="290.18723404255314" y="403.65106382978723" width="9.799148936170212" height="9.799148936170212" rx="2.155812765957447" fill="#f5a742" stroke="#0b1015" stroke-width="0.45"/><rect x="310.81702127659577" y="403.65106382978723" width="9.799148936170212" height="9.799148936170212" rx="2.155812765957447" fill="#f5a742" stroke="#0b1015" stroke-width="0.45"/><rect x="145.77872340425535" y="424.2808510638298" width="9.799148936170212" height="9.799148936170212" rx="2.155812765957447" fill="#f5a742" stroke="#0b1015" stroke-width="0.45"/><rect x="166.40851063829786" y="424.2808510638298" width="9.799148936170212" height="9.799148936170212" rx="2.155812765957447" fill="#f5a742" stroke="#0b1015" stroke-width="0.45"/><rect x="187.03829787234042" y="424.2808510638298" width="9.799148936170212" height="9.799148936170212" rx="2.155812765957447" fill="#f5a742" stroke="#0b1015" stroke-width="0.45"/><rect x="269.5574468085106" y="424.2808510638298" width="9.799148936170212" height="9.799148936170212" rx="2.155812765957447" fill="#f5a742" stroke="#0b1015" stroke-width="0.45"/><rect x="290.18723404255314" y="424.2808510638298" width="9.799148936170212" height="9.799148936170212" rx="2.155812765957447" fill="#f5a742" stroke="#0b1015" stroke-width="0.45"/><rect x="310.81702127659577" y="424.2808510638298" width="9.799148936170212" height="9.799148936170212" rx="2.155812765957447" fill="#f5a742" stroke="#0b1015" stroke-width="0.45"/><rect x="145.77872340425535" y="444.9106382978723" width="9.799148936170212" height="9.799148936170212" rx="2.155812765957447" fill="#f5a742" stroke="#0b1015" stroke-width="0.45"/><rect x="166.40851063829786" y="444.9106382978723" width="9.799148936170212" height="9.799148936170212" rx="2.155812765957447" fill="#f5a742" stroke="#0b1015" stroke-width="0.45"/><rect x="187.03829787234042" y="444.9106382978723" width="9.799148936170212" height="9.799148936170212" rx="2.155812765957447" fill="#f5a742" stroke="#0b1015" stroke-width="0.45"/><rect x="269.5574468085106" y="444.9106382978723" width="9.799148936170212" height="9.799148936170212" rx="2.155812765957447" fill="#f5a742" stroke="#0b1015" stroke-width="0.45"/><rect x="290.18723404255314" y="444.9106382978723" width="9.799148936170212" height="9.799148936170212" rx="2.155812765957447" fill="#f5a742" stroke="#0b1015" stroke-width="0.45"/><rect x="310.81702127659577" y="444.9106382978723" width="9.799148936170212" height="9.799148936170212" rx="2.155812765957447" fill="#f5a742" stroke="#0b1015" stroke-width="0.45"/><rect x="145.77872340425535" y="465.54042553191493" width="9.799148936170212" height="9.799148936170212" rx="2.155812765957447" fill="#f5a742" stroke="#0b1015" stroke-width="0.45"/><rect x="166.40851063829786" y="465.54042553191493" width="9.799148936170212" height="9.799148936170212" rx="2.155812765957447" fill="#f5a742" stroke="#0b1015" stroke-width="0.45"/><rect x="187.03829787234042" y="465.54042553191493" width="9.799148936170212" height="9.799148936170212" rx="2.155812765957447" fill="#f5a742" stroke="#0b1015" stroke-width="0.45"/><rect x="269.5574468085106" y="465.54042553191493" width="9.799148936170212" height="9.799148936170212" rx="2.155812765957447" fill="#f5a742" stroke="#0b1015" stroke-width="0.45"/><rect x="290.18723404255314" y="465.54042553191493" width="9.799148936170212" height="9.799148936170212" rx="2.155812765957447" fill="#f5a742" stroke="#0b1015" stroke-width="0.45"/><rect x="310.81702127659577" y="465.54042553191493" width="9.799148936170212" height="9.799148936170212" rx="2.155812765957447" fill="#f5a742" stroke="#0b1015" stroke-width="0.45"/><rect x="506.2842553191489" y="173.62893617021277" width="10.83063829787234" height="10.83063829787234" rx="2.382740425531915" fill="#4d8cc9" stroke="#0b1015" stroke-width="0.45"/><rect x="526.9140425531915" y="173.62893617021277" width="10.83063829787234" height="10.83063829787234" rx="2.382740425531915" fill="#4d8cc9" stroke="#0b1015" stroke-width="0.45"/><rect x="547.543829787234" y="173.62893617021277" width="10.83063829787234" height="10.83063829787234" rx="2.382740425531915" fill="#4d8cc9" stroke="#0b1015" stroke-width="0.45"/><rect x="568.1736170212765" y="173.62893617021277" width="10.83063829787234" height="10.83063829787234" rx="2.382740425531915" fill="#4d8cc9" stroke="#0b1015" stroke-width="0.45"/><rect x="588.803404255319" y="173.62893617021277" width="10.83063829787234" height="10.83063829787234" rx="2.382740425531915" fill="#4d8cc9" stroke="#0b1015" stroke-width="0.45"/><rect x="609.4331914893617" y="173.62893617021277" width="10.83063829787234" height="10.83063829787234" rx="2.382740425531915" fill="#4d8cc9" stroke="#0b1015" stroke-width="0.45"/><rect x="630.0629787234042" y="173.62893617021277" width="10.83063829787234" height="10.83063829787234" rx="2.382740425531915" fill="#4d8cc9" stroke="#0b1015" stroke-width="0.45"/><rect x="650.6927659574468" y="173.62893617021277" width="10.83063829787234" height="10.83063829787234" rx="2.382740425531915" fill="#4d8cc9" stroke="#0b1015" stroke-width="0.45"/><rect x="671.3225531914893" y="173.62893617021277" width="10.83063829787234" height="10.83063829787234" rx="2.382740425531915" fill="#4d8cc9" stroke="#0b1015" stroke-width="0.45"/><rect x="691.9523404255318" y="173.62893617021277" width="10.83063829787234" height="10.83063829787234" rx="2.382740425531915" fill="#4d8cc9" stroke="#0b1015" stroke-width="0.45"/><rect x="712.5821276595744" y="173.62893617021277" width="10.83063829787234" height="10.83063829787234" rx="2.382740425531915" fill="#4d8cc9" stroke="#0b1015" stroke-width="0.45"/><rect x="733.211914893617" y="173.62893617021277" width="10.83063829787234" height="10.83063829787234" rx="2.382740425531915" fill="#4d8cc9" stroke="#0b1015" stroke-width="0.45"/><rect x="753.8417021276596" y="173.62893617021277" width="10.83063829787234" height="10.83063829787234" rx="2.382740425531915" fill="#4d8cc9" stroke="#0b1015" stroke-width="0.45"/><rect x="774.4714893617021" y="173.62893617021277" width="10.83063829787234" height="10.83063829787234" rx="2.382740425531915" fill="#4d8cc9" stroke="#0b1015" stroke-width="0.45"/><rect x="795.1012765957446" y="173.62893617021277" width="10.83063829787234" height="10.83063829787234" rx="2.382740425531915" fill="#4d8cc9" stroke="#0b1015" stroke-width="0.45"/><rect x="815.7310638297872" y="173.62893617021277" width="10.83063829787234" height="10.83063829787234" rx="2.382740425531915" fill="#4d8cc9" stroke="#0b1015" stroke-width="0.45"/><rect x="506.2842553191489" y="194.25872340425533" width="10.83063829787234" height="10.83063829787234" rx="2.382740425531915" fill="#4d8cc9" stroke="#0b1015" stroke-width="0.45"/><rect x="526.9140425531915" y="194.25872340425533" width="10.83063829787234" height="10.83063829787234" rx="2.382740425531915" fill="#4d8cc9" stroke="#0b1015" stroke-width="0.45"/><rect x="547.543829787234" y="194.25872340425533" width="10.83063829787234" height="10.83063829787234" rx="2.382740425531915" fill="#4d8cc9" stroke="#0b1015" stroke-width="0.45"/><rect x="568.1736170212765" y="194.25872340425533" width="10.83063829787234" height="10.83063829787234" rx="2.382740425531915" fill="#4d8cc9" stroke="#0b1015" stroke-width="0.45"/><rect x="588.803404255319" y="194.25872340425533" width="10.83063829787234" height="10.83063829787234" rx="2.382740425531915" fill="#4d8cc9" stroke="#0b1015" stroke-width="0.45"/><rect x="609.4331914893617" y="194.25872340425533" width="10.83063829787234" height="10.83063829787234" rx="2.382740425531915" fill="#4d8cc9" stroke="#0b1015" stroke-width="0.45"/><rect x="630.0629787234042" y="194.25872340425533" width="10.83063829787234" height="10.83063829787234" rx="2.382740425531915" fill="#4d8cc9" stroke="#0b1015" stroke-width="0.45"/><rect x="650.6927659574468" y="194.25872340425533" width="10.83063829787234" height="10.83063829787234" rx="2.382740425531915" fill="#4d8cc9" stroke="#0b1015" stroke-width="0.45"/><rect x="671.3225531914893" y="194.25872340425533" width="10.83063829787234" height="10.83063829787234" rx="2.382740425531915" fill="#4d8cc9" stroke="#0b1015" stroke-width="0.45"/><rect x="691.9523404255318" y="194.25872340425533" width="10.83063829787234" height="10.83063829787234" rx="2.382740425531915" fill="#4d8cc9" stroke="#0b1015" stroke-width="0.45"/><rect x="712.5821276595744" y="194.25872340425533" width="10.83063829787234" height="10.83063829787234" rx="2.382740425531915" fill="#4d8cc9" stroke="#0b1015" stroke-width="0.45"/><rect x="733.211914893617" y="194.25872340425533" width="10.83063829787234" height="10.83063829787234" rx="2.382740425531915" fill="#4d8cc9" stroke="#0b1015" stroke-width="0.45"/><rect x="753.8417021276596" y="194.25872340425533" width="10.83063829787234" height="10.83063829787234" rx="2.382740425531915" fill="#4d8cc9" stroke="#0b1015" stroke-width="0.45"/><rect x="774.4714893617021" y="194.25872340425533" width="10.83063829787234" height="10.83063829787234" rx="2.382740425531915" fill="#4d8cc9" stroke="#0b1015" stroke-width="0.45"/><rect x="795.1012765957446" y="194.25872340425533" width="10.83063829787234" height="10.83063829787234" rx="2.382740425531915" fill="#4d8cc9" stroke="#0b1015" stroke-width="0.45"/><rect x="815.7310638297872" y="194.25872340425533" width="10.83063829787234" height="10.83063829787234" rx="2.382740425531915" fill="#4d8cc9" stroke="#0b1015" stroke-width="0.45"/><rect x="506.2842553191489" y="214.8885106382979" width="10.83063829787234" height="10.83063829787234" rx="2.382740425531915" fill="#4d8cc9" stroke="#0b1015" stroke-width="0.45"/><rect x="526.9140425531915" y="214.8885106382979" width="10.83063829787234" height="10.83063829787234" rx="2.382740425531915" fill="#4d8cc9" stroke="#0b1015" stroke-width="0.45"/><rect x="547.543829787234" y="214.8885106382979" width="10.83063829787234" height="10.83063829787234" rx="2.382740425531915" fill="#4d8cc9" stroke="#0b1015" stroke-width="0.45"/><rect x="568.1736170212765" y="214.8885106382979" width="10.83063829787234" height="10.83063829787234" rx="2.382740425531915" fill="#4d8cc9" stroke="#0b1015" stroke-width="0.45"/><rect x="588.803404255319" y="214.8885106382979" width="10.83063829787234" height="10.83063829787234" rx="2.382740425531915" fill="#4d8cc9" stroke="#0b1015" stroke-width="0.45"/><rect x="609.4331914893617" y="214.8885106382979" width="10.83063829787234" height="10.83063829787234" rx="2.382740425531915" fill="#4d8cc9" stroke="#0b1015" stroke-width="0.45"/><rect x="630.0629787234042" y="214.8885106382979" width="10.83063829787234" height="10.83063829787234" rx="2.382740425531915" fill="#4d8cc9" stroke="#0b1015" stroke-width="0.45"/><rect x="650.6927659574468" y="214.8885106382979" width="10.83063829787234" height="10.83063829787234" rx="2.382740425531915" fill="#4d8cc9" stroke="#0b1015" stroke-width="0.45"/><rect x="671.3225531914893" y="214.8885106382979" width="10.83063829787234" height="10.83063829787234" rx="2.382740425531915" fill="#4d8cc9" stroke="#0b1015" stroke-width="0.45"/><rect x="691.9523404255318" y="214.8885106382979" width="10.83063829787234" height="10.83063829787234" rx="2.382740425531915" fill="#4d8cc9" stroke="#0b1015" stroke-width="0.45"/><rect x="712.5821276595744" y="214.8885106382979" width="10.83063829787234" height="10.83063829787234" rx="2.382740425531915" fill="#4d8cc9" stroke="#0b1015" stroke-width="0.45"/><rect x="733.211914893617" y="214.8885106382979" width="10.83063829787234" height="10.83063829787234" rx="2.382740425531915" fill="#4d8cc9" stroke="#0b1015" stroke-width="0.45"/><rect x="753.8417021276596" y="214.8885106382979" width="10.83063829787234" height="10.83063829787234" rx="2.382740425531915" fill="#4d8cc9" stroke="#0b1015" stroke-width="0.45"/><rect x="774.4714893617021" y="214.8885106382979" width="10.83063829787234" height="10.83063829787234" rx="2.382740425531915" fill="#4d8cc9" stroke="#0b1015" stroke-width="0.45"/><rect x="795.1012765957446" y="214.8885106382979" width="10.83063829787234" height="10.83063829787234" rx="2.382740425531915" fill="#4d8cc9" stroke="#0b1015" stroke-width="0.45"/><rect x="815.7310638297872" y="214.8885106382979" width="10.83063829787234" height="10.83063829787234" rx="2.382740425531915" fill="#4d8cc9" stroke="#0b1015" stroke-width="0.45"/><rect x="506.2842553191489" y="235.51829787234047" width="10.83063829787234" height="10.83063829787234" rx="2.382740425531915" fill="#4d8cc9" stroke="#0b1015" stroke-width="0.45"/><rect x="526.9140425531915" y="235.51829787234047" width="10.83063829787234" height="10.83063829787234" rx="2.382740425531915" fill="#4d8cc9" stroke="#0b1015" stroke-width="0.45"/><rect x="547.543829787234" y="235.51829787234047" width="10.83063829787234" height="10.83063829787234" rx="2.382740425531915" fill="#4d8cc9" stroke="#0b1015" stroke-width="0.45"/><rect x="568.1736170212765" y="235.51829787234047" width="10.83063829787234" height="10.83063829787234" rx="2.382740425531915" fill="#4d8cc9" stroke="#0b1015" stroke-width="0.45"/><rect x="588.803404255319" y="235.51829787234047" width="10.83063829787234" height="10.83063829787234" rx="2.382740425531915" fill="#4d8cc9" stroke="#0b1015" stroke-width="0.45"/><rect x="609.4331914893617" y="235.51829787234047" width="10.83063829787234" height="10.83063829787234" rx="2.382740425531915" fill="#4d8cc9" stroke="#0b1015" stroke-width="0.45"/><rect x="630.0629787234042" y="235.51829787234047" width="10.83063829787234" height="10.83063829787234" rx="2.382740425531915" fill="#4d8cc9" stroke="#0b1015" stroke-width="0.45"/><rect x="650.6927659574468" y="235.51829787234047" width="10.83063829787234" height="10.83063829787234" rx="2.382740425531915" fill="#4d8cc9" stroke="#0b1015" stroke-width="0.45"/><rect x="671.3225531914893" y="235.51829787234047" width="10.83063829787234" height="10.83063829787234" rx="2.382740425531915" fill="#4d8cc9" stroke="#0b1015" stroke-width="0.45"/><rect x="691.9523404255318" y="235.51829787234047" width="10.83063829787234" height="10.83063829787234" rx="2.382740425531915" fill="#4d8cc9" stroke="#0b1015" stroke-width="0.45"/><rect x="712.5821276595744" y="235.51829787234047" width="10.83063829787234" height="10.83063829787234" rx="2.382740425531915" fill="#4d8cc9" stroke="#0b1015" stroke-width="0.45"/><rect x="733.211914893617" y="235.51829787234047" width="10.83063829787234" height="10.83063829787234" rx="2.382740425531915" fill="#4d8cc9" stroke="#0b1015" stroke-width="0.45"/><rect x="753.8417021276596" y="235.51829787234047" width="10.83063829787234" height="10.83063829787234" rx="2.382740425531915" fill="#4d8cc9" stroke="#0b1015" stroke-width="0.45"/><rect x="774.4714893617021" y="235.51829787234047" width="10.83063829787234" height="10.83063829787234" rx="2.382740425531915" fill="#4d8cc9" stroke="#0b1015" stroke-width="0.45"/><rect x="795.1012765957446" y="235.51829787234047" width="10.83063829787234" height="10.83063829787234" rx="2.382740425531915" fill="#4d8cc9" stroke="#0b1015" stroke-width="0.45"/><rect x="815.7310638297872" y="235.51829787234047" width="10.83063829787234" height="10.83063829787234" rx="2.382740425531915" fill="#4d8cc9" stroke="#0b1015" stroke-width="0.45"/><rect x="506.2842553191489" y="256.14808510638295" width="10.83063829787234" height="10.83063829787234" rx="2.382740425531915" fill="#4d8cc9" stroke="#0b1015" stroke-width="0.45"/><rect x="526.9140425531915" y="256.14808510638295" width="10.83063829787234" height="10.83063829787234" rx="2.382740425531915" fill="#4d8cc9" stroke="#0b1015" stroke-width="0.45"/><rect x="547.543829787234" y="256.14808510638295" width="10.83063829787234" height="10.83063829787234" rx="2.382740425531915" fill="#4d8cc9" stroke="#0b1015" stroke-width="0.45"/><rect x="568.1736170212765" y="256.14808510638295" width="10.83063829787234" height="10.83063829787234" rx="2.382740425531915" fill="#4d8cc9" stroke="#0b1015" stroke-width="0.45"/><rect x="588.803404255319" y="256.14808510638295" width="10.83063829787234" height="10.83063829787234" rx="2.382740425531915" fill="#4d8cc9" stroke="#0b1015" stroke-width="0.45"/><rect x="609.4331914893617" y="256.14808510638295" width="10.83063829787234" height="10.83063829787234" rx="2.382740425531915" fill="#4d8cc9" stroke="#0b1015" stroke-width="0.45"/><rect x="630.0629787234042" y="256.14808510638295" width="10.83063829787234" height="10.83063829787234" rx="2.382740425531915" fill="#4d8cc9" stroke="#0b1015" stroke-width="0.45"/><rect x="650.6927659574468" y="256.14808510638295" width="10.83063829787234" height="10.83063829787234" rx="2.382740425531915" fill="#4d8cc9" stroke="#0b1015" stroke-width="0.45"/><rect x="671.3225531914893" y="256.14808510638295" width="10.83063829787234" height="10.83063829787234" rx="2.382740425531915" fill="#4d8cc9" stroke="#0b1015" stroke-width="0.45"/><rect x="691.9523404255318" y="256.14808510638295" width="10.83063829787234" height="10.83063829787234" rx="2.382740425531915" fill="#4d8cc9" stroke="#0b1015" stroke-width="0.45"/><rect x="712.5821276595744" y="256.14808510638295" width="10.83063829787234" height="10.83063829787234" rx="2.382740425531915" fill="#4d8cc9" stroke="#0b1015" stroke-width="0.45"/><rect x="733.211914893617" y="256.14808510638295" width="10.83063829787234" height="10.83063829787234" rx="2.382740425531915" fill="#4d8cc9" stroke="#0b1015" stroke-width="0.45"/><rect x="753.8417021276596" y="256.14808510638295" width="10.83063829787234" height="10.83063829787234" rx="2.382740425531915" fill="#4d8cc9" stroke="#0b1015" stroke-width="0.45"/><rect x="774.4714893617021" y="256.14808510638295" width="10.83063829787234" height="10.83063829787234" rx="2.382740425531915" fill="#4d8cc9" stroke="#0b1015" stroke-width="0.45"/><rect x="795.1012765957446" y="256.14808510638295" width="10.83063829787234" height="10.83063829787234" rx="2.382740425531915" fill="#4d8cc9" stroke="#0b1015" stroke-width="0.45"/><rect x="815.7310638297872" y="256.14808510638295" width="10.83063829787234" height="10.83063829787234" rx="2.382740425531915" fill="#4d8cc9" stroke="#0b1015" stroke-width="0.45"/><rect x="506.2842553191489" y="276.7778723404255" width="10.83063829787234" height="10.83063829787234" rx="2.382740425531915" fill="#4d8cc9" stroke="#0b1015" stroke-width="0.45"/><rect x="526.9140425531915" y="276.7778723404255" width="10.83063829787234" height="10.83063829787234" rx="2.382740425531915" fill="#4d8cc9" stroke="#0b1015" stroke-width="0.45"/><rect x="547.543829787234" y="276.7778723404255" width="10.83063829787234" height="10.83063829787234" rx="2.382740425531915" fill="#4d8cc9" stroke="#0b1015" stroke-width="0.45"/><rect x="568.1736170212765" y="276.7778723404255" width="10.83063829787234" height="10.83063829787234" rx="2.382740425531915" fill="#4d8cc9" stroke="#0b1015" stroke-width="0.45"/><rect x="588.803404255319" y="276.7778723404255" width="10.83063829787234" height="10.83063829787234" rx="2.382740425531915" fill="#4d8cc9" stroke="#0b1015" stroke-width="0.45"/><rect x="609.4331914893617" y="276.7778723404255" width="10.83063829787234" height="10.83063829787234" rx="2.382740425531915" fill="#4d8cc9" stroke="#0b1015" stroke-width="0.45"/><rect x="630.0629787234042" y="276.7778723404255" width="10.83063829787234" height="10.83063829787234" rx="2.382740425531915" fill="#4d8cc9" stroke="#0b1015" stroke-width="0.45"/><rect x="650.6927659574468" y="276.7778723404255" width="10.83063829787234" height="10.83063829787234" rx="2.382740425531915" fill="#4d8cc9" stroke="#0b1015" stroke-width="0.45"/><rect x="671.3225531914893" y="276.7778723404255" width="10.83063829787234" height="10.83063829787234" rx="2.382740425531915" fill="#4d8cc9" stroke="#0b1015" stroke-width="0.45"/><rect x="691.9523404255318" y="276.7778723404255" width="10.83063829787234" height="10.83063829787234" rx="2.382740425531915" fill="#4d8cc9" stroke="#0b1015" stroke-width="0.45"/><rect x="712.5821276595744" y="276.7778723404255" width="10.83063829787234" height="10.83063829787234" rx="2.382740425531915" fill="#4d8cc9" stroke="#0b1015" stroke-width="0.45"/><rect x="733.211914893617" y="276.7778723404255" width="10.83063829787234" height="10.83063829787234" rx="2.382740425531915" fill="#4d8cc9" stroke="#0b1015" stroke-width="0.45"/><rect x="753.8417021276596" y="276.7778723404255" width="10.83063829787234" height="10.83063829787234" rx="2.382740425531915" fill="#4d8cc9" stroke="#0b1015" stroke-width="0.45"/><rect x="774.4714893617021" y="276.7778723404255" width="10.83063829787234" height="10.83063829787234" rx="2.382740425531915" fill="#4d8cc9" stroke="#0b1015" stroke-width="0.45"/><rect x="795.1012765957446" y="276.7778723404255" width="10.83063829787234" height="10.83063829787234" rx="2.382740425531915" fill="#4d8cc9" stroke="#0b1015" stroke-width="0.45"/><rect x="815.7310638297872" y="276.7778723404255" width="10.83063829787234" height="10.83063829787234" rx="2.382740425531915" fill="#4d8cc9" stroke="#0b1015" stroke-width="0.45"/><rect x="506.2842553191489" y="297.4076595744681" width="10.83063829787234" height="10.83063829787234" rx="2.382740425531915" fill="#4d8cc9" stroke="#0b1015" stroke-width="0.45"/><rect x="526.9140425531915" y="297.4076595744681" width="10.83063829787234" height="10.83063829787234" rx="2.382740425531915" fill="#4d8cc9" stroke="#0b1015" stroke-width="0.45"/><rect x="547.543829787234" y="297.4076595744681" width="10.83063829787234" height="10.83063829787234" rx="2.382740425531915" fill="#4d8cc9" stroke="#0b1015" stroke-width="0.45"/><rect x="568.1736170212765" y="297.4076595744681" width="10.83063829787234" height="10.83063829787234" rx="2.382740425531915" fill="#4d8cc9" stroke="#0b1015" stroke-width="0.45"/><rect x="588.803404255319" y="297.4076595744681" width="10.83063829787234" height="10.83063829787234" rx="2.382740425531915" fill="#4d8cc9" stroke="#0b1015" stroke-width="0.45"/><rect x="609.4331914893617" y="297.4076595744681" width="10.83063829787234" height="10.83063829787234" rx="2.382740425531915" fill="#4d8cc9" stroke="#0b1015" stroke-width="0.45"/><rect x="630.0629787234042" y="297.4076595744681" width="10.83063829787234" height="10.83063829787234" rx="2.382740425531915" fill="#4d8cc9" stroke="#0b1015" stroke-width="0.45"/><rect x="650.6927659574468" y="297.4076595744681" width="10.83063829787234" height="10.83063829787234" rx="2.382740425531915" fill="#4d8cc9" stroke="#0b1015" stroke-width="0.45"/><rect x="671.3225531914893" y="297.4076595744681" width="10.83063829787234" height="10.83063829787234" rx="2.382740425531915" fill="#4d8cc9" stroke="#0b1015" stroke-width="0.45"/><rect x="691.9523404255318" y="297.4076595744681" width="10.83063829787234" height="10.83063829787234" rx="2.382740425531915" fill="#4d8cc9" stroke="#0b1015" stroke-width="0.45"/><rect x="712.5821276595744" y="297.4076595744681" width="10.83063829787234" height="10.83063829787234" rx="2.382740425531915" fill="#4d8cc9" stroke="#0b1015" stroke-width="0.45"/><rect x="733.211914893617" y="297.4076595744681" width="10.83063829787234" height="10.83063829787234" rx="2.382740425531915" fill="#4d8cc9" stroke="#0b1015" stroke-width="0.45"/><rect x="753.8417021276596" y="297.4076595744681" width="10.83063829787234" height="10.83063829787234" rx="2.382740425531915" fill="#4d8cc9" stroke="#0b1015" stroke-width="0.45"/><rect x="774.4714893617021" y="297.4076595744681" width="10.83063829787234" height="10.83063829787234" rx="2.382740425531915" fill="#4d8cc9" stroke="#0b1015" stroke-width="0.45"/><rect x="795.1012765957446" y="297.4076595744681" width="10.83063829787234" height="10.83063829787234" rx="2.382740425531915" fill="#4d8cc9" stroke="#0b1015" stroke-width="0.45"/><rect x="815.7310638297872" y="297.4076595744681" width="10.83063829787234" height="10.83063829787234" rx="2.382740425531915" fill="#4d8cc9" stroke="#0b1015" stroke-width="0.45"/><rect x="506.2842553191489" y="318.0374468085106" width="10.83063829787234" height="10.83063829787234" rx="2.382740425531915" fill="#4d8cc9" stroke="#0b1015" stroke-width="0.45"/><rect x="526.9140425531915" y="318.0374468085106" width="10.83063829787234" height="10.83063829787234" rx="2.382740425531915" fill="#4d8cc9" stroke="#0b1015" stroke-width="0.45"/><rect x="547.543829787234" y="318.0374468085106" width="10.83063829787234" height="10.83063829787234" rx="2.382740425531915" fill="#4d8cc9" stroke="#0b1015" stroke-width="0.45"/><rect x="568.1736170212765" y="318.0374468085106" width="10.83063829787234" height="10.83063829787234" rx="2.382740425531915" fill="#4d8cc9" stroke="#0b1015" stroke-width="0.45"/><rect x="588.803404255319" y="318.0374468085106" width="10.83063829787234" height="10.83063829787234" rx="2.382740425531915" fill="#4d8cc9" stroke="#0b1015" stroke-width="0.45"/><rect x="609.4331914893617" y="318.0374468085106" width="10.83063829787234" height="10.83063829787234" rx="2.382740425531915" fill="#4d8cc9" stroke="#0b1015" stroke-width="0.45"/><rect x="630.0629787234042" y="318.0374468085106" width="10.83063829787234" height="10.83063829787234" rx="2.382740425531915" fill="#4d8cc9" stroke="#0b1015" stroke-width="0.45"/><rect x="650.6927659574468" y="318.0374468085106" width="10.83063829787234" height="10.83063829787234" rx="2.382740425531915" fill="#4d8cc9" stroke="#0b1015" stroke-width="0.45"/><rect x="671.3225531914893" y="318.0374468085106" width="10.83063829787234" height="10.83063829787234" rx="2.382740425531915" fill="#4d8cc9" stroke="#0b1015" stroke-width="0.45"/><rect x="691.9523404255318" y="318.0374468085106" width="10.83063829787234" height="10.83063829787234" rx="2.382740425531915" fill="#4d8cc9" stroke="#0b1015" stroke-width="0.45"/><rect x="712.5821276595744" y="318.0374468085106" width="10.83063829787234" height="10.83063829787234" rx="2.382740425531915" fill="#4d8cc9" stroke="#0b1015" stroke-width="0.45"/><rect x="733.211914893617" y="318.0374468085106" width="10.83063829787234" height="10.83063829787234" rx="2.382740425531915" fill="#4d8cc9" stroke="#0b1015" stroke-width="0.45"/><rect x="753.8417021276596" y="318.0374468085106" width="10.83063829787234" height="10.83063829787234" rx="2.382740425531915" fill="#4d8cc9" stroke="#0b1015" stroke-width="0.45"/><rect x="774.4714893617021" y="318.0374468085106" width="10.83063829787234" height="10.83063829787234" rx="2.382740425531915" fill="#4d8cc9" stroke="#0b1015" stroke-width="0.45"/><rect x="795.1012765957446" y="318.0374468085106" width="10.83063829787234" height="10.83063829787234" rx="2.382740425531915" fill="#4d8cc9" stroke="#0b1015" stroke-width="0.45"/><rect x="815.7310638297872" y="318.0374468085106" width="10.83063829787234" height="10.83063829787234" rx="2.382740425531915" fill="#4d8cc9" stroke="#0b1015" stroke-width="0.45"/><rect x="506.2842553191489" y="338.66723404255316" width="10.83063829787234" height="10.83063829787234" rx="2.382740425531915" fill="#4d8cc9" stroke="#0b1015" stroke-width="0.45"/><rect x="526.9140425531915" y="338.66723404255316" width="10.83063829787234" height="10.83063829787234" rx="2.382740425531915" fill="#4d8cc9" stroke="#0b1015" stroke-width="0.45"/><rect x="547.543829787234" y="338.66723404255316" width="10.83063829787234" height="10.83063829787234" rx="2.382740425531915" fill="#4d8cc9" stroke="#0b1015" stroke-width="0.45"/><rect x="568.1736170212765" y="338.66723404255316" width="10.83063829787234" height="10.83063829787234" rx="2.382740425531915" fill="#4d8cc9" stroke="#0b1015" stroke-width="0.45"/><rect x="588.803404255319" y="338.66723404255316" width="10.83063829787234" height="10.83063829787234" rx="2.382740425531915" fill="#4d8cc9" stroke="#0b1015" stroke-width="0.45"/><rect x="609.4331914893617" y="338.66723404255316" width="10.83063829787234" height="10.83063829787234" rx="2.382740425531915" fill="#4d8cc9" stroke="#0b1015" stroke-width="0.45"/><rect x="630.0629787234042" y="338.66723404255316" width="10.83063829787234" height="10.83063829787234" rx="2.382740425531915" fill="#4d8cc9" stroke="#0b1015" stroke-width="0.45"/><rect x="650.6927659574468" y="338.66723404255316" width="10.83063829787234" height="10.83063829787234" rx="2.382740425531915" fill="#4d8cc9" stroke="#0b1015" stroke-width="0.45"/><rect x="671.3225531914893" y="338.66723404255316" width="10.83063829787234" height="10.83063829787234" rx="2.382740425531915" fill="#4d8cc9" stroke="#0b1015" stroke-width="0.45"/><rect x="691.9523404255318" y="338.66723404255316" width="10.83063829787234" height="10.83063829787234" rx="2.382740425531915" fill="#4d8cc9" stroke="#0b1015" stroke-width="0.45"/><rect x="712.5821276595744" y="338.66723404255316" width="10.83063829787234" height="10.83063829787234" rx="2.382740425531915" fill="#4d8cc9" stroke="#0b1015" stroke-width="0.45"/><rect x="733.211914893617" y="338.66723404255316" width="10.83063829787234" height="10.83063829787234" rx="2.382740425531915" fill="#4d8cc9" stroke="#0b1015" stroke-width="0.45"/><rect x="753.8417021276596" y="338.66723404255316" width="10.83063829787234" height="10.83063829787234" rx="2.382740425531915" fill="#4d8cc9" stroke="#0b1015" stroke-width="0.45"/><rect x="774.4714893617021" y="338.66723404255316" width="10.83063829787234" height="10.83063829787234" rx="2.382740425531915" fill="#4d8cc9" stroke="#0b1015" stroke-width="0.45"/><rect x="795.1012765957446" y="338.66723404255316" width="10.83063829787234" height="10.83063829787234" rx="2.382740425531915" fill="#4d8cc9" stroke="#0b1015" stroke-width="0.45"/><rect x="815.7310638297872" y="338.66723404255316" width="10.83063829787234" height="10.83063829787234" rx="2.382740425531915" fill="#4d8cc9" stroke="#0b1015" stroke-width="0.45"/><rect x="506.2842553191489" y="359.29702127659573" width="10.83063829787234" height="10.83063829787234" rx="2.382740425531915" fill="#4d8cc9" stroke="#0b1015" stroke-width="0.45"/><rect x="526.9140425531915" y="359.29702127659573" width="10.83063829787234" height="10.83063829787234" rx="2.382740425531915" fill="#4d8cc9" stroke="#0b1015" stroke-width="0.45"/><rect x="547.543829787234" y="359.29702127659573" width="10.83063829787234" height="10.83063829787234" rx="2.382740425531915" fill="#4d8cc9" stroke="#0b1015" stroke-width="0.45"/><rect x="568.1736170212765" y="359.29702127659573" width="10.83063829787234" height="10.83063829787234" rx="2.382740425531915" fill="#4d8cc9" stroke="#0b1015" stroke-width="0.45"/><rect x="588.803404255319" y="359.29702127659573" width="10.83063829787234" height="10.83063829787234" rx="2.382740425531915" fill="#4d8cc9" stroke="#0b1015" stroke-width="0.45"/><rect x="609.4331914893617" y="359.29702127659573" width="10.83063829787234" height="10.83063829787234" rx="2.382740425531915" fill="#4d8cc9" stroke="#0b1015" stroke-width="0.45"/><rect x="630.0629787234042" y="359.29702127659573" width="10.83063829787234" height="10.83063829787234" rx="2.382740425531915" fill="#4d8cc9" stroke="#0b1015" stroke-width="0.45"/><rect x="650.6927659574468" y="359.29702127659573" width="10.83063829787234" height="10.83063829787234" rx="2.382740425531915" fill="#4d8cc9" stroke="#0b1015" stroke-width="0.45"/><rect x="671.3225531914893" y="359.29702127659573" width="10.83063829787234" height="10.83063829787234" rx="2.382740425531915" fill="#4d8cc9" stroke="#0b1015" stroke-width="0.45"/><rect x="691.9523404255318" y="359.29702127659573" width="10.83063829787234" height="10.83063829787234" rx="2.382740425531915" fill="#4d8cc9" stroke="#0b1015" stroke-width="0.45"/><rect x="712.5821276595744" y="359.29702127659573" width="10.83063829787234" height="10.83063829787234" rx="2.382740425531915" fill="#4d8cc9" stroke="#0b1015" stroke-width="0.45"/><rect x="733.211914893617" y="359.29702127659573" width="10.83063829787234" height="10.83063829787234" rx="2.382740425531915" fill="#4d8cc9" stroke="#0b1015" stroke-width="0.45"/><rect x="753.8417021276596" y="359.29702127659573" width="10.83063829787234" height="10.83063829787234" rx="2.382740425531915" fill="#4d8cc9" stroke="#0b1015" stroke-width="0.45"/><rect x="774.4714893617021" y="359.29702127659573" width="10.83063829787234" height="10.83063829787234" rx="2.382740425531915" fill="#4d8cc9" stroke="#0b1015" stroke-width="0.45"/><rect x="795.1012765957446" y="359.29702127659573" width="10.83063829787234" height="10.83063829787234" rx="2.382740425531915" fill="#4d8cc9" stroke="#0b1015" stroke-width="0.45"/><rect x="815.7310638297872" y="359.29702127659573" width="10.83063829787234" height="10.83063829787234" rx="2.382740425531915" fill="#4d8cc9" stroke="#0b1015" stroke-width="0.45"/><rect x="506.2842553191489" y="379.92680851063824" width="10.83063829787234" height="10.83063829787234" rx="2.382740425531915" fill="#4d8cc9" stroke="#0b1015" stroke-width="0.45"/><rect x="526.9140425531915" y="379.92680851063824" width="10.83063829787234" height="10.83063829787234" rx="2.382740425531915" fill="#4d8cc9" stroke="#0b1015" stroke-width="0.45"/><rect x="547.543829787234" y="379.92680851063824" width="10.83063829787234" height="10.83063829787234" rx="2.382740425531915" fill="#4d8cc9" stroke="#0b1015" stroke-width="0.45"/><rect x="568.1736170212765" y="379.92680851063824" width="10.83063829787234" height="10.83063829787234" rx="2.382740425531915" fill="#4d8cc9" stroke="#0b1015" stroke-width="0.45"/><rect x="588.803404255319" y="379.92680851063824" width="10.83063829787234" height="10.83063829787234" rx="2.382740425531915" fill="#4d8cc9" stroke="#0b1015" stroke-width="0.45"/><rect x="609.4331914893617" y="379.92680851063824" width="10.83063829787234" height="10.83063829787234" rx="2.382740425531915" fill="#4d8cc9" stroke="#0b1015" stroke-width="0.45"/><rect x="630.0629787234042" y="379.92680851063824" width="10.83063829787234" height="10.83063829787234" rx="2.382740425531915" fill="#4d8cc9" stroke="#0b1015" stroke-width="0.45"/><rect x="650.6927659574468" y="379.92680851063824" width="10.83063829787234" height="10.83063829787234" rx="2.382740425531915" fill="#4d8cc9" stroke="#0b1015" stroke-width="0.45"/><rect x="671.3225531914893" y="379.92680851063824" width="10.83063829787234" height="10.83063829787234" rx="2.382740425531915" fill="#4d8cc9" stroke="#0b1015" stroke-width="0.45"/><rect x="691.9523404255318" y="379.92680851063824" width="10.83063829787234" height="10.83063829787234" rx="2.382740425531915" fill="#4d8cc9" stroke="#0b1015" stroke-width="0.45"/><rect x="712.5821276595744" y="379.92680851063824" width="10.83063829787234" height="10.83063829787234" rx="2.382740425531915" fill="#4d8cc9" stroke="#0b1015" stroke-width="0.45"/><rect x="733.211914893617" y="379.92680851063824" width="10.83063829787234" height="10.83063829787234" rx="2.382740425531915" fill="#4d8cc9" stroke="#0b1015" stroke-width="0.45"/><rect x="753.8417021276596" y="379.92680851063824" width="10.83063829787234" height="10.83063829787234" rx="2.382740425531915" fill="#4d8cc9" stroke="#0b1015" stroke-width="0.45"/><rect x="774.4714893617021" y="379.92680851063824" width="10.83063829787234" height="10.83063829787234" rx="2.382740425531915" fill="#4d8cc9" stroke="#0b1015" stroke-width="0.45"/><rect x="795.1012765957446" y="379.92680851063824" width="10.83063829787234" height="10.83063829787234" rx="2.382740425531915" fill="#4d8cc9" stroke="#0b1015" stroke-width="0.45"/><rect x="815.7310638297872" y="379.92680851063824" width="10.83063829787234" height="10.83063829787234" rx="2.382740425531915" fill="#4d8cc9" stroke="#0b1015" stroke-width="0.45"/><rect x="506.2842553191489" y="400.55659574468086" width="10.83063829787234" height="10.83063829787234" rx="2.382740425531915" fill="#4d8cc9" stroke="#0b1015" stroke-width="0.45"/><rect x="526.9140425531915" y="400.55659574468086" width="10.83063829787234" height="10.83063829787234" rx="2.382740425531915" fill="#4d8cc9" stroke="#0b1015" stroke-width="0.45"/><rect x="547.543829787234" y="400.55659574468086" width="10.83063829787234" height="10.83063829787234" rx="2.382740425531915" fill="#4d8cc9" stroke="#0b1015" stroke-width="0.45"/><rect x="568.1736170212765" y="400.55659574468086" width="10.83063829787234" height="10.83063829787234" rx="2.382740425531915" fill="#4d8cc9" stroke="#0b1015" stroke-width="0.45"/><rect x="588.803404255319" y="400.55659574468086" width="10.83063829787234" height="10.83063829787234" rx="2.382740425531915" fill="#4d8cc9" stroke="#0b1015" stroke-width="0.45"/><rect x="609.4331914893617" y="400.55659574468086" width="10.83063829787234" height="10.83063829787234" rx="2.382740425531915" fill="#4d8cc9" stroke="#0b1015" stroke-width="0.45"/><rect x="630.0629787234042" y="400.55659574468086" width="10.83063829787234" height="10.83063829787234" rx="2.382740425531915" fill="#4d8cc9" stroke="#0b1015" stroke-width="0.45"/><rect x="650.6927659574468" y="400.55659574468086" width="10.83063829787234" height="10.83063829787234" rx="2.382740425531915" fill="#4d8cc9" stroke="#0b1015" stroke-width="0.45"/><rect x="671.3225531914893" y="400.55659574468086" width="10.83063829787234" height="10.83063829787234" rx="2.382740425531915" fill="#4d8cc9" stroke="#0b1015" stroke-width="0.45"/><rect x="691.9523404255318" y="400.55659574468086" width="10.83063829787234" height="10.83063829787234" rx="2.382740425531915" fill="#4d8cc9" stroke="#0b1015" stroke-width="0.45"/><rect x="712.5821276595744" y="400.55659574468086" width="10.83063829787234" height="10.83063829787234" rx="2.382740425531915" fill="#4d8cc9" stroke="#0b1015" stroke-width="0.45"/><rect x="733.211914893617" y="400.55659574468086" width="10.83063829787234" height="10.83063829787234" rx="2.382740425531915" fill="#4d8cc9" stroke="#0b1015" stroke-width="0.45"/><rect x="753.8417021276596" y="400.55659574468086" width="10.83063829787234" height="10.83063829787234" rx="2.382740425531915" fill="#4d8cc9" stroke="#0b1015" stroke-width="0.45"/><rect x="774.4714893617021" y="400.55659574468086" width="10.83063829787234" height="10.83063829787234" rx="2.382740425531915" fill="#4d8cc9" stroke="#0b1015" stroke-width="0.45"/><rect x="795.1012765957446" y="400.55659574468086" width="10.83063829787234" height="10.83063829787234" rx="2.382740425531915" fill="#4d8cc9" stroke="#0b1015" stroke-width="0.45"/><rect x="815.7310638297872" y="400.55659574468086" width="10.83063829787234" height="10.83063829787234" rx="2.382740425531915" fill="#4d8cc9" stroke="#0b1015" stroke-width="0.45"/><rect x="506.2842553191489" y="421.1863829787234" width="10.83063829787234" height="10.83063829787234" rx="2.382740425531915" fill="#4d8cc9" stroke="#0b1015" stroke-width="0.45"/><rect x="526.9140425531915" y="421.1863829787234" width="10.83063829787234" height="10.83063829787234" rx="2.382740425531915" fill="#4d8cc9" stroke="#0b1015" stroke-width="0.45"/><rect x="547.543829787234" y="421.1863829787234" width="10.83063829787234" height="10.83063829787234" rx="2.382740425531915" fill="#4d8cc9" stroke="#0b1015" stroke-width="0.45"/><rect x="568.1736170212765" y="421.1863829787234" width="10.83063829787234" height="10.83063829787234" rx="2.382740425531915" fill="#4d8cc9" stroke="#0b1015" stroke-width="0.45"/><rect x="588.803404255319" y="421.1863829787234" width="10.83063829787234" height="10.83063829787234" rx="2.382740425531915" fill="#4d8cc9" stroke="#0b1015" stroke-width="0.45"/><rect x="609.4331914893617" y="421.1863829787234" width="10.83063829787234" height="10.83063829787234" rx="2.382740425531915" fill="#4d8cc9" stroke="#0b1015" stroke-width="0.45"/><rect x="630.0629787234042" y="421.1863829787234" width="10.83063829787234" height="10.83063829787234" rx="2.382740425531915" fill="#4d8cc9" stroke="#0b1015" stroke-width="0.45"/><rect x="650.6927659574468" y="421.1863829787234" width="10.83063829787234" height="10.83063829787234" rx="2.382740425531915" fill="#4d8cc9" stroke="#0b1015" stroke-width="0.45"/><rect x="671.3225531914893" y="421.1863829787234" width="10.83063829787234" height="10.83063829787234" rx="2.382740425531915" fill="#4d8cc9" stroke="#0b1015" stroke-width="0.45"/><rect x="691.9523404255318" y="421.1863829787234" width="10.83063829787234" height="10.83063829787234" rx="2.382740425531915" fill="#4d8cc9" stroke="#0b1015" stroke-width="0.45"/><rect x="712.5821276595744" y="421.1863829787234" width="10.83063829787234" height="10.83063829787234" rx="2.382740425531915" fill="#4d8cc9" stroke="#0b1015" stroke-width="0.45"/><rect x="733.211914893617" y="421.1863829787234" width="10.83063829787234" height="10.83063829787234" rx="2.382740425531915" fill="#4d8cc9" stroke="#0b1015" stroke-width="0.45"/><rect x="753.8417021276596" y="421.1863829787234" width="10.83063829787234" height="10.83063829787234" rx="2.382740425531915" fill="#4d8cc9" stroke="#0b1015" stroke-width="0.45"/><rect x="774.4714893617021" y="421.1863829787234" width="10.83063829787234" height="10.83063829787234" rx="2.382740425531915" fill="#4d8cc9" stroke="#0b1015" stroke-width="0.45"/><rect x="795.1012765957446" y="421.1863829787234" width="10.83063829787234" height="10.83063829787234" rx="2.382740425531915" fill="#4d8cc9" stroke="#0b1015" stroke-width="0.45"/><rect x="815.7310638297872" y="421.1863829787234" width="10.83063829787234" height="10.83063829787234" rx="2.382740425531915" fill="#4d8cc9" stroke="#0b1015" stroke-width="0.45"/><rect x="506.2842553191489" y="441.81617021276594" width="10.83063829787234" height="10.83063829787234" rx="2.382740425531915" fill="#4d8cc9" stroke="#0b1015" stroke-width="0.45"/><rect x="526.9140425531915" y="441.81617021276594" width="10.83063829787234" height="10.83063829787234" rx="2.382740425531915" fill="#4d8cc9" stroke="#0b1015" stroke-width="0.45"/><rect x="547.543829787234" y="441.81617021276594" width="10.83063829787234" height="10.83063829787234" rx="2.382740425531915" fill="#4d8cc9" stroke="#0b1015" stroke-width="0.45"/><rect x="568.1736170212765" y="441.81617021276594" width="10.83063829787234" height="10.83063829787234" rx="2.382740425531915" fill="#4d8cc9" stroke="#0b1015" stroke-width="0.45"/><rect x="588.803404255319" y="441.81617021276594" width="10.83063829787234" height="10.83063829787234" rx="2.382740425531915" fill="#4d8cc9" stroke="#0b1015" stroke-width="0.45"/><rect x="609.4331914893617" y="441.81617021276594" width="10.83063829787234" height="10.83063829787234" rx="2.382740425531915" fill="#4d8cc9" stroke="#0b1015" stroke-width="0.45"/><rect x="630.0629787234042" y="441.81617021276594" width="10.83063829787234" height="10.83063829787234" rx="2.382740425531915" fill="#4d8cc9" stroke="#0b1015" stroke-width="0.45"/><rect x="650.6927659574468" y="441.81617021276594" width="10.83063829787234" height="10.83063829787234" rx="2.382740425531915" fill="#4d8cc9" stroke="#0b1015" stroke-width="0.45"/><rect x="671.3225531914893" y="441.81617021276594" width="10.83063829787234" height="10.83063829787234" rx="2.382740425531915" fill="#4d8cc9" stroke="#0b1015" stroke-width="0.45"/><rect x="691.9523404255318" y="441.81617021276594" width="10.83063829787234" height="10.83063829787234" rx="2.382740425531915" fill="#4d8cc9" stroke="#0b1015" stroke-width="0.45"/><rect x="712.5821276595744" y="441.81617021276594" width="10.83063829787234" height="10.83063829787234" rx="2.382740425531915" fill="#4d8cc9" stroke="#0b1015" stroke-width="0.45"/><rect x="733.211914893617" y="441.81617021276594" width="10.83063829787234" height="10.83063829787234" rx="2.382740425531915" fill="#4d8cc9" stroke="#0b1015" stroke-width="0.45"/><rect x="753.8417021276596" y="441.81617021276594" width="10.83063829787234" height="10.83063829787234" rx="2.382740425531915" fill="#4d8cc9" stroke="#0b1015" stroke-width="0.45"/><rect x="774.4714893617021" y="441.81617021276594" width="10.83063829787234" height="10.83063829787234" rx="2.382740425531915" fill="#4d8cc9" stroke="#0b1015" stroke-width="0.45"/><rect x="795.1012765957446" y="441.81617021276594" width="10.83063829787234" height="10.83063829787234" rx="2.382740425531915" fill="#4d8cc9" stroke="#0b1015" stroke-width="0.45"/><rect x="815.7310638297872" y="441.81617021276594" width="10.83063829787234" height="10.83063829787234" rx="2.382740425531915" fill="#4d8cc9" stroke="#0b1015" stroke-width="0.45"/><rect x="506.2842553191489" y="462.4459574468085" width="10.83063829787234" height="10.83063829787234" rx="2.382740425531915" fill="#4d8cc9" stroke="#0b1015" stroke-width="0.45"/><rect x="526.9140425531915" y="462.4459574468085" width="10.83063829787234" height="10.83063829787234" rx="2.382740425531915" fill="#4d8cc9" stroke="#0b1015" stroke-width="0.45"/><rect x="547.543829787234" y="462.4459574468085" width="10.83063829787234" height="10.83063829787234" rx="2.382740425531915" fill="#4d8cc9" stroke="#0b1015" stroke-width="0.45"/><rect x="568.1736170212765" y="462.4459574468085" width="10.83063829787234" height="10.83063829787234" rx="2.382740425531915" fill="#4d8cc9" stroke="#0b1015" stroke-width="0.45"/><rect x="588.803404255319" y="462.4459574468085" width="10.83063829787234" height="10.83063829787234" rx="2.382740425531915" fill="#4d8cc9" stroke="#0b1015" stroke-width="0.45"/><rect x="609.4331914893617" y="462.4459574468085" width="10.83063829787234" height="10.83063829787234" rx="2.382740425531915" fill="#4d8cc9" stroke="#0b1015" stroke-width="0.45"/><rect x="630.0629787234042" y="462.4459574468085" width="10.83063829787234" height="10.83063829787234" rx="2.382740425531915" fill="#4d8cc9" stroke="#0b1015" stroke-width="0.45"/><rect x="650.6927659574468" y="462.4459574468085" width="10.83063829787234" height="10.83063829787234" rx="2.382740425531915" fill="#4d8cc9" stroke="#0b1015" stroke-width="0.45"/><rect x="671.3225531914893" y="462.4459574468085" width="10.83063829787234" height="10.83063829787234" rx="2.382740425531915" fill="#4d8cc9" stroke="#0b1015" stroke-width="0.45"/><rect x="691.9523404255318" y="462.4459574468085" width="10.83063829787234" height="10.83063829787234" rx="2.382740425531915" fill="#4d8cc9" stroke="#0b1015" stroke-width="0.45"/><rect x="712.5821276595744" y="462.4459574468085" width="10.83063829787234" height="10.83063829787234" rx="2.382740425531915" fill="#4d8cc9" stroke="#0b1015" stroke-width="0.45"/><rect x="733.211914893617" y="462.4459574468085" width="10.83063829787234" height="10.83063829787234" rx="2.382740425531915" fill="#4d8cc9" stroke="#0b1015" stroke-width="0.45"/><rect x="753.8417021276596" y="462.4459574468085" width="10.83063829787234" height="10.83063829787234" rx="2.382740425531915" fill="#4d8cc9" stroke="#0b1015" stroke-width="0.45"/><rect x="774.4714893617021" y="462.4459574468085" width="10.83063829787234" height="10.83063829787234" rx="2.382740425531915" fill="#4d8cc9" stroke="#0b1015" stroke-width="0.45"/><rect x="795.1012765957446" y="462.4459574468085" width="10.83063829787234" height="10.83063829787234" rx="2.382740425531915" fill="#4d8cc9" stroke="#0b1015" stroke-width="0.45"/><rect x="815.7310638297872" y="462.4459574468085" width="10.83063829787234" height="10.83063829787234" rx="2.382740425531915" fill="#4d8cc9" stroke="#0b1015" stroke-width="0.45"/><rect x="506.2842553191489" y="483.075744680851" width="10.83063829787234" height="10.83063829787234" rx="2.382740425531915" fill="#4d8cc9" stroke="#0b1015" stroke-width="0.45"/><rect x="526.9140425531915" y="483.075744680851" width="10.83063829787234" height="10.83063829787234" rx="2.382740425531915" fill="#4d8cc9" stroke="#0b1015" stroke-width="0.45"/><rect x="547.543829787234" y="483.075744680851" width="10.83063829787234" height="10.83063829787234" rx="2.382740425531915" fill="#4d8cc9" stroke="#0b1015" stroke-width="0.45"/><rect x="568.1736170212765" y="483.075744680851" width="10.83063829787234" height="10.83063829787234" rx="2.382740425531915" fill="#4d8cc9" stroke="#0b1015" stroke-width="0.45"/><rect x="588.803404255319" y="483.075744680851" width="10.83063829787234" height="10.83063829787234" rx="2.382740425531915" fill="#4d8cc9" stroke="#0b1015" stroke-width="0.45"/><rect x="609.4331914893617" y="483.075744680851" width="10.83063829787234" height="10.83063829787234" rx="2.382740425531915" fill="#4d8cc9" stroke="#0b1015" stroke-width="0.45"/><rect x="630.0629787234042" y="483.075744680851" width="10.83063829787234" height="10.83063829787234" rx="2.382740425531915" fill="#4d8cc9" stroke="#0b1015" stroke-width="0.45"/><rect x="650.6927659574468" y="483.075744680851" width="10.83063829787234" height="10.83063829787234" rx="2.382740425531915" fill="#4d8cc9" stroke="#0b1015" stroke-width="0.45"/><rect x="671.3225531914893" y="483.075744680851" width="10.83063829787234" height="10.83063829787234" rx="2.382740425531915" fill="#4d8cc9" stroke="#0b1015" stroke-width="0.45"/><rect x="691.9523404255318" y="483.075744680851" width="10.83063829787234" height="10.83063829787234" rx="2.382740425531915" fill="#4d8cc9" stroke="#0b1015" stroke-width="0.45"/><rect x="712.5821276595744" y="483.075744680851" width="10.83063829787234" height="10.83063829787234" rx="2.382740425531915" fill="#4d8cc9" stroke="#0b1015" stroke-width="0.45"/><rect x="733.211914893617" y="483.075744680851" width="10.83063829787234" height="10.83063829787234" rx="2.382740425531915" fill="#4d8cc9" stroke="#0b1015" stroke-width="0.45"/><rect x="753.8417021276596" y="483.075744680851" width="10.83063829787234" height="10.83063829787234" rx="2.382740425531915" fill="#4d8cc9" stroke="#0b1015" stroke-width="0.45"/><rect x="774.4714893617021" y="483.075744680851" width="10.83063829787234" height="10.83063829787234" rx="2.382740425531915" fill="#4d8cc9" stroke="#0b1015" stroke-width="0.45"/><rect x="795.1012765957446" y="483.075744680851" width="10.83063829787234" height="10.83063829787234" rx="2.382740425531915" fill="#4d8cc9" stroke="#0b1015" stroke-width="0.45"/><rect x="815.7310638297872" y="483.075744680851" width="10.83063829787234" height="10.83063829787234" rx="2.382740425531915" fill="#4d8cc9" stroke="#0b1015" stroke-width="0.45"/></g>
  <text x="233.19744680851068" y="503.3395744680852" text-anchor="middle" fill="#ffc977" font-family="ui-monospace, monospace" font-size="15" font-weight="700">DDR3 x16 · 96-ball FBGA</text>
  <text x="666.4229787234042" y="521.9063829787234" text-anchor="middle" fill="#88b9eb" font-family="ui-monospace, monospace" font-size="15" font-weight="700">CONTROLLER · 16x16 BGA</text>
  <text x="28" y="38" fill="#eef5fb" font-family="ui-sans-serif, system-ui" font-size="19" font-weight="700">sample003 · 49 DDR3 signals · 8 layers</text>
  <text x="28" y="61" fill="#9fb0bf" font-family="ui-sans-serif, system-ui" font-size="13">7.2 mm pad-field gap · via-in-pad disabled · unrouted ratsnest</text>
</svg>