<?xml version="1.0" encoding="UTF-8"?>
<svg xmlns="http://www.w3.org/2000/svg" width="1000" height="650" viewBox="0 0 1000 650">
  <rect width="100%" height="100%" fill="#0d1218"/>
  <rect x="22" y="45.587174348697545" width="956" height="582.4128256513025" rx="8" fill="#13251f" stroke="#4f806c" stroke-width="2"/>
  <g><line x1="267.2264529058116" y1="413.42685370741486" x2="824.7334669338677" y2="382.7735470941884" stroke="#4ecdc4" stroke-width="0.85" opacity="0.46"/><line x1="251.89979959919836" y1="413.42685370741486" x2="840.0601202404808" y2="367.4468937875752" stroke="#4ecdc4" stroke-width="0.85" opacity="0.46"/><line x1="190.59318637274546" y1="413.42685370741486" x2="809.4068136272545" y2="367.4468937875752" stroke="#4ecdc4" stroke-width="0.85" opacity="0.46"/><line x1="190.59318637274546" y1="398.10020040080167" x2="824.7334669338677" y2="413.42685370741486" stroke="#ff6b6b" stroke-width="0.85" opacity="0.46"/><line x1="175.26653306613224" y1="398.10020040080167" x2="840.0601202404808" y2="382.7735470941884" stroke="#4ecdc4" stroke-width="0.85" opacity="0.46"/><line x1="267.2264529058116" y1="382.7735470941884" x2="809.4068136272545" y2="382.7735470941884" stroke="#4ecdc4" stroke-width="0.85" opacity="0.46"/><line x1="251.89979959919836" y1="382.7735470941884" x2="809.4068136272545" y2="428.75350701402806" stroke="#4ecdc4" stroke-width="0.85" opacity="0.46"/><line x1="190.59318637274546" y1="382.7735470941884" x2="824.7334669338677" y2="398.10020040080167" stroke="#ff6b6b" stroke-width="0.85" opacity="0.46"/><line x1="175.26653306613224" y1="382.7735470941884" x2="809.4068136272545" y2="398.10020040080167" stroke="#4ecdc4" stroke-width="0.85" opacity="0.46"/><line x1="251.89979959919836" y1="367.4468937875752" x2="840.0601202404808" y2="413.42685370741486" stroke="#ffd166" stroke-width="0.85" opacity="0.46"/><line x1="190.59318637274546" y1="367.4468937875752" x2="824.7334669338677" y2="428.75350701402806" stroke="#4ecdc4" stroke-width="0.85" opacity="0.46"/><line x1="251.89979959919836" y1="352.12024048096197" x2="809.4068136272545" y2="459.40681362725456" stroke="#4ecdc4" stroke-width="0.85" opacity="0.46"/><line x1="190.59318637274546" y1="352.12024048096197" x2="840.0601202404808" y2="490.06012024048096" stroke="#ffd166" stroke-width="0.85" opacity="0.46"/><line x1="267.2264529058116" y1="336.7935871743488" x2="824.7334669338677" y2="490.06012024048096" stroke="#4ecdc4" stroke-width="0.85" opacity="0.46"/><line x1="251.89979959919836" y1="336.7935871743488" x2="824.7334669338677" y2="459.40681362725456" stroke="#ff6b6b" stroke-width="0.85" opacity="0.46"/><line x1="190.59318637274546" y1="336.7935871743488" x2="809.4068136272545" y2="474.73346693386776" stroke="#4ecdc4" stroke-width="0.85" opacity="0.46"/><line x1="175.26653306613224" y1="336.7935871743488" x2="794.0801603206411" y2="490.06012024048096" stroke="#4ecdc4" stroke-width="0.85" opacity="0.46"/><line x1="267.2264529058116" y1="321.4669338677355" x2="840.0601202404808" y2="459.40681362725456" stroke="#4ecdc4" stroke-width="0.85" opacity="0.46"/><line x1="251.89979959919836" y1="321.4669338677355" x2="824.7334669338677" y2="474.73346693386776" stroke="#ff6b6b" stroke-width="0.85" opacity="0.46"/><line x1="251.89979959919836" y1="306.14028056112227" x2="809.4068136272545" y2="444.0801603206413" stroke="#4ecdc4" stroke-width="0.85" opacity="0.46"/><line x1="190.59318637274546" y1="306.14028056112227" x2="840.0601202404808" y2="428.75350701402806" stroke="#4ecdc4" stroke-width="0.85" opacity="0.46"/><line x1="175.26653306613224" y1="306.14028056112227" x2="840.0601202404808" y2="444.0801603206413" stroke="#4ecdc4" stroke-width="0.85" opacity="0.46"/><line x1="251.89979959919836" y1="290.8136272545091" x2="794.0801603206411" y2="290.8136272545091" stroke="#f28e2b" stroke-width="0.85" opacity="0.46"/><line x1="190.59318637274546" y1="290.8136272545091" x2="824.7334669338677" y2="336.7935871743488" stroke="#e15759" stroke-width="0.85" opacity="0.46"/><line x1="282.55310621242484" y1="275.4869739478959" x2="778.753507014028" y2="306.14028056112227" stroke="#76b7b2" stroke-width="0.85" opacity="0.46"/><line x1="251.89979959919836" y1="275.4869739478959" x2="778.753507014028" y2="290.8136272545091" stroke="#f28e2b" stroke-width="0.85" opacity="0.46"/><line x1="190.59318637274546" y1="275.4869739478959" x2="824.7334669338677" y2="321.4669338677355" stroke="#e15759" stroke-width="0.85" opacity="0.46"/><line x1="159.93987975951904" y1="275.4869739478959" x2="809.4068136272545" y2="306.14028056112227" stroke="#76b7b2" stroke-width="0.85" opacity="0.46"/><line x1="267.2264529058116" y1="260.1603206412826" x2="840.0601202404808" y2="306.14028056112227" stroke="#76b7b2" stroke-width="0.85" opacity="0.46"/><line x1="251.89979959919836" y1="260.1603206412826" x2="778.753507014028" y2="321.4669338677355" stroke="#76b7b2" stroke-width="0.85" opacity="0.46"/><line x1="190.59318637274546" y1="260.1603206412826" x2="778.753507014028" y2="413.42685370741486" stroke="#5f9df7" stroke-width="0.85" opacity="0.46"/><line x1="267.2264529058116" y1="244.83366733466937" x2="778.753507014028" y2="336.7935871743488" stroke="#9b7ede" stroke-width="0.85" opacity="0.46"/><line x1="251.89979959919836" y1="244.83366733466937" x2="778.753507014028" y2="367.4468937875752" stroke="#9b7ede" stroke-width="0.85" opacity="0.46"/><line x1="267.2264529058116" y1="229.50701402805618" x2="809.4068136272545" y2="352.12024048096197" stroke="#5f9df7" stroke-width="0.85" opacity="0.46"/><line x1="251.89979959919836" y1="229.50701402805618" x2="824.7334669338677" y2="306.14028056112227" stroke="#5f9df7" stroke-width="0.85" opacity="0.46"/><line x1="190.59318637274546" y1="229.50701402805618" x2="794.0801603206411" y2="428.75350701402806" stroke="#5f9df7" stroke-width="0.85" opacity="0.46"/><line x1="175.26653306613224" y1="229.50701402805618" x2="794.0801603206411" y2="275.4869739478959" stroke="#9b7ede" stroke-width="0.85" opacity="0.46"/><line x1="267.2264529058116" y1="214.18036072144292" x2="840.0601202404808" y2="336.7935871743488" stroke="#5f9df7" stroke-width="0.85" opacity="0.46"/><line x1="251.89979959919836" y1="214.18036072144292" x2="809.4068136272545" y2="321.4669338677355" stroke="#5f9df7" stroke-width="0.85" opacity="0.46"/><line x1="190.59318637274546" y1="214.18036072144292" x2="824.7334669338677" y2="352.12024048096197" stroke="#5f9df7" stroke-width="0.85" opacity="0.46"/><line x1="175.26653306613224" y1="214.18036072144292" x2="794.0801603206411" y2="321.4669338677355" stroke="#5f9df7" stroke-width="0.85" opacity="0.46"/><line x1="267.2264529058116" y1="198.85370741482973" x2="794.0801603206411" y2="352.12024048096197" stroke="#5f9df7" stroke-width="0.85" opacity="0.46"/><line x1="251.89979959919836" y1="198.85370741482973" x2="794.0801603206411" y2="367.4468937875752" stroke="#5f9df7" stroke-width="0.85" opacity="0.46"/><line x1="190.59318637274546" y1="198.85370741482973" x2="794.0801603206411" y2="398.10020040080167" stroke="#5f9df7" stroke-width="0.85" opacity="0.46"/><line x1="175.26653306613224" y1="198.85370741482973" x2="794.0801603206411" y2="336.7935871743488" stroke="#5f9df7" stroke-width="0.85" opacity="0.46"/><line x1="267.2264529058116" y1="183.52705410821653" x2="794.0801603206411" y2="474.73346693386776" stroke="#76b7b2" stroke-width="0.85" opacity="0.46"/><line x1="251.89979959919836" y1="183.52705410821653" x2="794.0801603206411" y2="444.0801603206413" stroke="#5f9df7" stroke-width="0.85" opacity="0.46"/><line x1="190.59318637274546" y1="183.52705410821653" x2="794.0801603206411" y2="413.42685370741486" stroke="#5f9df7" stroke-width="0.85" opacity="0.46"/><line x1="175.26653306613224" y1="183.52705410821653" x2="840.0601202404808" y2="352.12024048096197" stroke="#5f9df7" stroke-width="0.85" opacity="0.46"/></g><g><rect x="278.7214428857715" y="409.59519038076155" width="7.663326653306612" height="7.663326653306612" rx="1.6859318637274547" fill="#f5a742" stroke="#0b1015" stroke-width="0.35"/><rect x="263.39478957915827" y="409.59519038076155" width="7.663326653306612" height="7.663326653306612" rx="1.6859318637274547" fill="#f5a742" stroke="#0b1015" stroke-width="0.35"/><rect x="248.06813627254505" y="409.59519038076155" width="7.663326653306612" height="7.663326653306612" rx="1.6859318637274547" fill="#f5a742" stroke="#0b1015" stroke-width="0.35"/><rect x="186.76152304609215" y="409.59519038076155" width="7.663326653306612" height="7.663326653306612" rx="1.6859318637274547" fill="#f5a742" stroke="#0b1015" stroke-width="0.35"/><rect x="171.43486973947893" y="409.59519038076155" width="7.663326653306612" height="7.663326653306612" rx="1.6859318637274547" fill="#f5a742" stroke="#0b1015" stroke-width="0.35"/><rect x="156.10821643286573" y="409.59519038076155" width="7.663326653306612" height="7.663326653306612" rx="1.6859318637274547" fill="#f5a742" stroke="#0b1015" stroke-width="0.35"/><rect x="278.7214428857715" y="394.26853707414836" width="7.663326653306612" height="7.663326653306612" rx="1.6859318637274547" fill="#f5a742" stroke="#0b1015" stroke-width="0.35"/><rect x="263.39478957915827" y="394.26853707414836" width="7.663326653306612" height="7.663326653306612" rx="1.6859318637274547" fill="#f5a742" stroke="#0b1015" stroke-width="0.35"/><rect x="248.06813627254505" y="394.26853707414836" width="7.663326653306612" height="7.663326653306612" rx="1.6859318637274547" fill="#f5a742" stroke="#0b1015" stroke-width="0.35"/><rect x="186.76152304609215" y="394.26853707414836" width="7.663326653306612" height="7.663326653306612" rx="1.6859318637274547" fill="#f5a742" stroke="#0b1015" stroke-width="0.35"/><rect x="171.43486973947893" y="394.26853707414836" width="7.663326653306612" height="7.663326653306612" rx="1.6859318637274547" fill="#f5a742" stroke="#0b1015" stroke-width="0.35"/><rect x="156.10821643286573" y="394.26853707414836" width="7.663326653306612" height="7.663326653306612" rx="1.6859318637274547" fill="#f5a742" stroke="#0b1015" stroke-width="0.35"/><rect x="278.7214428857715" y="378.9418837675351" width="7.663326653306612" height="7.663326653306612" rx="1.6859318637274547" fill="#f5a742" stroke="#0b1015" stroke-width="0.35"/><rect x="263.39478957915827" y="378.9418837675351" width="7.663326653306612" height="7.663326653306612" rx="1.6859318637274547" fill="#f5a742" stroke="#0b1015" stroke-width="0.35"/><rect x="248.06813627254505" y="378.9418837675351" width="7.663326653306612" height="7.663326653306612" rx="1.6859318637274547" fill="#f5a742" stroke="#0b1015" stroke-width="0.35"/><rect x="186.76152304609215" y="378.9418837675351" width="7.663326653306612" height="7.663326653306612" rx="1.6859318637274547" fill="#f5a742" stroke="#0b1015" stroke-width="0.35"/><rect x="171.43486973947893" y="378.9418837675351" width="7.663326653306612" height="7.663326653306612" rx="1.6859318637274547" fill="#f5a742" stroke="#0b1015" stroke-width="0.35"/><rect x="156.10821643286573" y="378.9418837675351" width="7.663326653306612" height="7.663326653306612" rx="1.6859318637274547" fill="#f5a742" stroke="#0b1015" stroke-width="0.35"/><rect x="278.7214428857715" y="363.6152304609219" width="7.663326653306612" height="7.663326653306612" rx="1.6859318637274547" fill="#f5a742" stroke="#0b1015" stroke-width="0.35"/><rect x="263.39478957915827" y="363.6152304609219" width="7.663326653306612" height="7.663326653306612" rx="1.6859318637274547" fill="#f5a742" stroke="#0b1015" stroke-width="0.35"/><rect x="248.06813627254505" y="363.6152304609219" width="7.663326653306612" height="7.663326653306612" rx="1.6859318637274547" fill="#f5a742" stroke="#0b1015" stroke-width="0.35"/><rect x="186.76152304609215" y="363.6152304609219" width="7.663326653306612" height="7.663326653306612" rx="1.6859318637274547" fill="#f5a742" stroke="#0b1015" stroke-width="0.35"/><rect x="171.43486973947893" y="363.6152304609219" width="7.663326653306612" height="7.663326653306612" rx="1.6859318637274547" fill="#f5a742" stroke="#0b1015" stroke-width="0.35"/><rect x="156.10821643286573" y="363.6152304609219" width="7.663326653306612" height="7.663326653306612" rx="1.6859318637274547" fill="#f5a742" stroke="#0b1015" stroke-width="0.35"/><rect x="278.7214428857715" y="348.28857715430865" width="7.663326653306612" height="7.663326653306612" rx="1.6859318637274547" fill="#f5a742" stroke="#0b1015" stroke-width="0.35"/><rect x="263.39478957915827" y="348.28857715430865" width="7.663326653306612" height="7.663326653306612" rx="1.6859318637274547" fill="#f5a742" stroke="#0b1015" stroke-width="0.35"/><rect x="248.06813627254505" y="348.28857715430865" width="7.663326653306612" height="7.663326653306612" rx="1.6859318637274547" fill="#f5a742" stroke="#0b1015" stroke-width="0.35"/><rect x="186.76152304609215" y="348.28857715430865" width="7.663326653306612" height="7.663326653306612" rx="1.6859318637274547" fill="#f5a742" stroke="#0b1015" stroke-width="0.35"/><rect x="171.43486973947893" y="348.28857715430865" width="7.663326653306612" height="7.663326653306612" rx="1.6859318637274547" fill="#f5a742" stroke="#0b1015" stroke-width="0.35"/><rect x="156.10821643286573" y="348.28857715430865" width="7.663326653306612" height="7.663326653306612" rx="1.6859318637274547" fill="#f5a742" stroke="#0b1015" stroke-width="0.35"/><rect x="278.7214428857715" y="332.96192384769546" width="7.663326653306612" height="7.663326653306612" rx="1.6859318637274547" fill="#f5a742" stroke="#0b1015" stroke-width="0.35"/><rect x="263.39478957915827" y="332.96192384769546" width="7.663326653306612" height="7.663326653306612" rx="1.6859318637274547" fill="#f5a742" stroke="#0b1015" stroke-width="0.35"/><rect x="248.06813627254505" y="332.96192384769546" width="7.663326653306612" height="7.663326653306612" rx="1.6859318637274547" fill="#f5a742" stroke="#0b1015" stroke-width="0.35"/><rect x="186.76152304609215" y="332.96192384769546" width="7.663326653306612" height="7.663326653306612" rx="1.6859318637274547" fill="#f5a742" stroke="#0b1015" stroke-width="0.35"/><rect x="171.43486973947893" y="332.96192384769546" width="7.663326653306612" height="7.663326653306612" rx="1.6859318637274547" fill="#f5a742" stroke="#0b1015" stroke-width="0.35"/><rect x="156.10821643286573" y="332.96192384769546" width="7.663326653306612" height="7.663326653306612" rx="1.6859318637274547" fill="#f5a742" stroke="#0b1015" stroke-width="0.35"/><rect x="278.7214428857715" y="317.6352705410822" width="7.663326653306612" height="7.663326653306612" rx="1.6859318637274547" fill="#f5a742" stroke="#0b1015" stroke-width="0.35"/><rect x="263.39478957915827" y="317.6352705410822" width="7.663326653306612" height="7.663326653306612" rx="1.6859318637274547" fill="#f5a742" stroke="#0b1015" stroke-width="0.35"/><rect x="248.06813627254505" y="317.6352705410822" width="7.663326653306612" height="7.663326653306612" rx="1.6859318637274547" fill="#f5a742" stroke="#0b1015" stroke-width="0.35"/><rect x="186.76152304609215" y="317.6352705410822" width="7.663326653306612" height="7.663326653306612" rx="1.6859318637274547" fill="#f5a742" stroke="#0b1015" stroke-width="0.35"/><rect x="171.43486973947893" y="317.6352705410822" width="7.663326653306612" height="7.663326653306612" rx="1.6859318637274547" fill="#f5a742" stroke="#0b1015" stroke-width="0.35"/><rect x="156.10821643286573" y="317.6352705410822" width="7.663326653306612" height="7.663326653306612" rx="1.6859318637274547" fill="#f5a742" stroke="#0b1015" stroke-width="0.35"/><rect x="278.7214428857715" y="302.30861723446895" width="7.663326653306612" height="7.663326653306612" rx="1.6859318637274547" fill="#f5a742" stroke="#0b1015" stroke-width="0.35"/><rect x="263.39478957915827" y="302.30861723446895" width="7.663326653306612" height="7.663326653306612" rx="1.6859318637274547" fill="#f5a742" stroke="#0b1015" stroke-width="0.35"/><rect x="248.06813627254505" y="302.30861723446895" width="7.663326653306612" height="7.663326653306612" rx="1.6859318637274547" fill="#f5a742" stroke="#0b1015" stroke-width="0.35"/><rect x="186.76152304609215" y="302.30861723446895" width="7.663326653306612" height="7.663326653306612" rx="1.6859318637274547" fill="#f5a742" stroke="#0b1015" stroke-width="0.35"/><rect x="171.43486973947893" y="302.30861723446895" width="7.663326653306612" height="7.663326653306612" rx="1.6859318637274547" fill="#f5a742" stroke="#0b1015" stroke-width="0.35"/><rect x="156.10821643286573" y="302.30861723446895" width="7.663326653306612" height="7.663326653306612" rx="1.6859318637274547" fill="#f5a742" stroke="#0b1015" stroke-width="0.35"/><rect x="278.7214428857715" y="286.98196392785576" width="7.663326653306612" height="7.663326653306612" rx="1.6859318637274547" fill="#f5a742" stroke="#0b1015" stroke-width="0.35"/><rect x="263.39478957915827" y="286.98196392785576" width="7.663326653306612" height="7.663326653306612" rx="1.6859318637274547" fill="#f5a742" stroke="#0b1015" stroke-width="0.35"/><rect x="248.06813627254505" y="286.98196392785576" width="7.663326653306612" height="7.663326653306612" rx="1.6859318637274547" fill="#f5a742" stroke="#0b1015" stroke-width="0.35"/><rect x="186.76152304609215" y="286.98196392785576" width="7.663326653306612" height="7.663326653306612" rx="1.6859318637274547" fill="#f5a742" stroke="#0b1015" stroke-width="0.35"/><rect x="171.43486973947893" y="286.98196392785576" width="7.663326653306612" height="7.663326653306612" rx="1.6859318637274547" fill="#f5a742" stroke="#0b1015" stroke-width="0.35"/><rect x="156.10821643286573" y="286.98196392785576" width="7.663326653306612" height="7.663326653306612" rx="1.6859318637274547" fill="#f5a742" stroke="#0b1015" stroke-width="0.35"/><rect x="278.7214428857715" y="271.65531062124256" width="7.663326653306612" height="7.663326653306612" rx="1.6859318637274547" fill="#f5a742" stroke="#0b1015" stroke-width="0.35"/><rect x="263.39478957915827" y="271.65531062124256" width="7.663326653306612" height="7.663326653306612" rx="1.6859318637274547" fill="#f5a742" stroke="#0b1015" stroke-width="0.35"/><rect x="248.06813627254505" y="271.65531062124256" width="7.663326653306612" height="7.663326653306612" rx="1.6859318637274547" fill="#f5a742" stroke="#0b1015" stroke-width="0.35"/><rect x="186.76152304609215" y="271.65531062124256" width="7.663326653306612" height="7.663326653306612" rx="1.6859318637274547" fill="#f5a742" stroke="#0b1015" stroke-width="0.35"/><rect x="171.43486973947893" y="271.65531062124256" width="7.663326653306612" height="7.663326653306612" rx="1.6859318637274547" fill="#f5a742" stroke="#0b1015" stroke-width="0.35"/><rect x="156.10821643286573" y="271.65531062124256" width="7.663326653306612" height="7.663326653306612" rx="1.6859318637274547" fill="#f5a742" stroke="#0b1015" stroke-width="0.35"/><rect x="278.7214428857715" y="256.3286573146293" width="7.663326653306612" height="7.663326653306612" rx="1.6859318637274547" fill="#f5a742" stroke="#0b1015" stroke-width="0.35"/><rect x="263.39478957915827" y="256.3286573146293" width="7.663326653306612" height="7.663326653306612" rx="1.6859318637274547" fill="#f5a742" stroke="#0b1015" stroke-width="0.35"/><rect x="248.06813627254505" y="256.3286573146293" width="7.663326653306612" height="7.663326653306612" rx="1.6859318637274547" fill="#f5a742" stroke="#0b1015" stroke-width="0.35"/><rect x="186.76152304609215" y="256.3286573146293" width="7.663326653306612" height="7.663326653306612" rx="1.6859318637274547" fill="#f5a742" stroke="#0b1015" stroke-width="0.35"/><rect x="171.43486973947893" y="256.3286573146293" width="7.663326653306612" height="7.663326653306612" rx="1.6859318637274547" fill="#f5a742" stroke="#0b1015" stroke-width="0.35"/><rect x="156.10821643286573" y="256.3286573146293" width="7.663326653306612" height="7.663326653306612" rx="1.6859318637274547" fill="#f5a742" stroke="#0b1015" stroke-width="0.35"/><rect x="278.7214428857715" y="241.00200400801606" width="7.663326653306612" height="7.663326653306612" rx="1.6859318637274547" fill="#f5a742" stroke="#0b1015" stroke-width="0.35"/><rect x="263.39478957915827" y="241.00200400801606" width="7.663326653306612" height="7.663326653306612" rx="1.6859318637274547" fill="#f5a742" stroke="#0b1015" stroke-width="0.35"/><rect x="248.06813627254505" y="241.00200400801606" width="7.663326653306612" height="7.663326653306612" rx="1.6859318637274547" fill="#f5a742" stroke="#0b1015" stroke-width="0.35"/><rect x="186.76152304609215" y="241.00200400801606" width="7.663326653306612" height="7.663326653306612" rx="1.6859318637274547" fill="#f5a742" stroke="#0b1015" stroke-width="0.35"/><rect x="171.43486973947893" y="241.00200400801606" width="7.663326653306612" height="7.663326653306612" rx="1.6859318637274547" fill="#f5a742" stroke="#0b1015" stroke-width="0.35"/><rect x="156.10821643286573" y="241.00200400801606" width="7.663326653306612" height="7.663326653306612" rx="1.6859318637274547" fill="#f5a742" stroke="#0b1015" stroke-width="0.35"/><rect x="278.7214428857715" y="225.67535070140286" width="7.663326653306612" height="7.663326653306612" rx="1.6859318637274547" fill="#f5a742" stroke="#0b1015" stroke-width="0.35"/><rect x="263.39478957915827" y="225.67535070140286" width="7.663326653306612" height="7.663326653306612" rx="1.6859318637274547" fill="#f5a742" stroke="#0b1015" stroke-width="0.35"/><rect x="248.06813627254505" y="225.67535070140286" width="7.663326653306612" height="7.663326653306612" rx="1.6859318637274547" fill="#f5a742" stroke="#0b1015" stroke-width="0.35"/><rect x="186.76152304609215" y="225.67535070140286" width="7.663326653306612" height="7.663326653306612" rx="1.6859318637274547" fill="#f5a742" stroke="#0b1015" stroke-width="0.35"/><rect x="171.43486973947893" y="225.67535070140286" width="7.663326653306612" height="7.663326653306612" rx="1.6859318637274547" fill="#f5a742" stroke="#0b1015" stroke-width="0.35"/><rect x="156.10821643286573" y="225.67535070140286" width="7.663326653306612" height="7.663326653306612" rx="1.6859318637274547" fill="#f5a742" stroke="#0b1015" stroke-width="0.35"/><rect x="278.7214428857715" y="210.3486973947896" width="7.663326653306612" height="7.663326653306612" rx="1.6859318637274547" fill="#f5a742" stroke="#0b1015" stroke-width="0.35"/><rect x="263.39478957915827" y="210.3486973947896" width="7.663326653306612" height="7.663326653306612" rx="1.6859318637274547" fill="#f5a742" stroke="#0b1015" stroke-width="0.35"/><rect x="248.06813627254505" y="210.3486973947896" width="7.663326653306612" height="7.663326653306612" rx="1.6859318637274547" fill="#f5a742" stroke="#0b1015" stroke-width="0.35"/><rect x="186.76152304609215" y="210.3486973947896" width="7.663326653306612" height="7.663326653306612" rx="1.6859318637274547" fill="#f5a742" stroke="#0b1015" stroke-width="0.35"/><rect x="171.43486973947893" y="210.3486973947896" width="7.663326653306612" height="7.663326653306612" rx="1.6859318637274547" fill="#f5a742" stroke="#0b1015" stroke-width="0.35"/><rect x="156.10821643286573" y="210.3486973947896" width="7.663326653306612" height="7.663326653306612" rx="1.6859318637274547" fill="#f5a742" stroke="#0b1015" stroke-width="0.35"/><rect x="278.7214428857715" y="195.02204408817641" width="7.663326653306612" height="7.663326653306612" rx="1.6859318637274547" fill="#f5a742" stroke="#0b1015" stroke-width="0.35"/><rect x="263.39478957915827" y="195.02204408817641" width="7.663326653306612" height="7.663326653306612" rx="1.6859318637274547" fill="#f5a742" stroke="#0b1015" stroke-width="0.35"/><rect x="248.06813627254505" y="195.02204408817641" width="7.663326653306612" height="7.663326653306612" rx="1.6859318637274547" fill="#f5a742" stroke="#0b1015" stroke-width="0.35"/><rect x="186.76152304609215" y="195.02204408817641" width="7.663326653306612" height="7.663326653306612" rx="1.6859318637274547" fill="#f5a742" stroke="#0b1015" stroke-width="0.35"/><rect x="171.43486973947893" y="195.02204408817641" width="7.663326653306612" height="7.663326653306612" rx="1.6859318637274547" fill="#f5a742" stroke="#0b1015" stroke-width="0.35"/><rect x="156.10821643286573" y="195.02204408817641" width="7.663326653306612" height="7.663326653306612" rx="1.6859318637274547" fill="#f5a742" stroke="#0b1015" stroke-width="0.35"/><rect x="278.7214428857715" y="179.69539078156322" width="7.663326653306612" height="7.663326653306612" rx="1.6859318637274547" fill="#f5a742" stroke="#0b1015" stroke-width="0.35"/><rect x="263.39478957915827" y="179.69539078156322" width="7.663326653306612" height="7.663326653306612" rx="1.6859318637274547" fill="#f5a742" stroke="#0b1015" stroke-width="0.35"/><rect x="248.06813627254505" y="179.69539078156322" width="7.663326653306612" height="7.663326653306612" rx="1.6859318637274547" fill="#f5a742" stroke="#0b1015" stroke-width="0.35"/><rect x="186.76152304609215" y="179.69539078156322" width="7.663326653306612" height="7.663326653306612" rx="1.6859318637274547" fill="#f5a742" stroke="#0b1015" stroke-width="0.35"/><rect x="171.43486973947893" y="179.69539078156322" width="7.663326653306612" height="7.663326653306612" rx="1.6859318637274547" fill="#f5a742" stroke="#0b1015" stroke-width="0.35"/><rect x="156.10821643286573" y="179.69539078156322" width="7.663326653306612" height="7.663326653306612" rx="1.6859318637274547" fill="#f5a742" stroke="#0b1015" stroke-width="0.35"/><rect x="836.2284569138276" y="486.22845691382764" width="7.663326653306612" height="7.663326653306612" rx="1.6859318637274547" fill="#4d8cc9" stroke="#0b1015" stroke-width="0.35"/><rect x="820.9018036072144" y="486.22845691382764" width="7.663326653306612" height="7.663326653306612" rx="1.6859318637274547" fill="#4d8cc9" stroke="#0b1015" stroke-width="0.35"/><rect x="805.5751503006012" y="486.22845691382764" width="7.663326653306612" height="7.663326653306612" rx="1.6859318637274547" fill="#4d8cc9" stroke="#0b1015" stroke-width="0.35"/><rect x="790.2484969939878" y="486.22845691382764" width="7.663326653306612" height="7.663326653306612" rx="1.6859318637274547" fill="#4d8cc9" stroke="#0b1015" stroke-width="0.35"/><rect x="774.9218436873747" y="486.22845691382764" width="7.663326653306612" height="7.663326653306612" rx="1.6859318637274547" fill="#4d8cc9" stroke="#0b1015" stroke-width="0.35"/><rect x="759.5951903807616" y="486.22845691382764" width="7.663326653306612" height="7.663326653306612" rx="1.6859318637274547" fill="#4d8cc9" stroke="#0b1015" stroke-width="0.35"/><rect x="744.2685370741483" y="486.22845691382764" width="7.663326653306612" height="7.663326653306612" rx="1.6859318637274547" fill="#4d8cc9" stroke="#0b1015" stroke-width="0.35"/><rect x="728.941883767535" y="486.22845691382764" width="7.663326653306612" height="7.663326653306612" rx="1.6859318637274547" fill="#4d8cc9" stroke="#0b1015" stroke-width="0.35"/><rect x="713.6152304609217" y="486.22845691382764" width="7.663326653306612" height="7.663326653306612" rx="1.6859318637274547" fill="#4d8cc9" stroke="#0b1015" stroke-width="0.35"/><rect x="698.2885771543085" y="486.22845691382764" width="7.663326653306612" height="7.663326653306612" rx="1.6859318637274547" fill="#4d8cc9" stroke="#0b1015" stroke-width="0.35"/><rect x="682.9619238476954" y="486.22845691382764" width="7.663326653306612" height="7.663326653306612" rx="1.6859318637274547" fill="#4d8cc9" stroke="#0b1015" stroke-width="0.35"/><rect x="667.635270541082" y="486.22845691382764" width="7.663326653306612" height="7.663326653306612" rx="1.6859318637274547" fill="#4d8cc9" stroke="#0b1015" stroke-width="0.35"/><rect x="652.3086172344689" y="486.22845691382764" width="7.663326653306612" height="7.663326653306612" rx="1.6859318637274547" fill="#4d8cc9" stroke="#0b1015" stroke-width="0.35"/><rect x="636.9819639278556" y="486.22845691382764" width="7.663326653306612" height="7.663326653306612" rx="1.6859318637274547" fill="#4d8cc9" stroke="#0b1015" stroke-width="0.35"/><rect x="621.6553106212424" y="486.22845691382764" width="7.663326653306612" height="7.663326653306612" rx="1.6859318637274547" fill="#4d8cc9" stroke="#0b1015" stroke-width="0.35"/><rect x="606.3286573146293" y="486.22845691382764" width="7.663326653306612" height="7.663326653306612" rx="1.6859318637274547" fill="#4d8cc9" stroke="#0b1015" stroke-width="0.35"/><rect x="591.002004008016" y="486.22845691382764" width="7.663326653306612" height="7.663326653306612" rx="1.6859318637274547" fill="#4d8cc9" stroke="#0b1015" stroke-width="0.35"/><rect x="575.6753507014027" y="486.22845691382764" width="7.663326653306612" height="7.663326653306612" rx="1.6859318637274547" fill="#4d8cc9" stroke="#0b1015" stroke-width="0.35"/><rect x="560.3486973947896" y="486.22845691382764" width="7.663326653306612" height="7.663326653306612" rx="1.6859318637274547" fill="#4d8cc9" stroke="#0b1015" stroke-width="0.35"/><rect x="545.0220440881764" y="486.22845691382764" width="7.663326653306612" height="7.663326653306612" rx="1.6859318637274547" fill="#4d8cc9" stroke="#0b1015" stroke-width="0.35"/><rect x="836.2284569138276" y="470.90180360721445" width="7.663326653306612" height="7.663326653306612" rx="1.6859318637274547" fill="#4d8cc9" stroke="#0b1015" stroke-width="0.35"/><rect x="820.9018036072144" y="470.90180360721445" width="7.663326653306612" height="7.663326653306612" rx="1.6859318637274547" fill="#4d8cc9" stroke="#0b1015" stroke-width="0.35"/><rect x="805.5751503006012" y="470.90180360721445" width="7.663326653306612" height="7.663326653306612" rx="1.6859318637274547" fill="#4d8cc9" stroke="#0b1015" stroke-width="0.35"/><rect x="790.2484969939878" y="470.90180360721445" width="7.663326653306612" height="7.663326653306612" rx="1.6859318637274547" fill="#4d8cc9" stroke="#0b1015" stroke-width="0.35"/><rect x="774.9218436873747" y="470.90180360721445" width="7.663326653306612" height="7.663326653306612" rx="1.6859318637274547" fill="#4d8cc9" stroke="#0b1015" stroke-width="0.35"/><rect x="759.5951903807616" y="470.90180360721445" width="7.663326653306612" height="7.663326653306612" rx="1.6859318637274547" fill="#4d8cc9" stroke="#0b1015" stroke-width="0.35"/><rect x="744.2685370741483" y="470.90180360721445" width="7.663326653306612" height="7.663326653306612" rx="1.6859318637274547" fill="#4d8cc9" stroke="#0b1015" stroke-width="0.35"/><rect x="728.941883767535" y="470.90180360721445" width="7.663326653306612" height="7.663326653306612" rx="1.6859318637274547" fill="#4d8cc9" stroke="#0b1015" stroke-width="0.35"/><rect x="713.6152304609217" y="470.90180360721445" width="7.663326653306612" height="7.663326653306612" rx="1.6859318637274547" fill="#4d8cc9" stroke="#0b1015" stroke-width="0.35"/><rect x="698.2885771543085" y="470.90180360721445" width="7.663326653306612" height="7.663326653306612" rx="1.6859318637274547" fill="#4d8cc9" stroke="#0b1015" stroke-width="0.35"/><rect x="682.9619238476954" y="470.90180360721445" width="7.663326653306612" height="7.663326653306612" rx="1.6859318637274547" fill="#4d8cc9" stroke="#0b1015" stroke-width="0.35"/><rect x="667.635270541082" y="470.90180360721445" width="7.663326653306612" height="7.663326653306612" rx="1.6859318637274547" fill="#4d8cc9" stroke="#0b1015" stroke-width="0.35"/><rect x="652.3086172344689" y="470.90180360721445" width="7.663326653306612" height="7.663326653306612" rx="1.6859318637274547" fill="#4d8cc9" stroke="#0b1015" stroke-width="0.35"/><rect x="636.9819639278556" y="470.90180360721445" width="7.663326653306612" height="7.663326653306612" rx="1.6859318637274547" fill="#4d8cc9" stroke="#0b1015" stroke-width="0.35"/><rect x="621.6553106212424" y="470.90180360721445" width="7.663326653306612" height="7.663326653306612" rx="1.6859318637274547" fill="#4d8cc9" stroke="#0b1015" stroke-width="0.35"/><rect x="606.3286573146293" y="470.90180360721445" width="7.663326653306612" height="7.663326653306612" rx="1.6859318637274547" fill="#4d8cc9" stroke="#0b1015" stroke-width="0.35"/><rect x="591.002004008016" y="470.90180360721445" width="7.663326653306612" height="7.663326653306612" rx="1.6859318637274547" fill="#4d8cc9" stroke="#0b1015" stroke-width="0.35"/><rect x="575.6753507014027" y="470.90180360721445" width="7.663326653306612" height="7.663326653306612" rx="1.6859318637274547" fill="#4d8cc9" stroke="#0b1015" stroke-width="0.35"/><rect x="560.3486973947896" y="470.90180360721445" width="7.663326653306612" height="7.663326653306612" rx="1.6859318637274547" fill="#4d8cc9" stroke="#0b1015" stroke-width="0.35"/><rect x="545.0220440881764" y="470.90180360721445" width="7.663326653306612" height="7.663326653306612" rx="1.6859318637274547" fill="#4d8cc9" stroke="#0b1015" stroke-width="0.35"/><rect x="836.2284569138276" y="455.57515030060125" width="7.663326653306612" height="7.663326653306612" rx="1.6859318637274547" fill="#4d8cc9" stroke="#0b1015" stroke-width="0.35"/><rect x="820.9018036072144" y="455.57515030060125" width="7.663326653306612" height="7.663326653306612" rx="1.6859318637274547" fill="#4d8cc9" stroke="#0b1015" stroke-width="0.35"/><rect x="805.5751503006012" y="455.57515030060125" width="7.663326653306612" height="7.663326653306612" rx="1.6859318637274547" fill="#4d8cc9" stroke="#0b1015" stroke-width="0.35"/><rect x="790.2484969939878" y="455.57515030060125" width="7.663326653306612" height="7.663326653306612" rx="1.6859318637274547" fill="#4d8cc9" stroke="#0b1015" stroke-width="0.35"/><rect x="774.9218436873747" y="455.57515030060125" width="7.663326653306612" height="7.663326653306612" rx="1.6859318637274547" fill="#4d8cc9" stroke="#0b1015" stroke-width="0.35"/><rect x="759.5951903807616" y="455.57515030060125" width="7.663326653306612" height="7.663326653306612" rx="1.6859318637274547" fill="#4d8cc9" stroke="#0b1015" stroke-width="0.35"/><rect x="744.2685370741483" y="455.57515030060125" width="7.663326653306612" height="7.663326653306612" rx="1.6859318637274547" fill="#4d8cc9" stroke="#0b1015" stroke-width="0.35"/><rect x="728.941883767535" y="455.57515030060125" width="7.663326653306612" height="7.663326653306612" rx="1.6859318637274547" fill="#4d8cc9" stroke="#0b1015" stroke-width="0.35"/><rect x="713.6152304609217" y="455.57515030060125" width="7.663326653306612" height="7.663326653306612" rx="1.6859318637274547" fill="#4d8cc9" stroke="#0b1015" stroke-width="0.35"/><rect x="698.2885771543085" y="455.57515030060125" width="7.663326653306612" height="7.663326653306612" rx="1.6859318637274547" fill="#4d8cc9" stroke="#0b1015" stroke-width="0.35"/><rect x="682.9619238476954" y="455.57515030060125" width="7.663326653306612" height="7.663326653306612" rx="1.6859318637274547" fill="#4d8cc9" stroke="#0b1015" stroke-width="0.35"/><rect x="667.635270541082" y="455.57515030060125" width="7.663326653306612" height="7.663326653306612" rx="1.6859318637274547" fill="#4d8cc9" stroke="#0b1015" stroke-width="0.35"/><rect x="652.3086172344689" y="455.57515030060125" width="7.663326653306612" height="7.663326653306612" rx="1.6859318637274547" fill="#4d8cc9" stroke="#0b1015" stroke-width="0.35"/><rect x="636.9819639278556" y="455.57515030060125" width="7.663326653306612" height="7.663326653306612" rx="1.6859318637274547" fill="#4d8cc9" stroke="#0b1015" stroke-width="0.35"/><rect x="621.6553106212424" y="455.57515030060125" width="7.663326653306612" height="7.663326653306612" rx="1.6859318637274547" fill="#4d8cc9" stroke="#0b1015" stroke-width="0.35"/><rect x="606.3286573146293" y="455.57515030060125" width="7.663326653306612" height="7.663326653306612" rx="1.6859318637274547" fill="#4d8cc9" stroke="#0b1015" stroke-width="0.35"/><rect x="591.002004008016" y="455.57515030060125" width="7.663326653306612" height="7.663326653306612" rx="1.6859318637274547" fill="#4d8cc9" stroke="#0b1015" stroke-width="0.35"/><rect x="575.6753507014027" y="455.57515030060125" width="7.663326653306612" height="7.663326653306612" rx="1.6859318637274547" fill="#4d8cc9" stroke="#0b1015" stroke-width="0.35"/><rect x="560.3486973947896" y="455.57515030060125" width="7.663326653306612" height="7.663326653306612" rx="1.6859318637274547" fill="#4d8cc9" stroke="#0b1015" stroke-width="0.35"/><rect x="545.0220440881764" y="455.57515030060125" width="7.663326653306612" height="7.663326653306612" rx="1.6859318637274547" fill="#4d8cc9" stroke="#0b1015" stroke-width="0.35"/><rect x="836.2284569138276" y="440.248496993988" width="7.663326653306612" height="7.663326653306612" rx="1.6859318637274547" fill="#4d8cc9" stroke="#0b1015" stroke-width="0.35"/><rect x="820.9018036072144" y="440.248496993988" width="7.663326653306612" height="7.663326653306612" rx="1.6859318637274547" fill="#4d8cc9" stroke="#0b1015" stroke-width="0.35"/><rect x="805.5751503006012" y="440.248496993988" width="7.663326653306612" height="7.663326653306612" rx="1.6859318637274547" fill="#4d8cc9" stroke="#0b1015" stroke-width="0.35"/><rect x="790.2484969939878" y="440.248496993988" width="7.663326653306612" height="7.663326653306612" rx="1.6859318637274547" fill="#4d8cc9" stroke="#0b1015" stroke-width="0.35"/><rect x="774.9218436873747" y="440.248496993988" width="7.663326653306612" height="7.663326653306612" rx="1.6859318637274547" fill="#4d8cc9" stroke="#0b1015" stroke-width="0.35"/><rect x="759.5951903807616" y="440.248496993988" width="7.663326653306612" height="7.663326653306612" rx="1.6859318637274547" fill="#4d8cc9" stroke="#0b1015" stroke-width="0.35"/><rect x="744.2685370741483" y="440.248496993988" width="7.663326653306612" height="7.663326653306612" rx="1.6859318637274547" fill="#4d8cc9" stroke="#0b1015" stroke-width="0.35"/><rect x="728.941883767535" y="440.248496993988" width="7.663326653306612" height="7.663326653306612" rx="1.6859318637274547" fill="#4d8cc9" stroke="#0b1015" stroke-width="0.35"/><rect x="713.6152304609217" y="440.248496993988" width="7.663326653306612" height="7.663326653306612" rx="1.6859318637274547" fill="#4d8cc9" stroke="#0b1015" stroke-width="0.35"/><rect x="698.2885771543085" y="440.248496993988" width="7.663326653306612" height="7.663326653306612" rx="1.6859318637274547" fill="#4d8cc9" stroke="#0b1015" stroke-width="0.35"/><rect x="682.9619238476954" y="440.248496993988" width="7.663326653306612" height="7.663326653306612" rx="1.6859318637274547" fill="#4d8cc9" stroke="#0b1015" stroke-width="0.35"/><rect x="667.635270541082" y="440.248496993988" width="7.663326653306612" height="7.663326653306612" rx="1.6859318637274547" fill="#4d8cc9" stroke="#0b1015" stroke-width="0.35"/><rect x="652.3086172344689" y="440.248496993988" width="7.663326653306612" height="7.663326653306612" rx="1.6859318637274547" fill="#4d8cc9" stroke="#0b1015" stroke-width="0.35"/><rect x="636.9819639278556" y="440.248496993988" width="7.663326653306612" height="7.663326653306612" rx="1.6859318637274547" fill="#4d8cc9" stroke="#0b1015" stroke-width="0.35"/><rect x="621.6553106212424" y="440.248496993988" width="7.663326653306612" height="7.663326653306612" rx="1.6859318637274547" fill="#4d8cc9" stroke="#0b1015" stroke-width="0.35"/><rect x="606.3286573146293" y="440.248496993988" width="7.663326653306612" height="7.663326653306612" rx="1.6859318637274547" fill="#4d8cc9" stroke="#0b1015" stroke-width="0.35"/><rect x="591.002004008016" y="440.248496993988" width="7.663326653306612" height="7.663326653306612" rx="1.6859318637274547" fill="#4d8cc9" stroke="#0b1015" stroke-width="0.35"/><rect x="575.6753507014027" y="440.248496993988" width="7.663326653306612" height="7.663326653306612" rx="1.6859318637274547" fill="#4d8cc9" stroke="#0b1015" stroke-width="0.35"/><rect x="560.3486973947896" y="440.248496993988" width="7.663326653306612" height="7.663326653306612" rx="1.6859318637274547" fill="#4d8cc9" stroke="#0b1015" stroke-width="0.35"/><rect x="545.0220440881764" y="440.248496993988" width="7.663326653306612" height="7.663326653306612" rx="1.6859318637274547" fill="#4d8cc9" stroke="#0b1015" stroke-width="0.35"/><rect x="836.2284569138276" y="424.92184368737475" width="7.663326653306612" height="7.663326653306612" rx="1.6859318637274547" fill="#4d8cc9" stroke="#0b1015" stroke-width="0.35"/><rect x="820.9018036072144" y="424.92184368737475" width="7.663326653306612" height="7.663326653306612" rx="1.6859318637274547" fill="#4d8cc9" stroke="#0b1015" stroke-width="0.35"/><rect x="805.5751503006012" y="424.92184368737475" width="7.663326653306612" height="7.663326653306612" rx="1.6859318637274547" fill="#4d8cc9" stroke="#0b1015" stroke-width="0.35"/><rect x="790.2484969939878" y="424.92184368737475" width="7.663326653306612" height="7.663326653306612" rx="1.6859318637274547" fill="#4d8cc9" stroke="#0b1015" stroke-width="0.35"/><rect x="774.9218436873747" y="424.92184368737475" width="7.663326653306612" height="7.663326653306612" rx="1.6859318637274547" fill="#4d8cc9" stroke="#0b1015" stroke-width="0.35"/><rect x="759.5951903807616" y="424.92184368737475" width="7.663326653306612" height="7.663326653306612" rx="1.6859318637274547" fill="#4d8cc9" stroke="#0b1015" stroke-width="0.35"/><rect x="744.2685370741483" y="424.92184368737475" width="7.663326653306612" height="7.663326653306612" rx="1.6859318637274547" fill="#4d8cc9" stroke="#0b1015" stroke-width="0.35"/><rect x="728.941883767535" y="424.92184368737475" width="7.663326653306612" height="7.663326653306612" rx="1.6859318637274547" fill="#4d8cc9" stroke="#0b1015" stroke-width="0.35"/><rect x="713.6152304609217" y="424.92184368737475" width="7.663326653306612" height="7.663326653306612" rx="1.6859318637274547" fill="#4d8cc9" stroke="#0b1015" stroke-width="0.35"/><rect x="698.2885771543085" y="424.92184368737475" width="7.663326653306612" height="7.663326653306612" rx="1.6859318637274547" fill="#4d8cc9" stroke="#0b1015" stroke-width="0.35"/><rect x="682.9619238476954" y="424.92184368737475" width="7.663326653306612" height="7.663326653306612" rx="1.6859318637274547" fill="#4d8cc9" stroke="#0b1015" stroke-width="0.35"/><rect x="667.635270541082" y="424.92184368737475" width="7.663326653306612" height="7.663326653306612" rx="1.6859318637274547" fill="#4d8cc9" stroke="#0b1015" stroke-width="0.35"/><rect x="652.3086172344689" y="424.92184368737475" width="7.663326653306612" height="7.663326653306612" rx="1.6859318637274547" fill="#4d8cc9" stroke="#0b1015" stroke-width="0.35"/><rect x="636.9819639278556" y="424.92184368737475" width="7.663326653306612" height="7.663326653306612" rx="1.6859318637274547" fill="#4d8cc9" stroke="#0b1015" stroke-width="0.35"/><rect x="621.6553106212424" y="424.92184368737475" width="7.663326653306612" height="7.663326653306612" rx="1.6859318637274547" fill="#4d8cc9" stroke="#0b1015" stroke-width="0.35"/><rect x="606.3286573146293" y="424.92184368737475" width="7.663326653306612" height="7.663326653306612" rx="1.6859318637274547" fill="#4d8cc9" stroke="#0b1015" stroke-width="0.35"/><rect x="591.002004008016" y="424.92184368737475" width="7.663326653306612" height="7.663326653306612" rx="1.6859318637274547" fill="#4d8cc9" stroke="#0b1015" stroke-width="0.35"/><rect x="575.6753507014027" y="424.92184368737475" width="7.663326653306612" height="7.663326653306612" rx="1.6859318637274547" fill="#4d8cc9" stroke="#0b1015" stroke-width="0.35"/><rect x="560.3486973947896" y="424.92184368737475" width="7.663326653306612" height="7.663326653306612" rx="1.6859318637274547" fill="#4d8cc9" stroke="#0b1015" stroke-width="0.35"/><rect x="545.0220440881764" y="424.92184368737475" width="7.663326653306612" height="7.663326653306612" rx="1.6859318637274547" fill="#4d8cc9" stroke="#0b1015" stroke-width="0.35"/><rect x="836.2284569138276" y="409.59519038076155" width="7.663326653306612" height="7.663326653306612" rx="1.6859318637274547" fill="#4d8cc9" stroke="#0b1015" stroke-width="0.35"/><rect x="820.9018036072144" y="409.59519038076155" width="7.663326653306612" height="7.663326653306612" rx="1.6859318637274547" fill="#4d8cc9" stroke="#0b1015" stroke-width="0.35"/><rect x="805.5751503006012" y="409.59519038076155" width="7.663326653306612" height="7.663326653306612" rx="1.6859318637274547" fill="#4d8cc9" stroke="#0b1015" stroke-width="0.35"/><rect x="790.2484969939878" y="409.59519038076155" width="7.663326653306612" height="7.663326653306612" rx="1.6859318637274547" fill="#4d8cc9" stroke="#0b1015" stroke-width="0.35"/><rect x="774.9218436873747" y="409.59519038076155" width="7.663326653306612" height="7.663326653306612" rx="1.6859318637274547" fill="#4d8cc9" stroke="#0b1015" stroke-width="0.35"/><rect x="759.5951903807616" y="409.59519038076155" width="7.663326653306612" height="7.663326653306612" rx="1.6859318637274547" fill="#4d8cc9" stroke="#0b1015" stroke-width="0.35"/><rect x="744.2685370741483" y="409.59519038076155" width="7.663326653306612" height="7.663326653306612" rx="1.6859318637274547" fill="#4d8cc9" stroke="#0b1015" stroke-width="0.35"/><rect x="728.941883767535" y="409.59519038076155" width="7.663326653306612" height="7.663326653306612" rx="1.6859318637274547" fill="#4d8cc9" stroke="#0b1015" stroke-width="0.35"/><rect x="713.6152304609217" y="409.59519038076155" width="7.663326653306612" height="7.663326653306612" rx="1.6859318637274547" fill="#4d8cc9" stroke="#0b1015" stroke-width="0.35"/><rect x="698.2885771543085" y="409.59519038076155" width="7.663326653306612" height="7.663326653306612" rx="1.6859318637274547" fill="#4d8cc9" stroke="#0b1015" stroke-width="0.35"/><rect x="682.9619238476954" y="409.59519038076155" width="7.663326653306612" height="7.663326653306612" rx="1.6859318637274547" fill="#4d8cc9" stroke="#0b1015" stroke-width="0.35"/><rect x="667.635270541082" y="409.59519038076155" width="7.663326653306612" height="7.663326653306612" rx="1.6859318637274547" fill="#4d8cc9" stroke="#0b1015" stroke-width="0.35"/><rect x="652.3086172344689" y="409.59519038076155" width="7.663326653306612" height="7.663326653306612" rx="1.6859318637274547" fill="#4d8cc9" stroke="#0b1015" stroke-width="0.35"/><rect x="636.9819639278556" y="409.59519038076155" width="7.663326653306612" height="7.663326653306612" rx="1.6859318637274547" fill="#4d8cc9" stroke="#0b1015" stroke-width="0.35"/><rect x="621.6553106212424" y="409.59519038076155" width="7.663326653306612" height="7.663326653306612" rx="1.6859318637274547" fill="#4d8cc9" stroke="#0b1015" stroke-width="0.35"/><rect x="606.3286573146293" y="409.59519038076155" width="7.663326653306612" height="7.663326653306612" rx="1.6859318637274547" fill="#4d8cc9" stroke="#0b1015" stroke-width="0.35"/><rect x="591.002004008016" y="409.59519038076155" width="7.663326653306612" height="7.663326653306612" rx="1.6859318637274547" fill="#4d8cc9" stroke="#0b1015" stroke-width="0.35"/><rect x="575.6753507014027" y="409.59519038076155" width="7.663326653306612" height="7.663326653306612" rx="1.6859318637274547" fill="#4d8cc9" stroke="#0b1015" stroke-width="0.35"/><rect x="560.3486973947896" y="409.59519038076155" width="7.663326653306612" height="7.663326653306612" rx="1.6859318637274547" fill="#4d8cc9" stroke="#0b1015" stroke-width="0.35"/><rect x="545.0220440881764" y="409.59519038076155" width="7.663326653306612" height="7.663326653306612" rx="1.6859318637274547" fill="#4d8cc9" stroke="#0b1015" stroke-width="0.35"/><rect x="836.2284569138276" y="394.26853707414836" width="7.663326653306612" height="7.663326653306612" rx="1.6859318637274547" fill="#4d8cc9" stroke="#0b1015" stroke-width="0.35"/><rect x="820.9018036072144" y="394.26853707414836" width="7.663326653306612" height="7.663326653306612" rx="1.6859318637274547" fill="#4d8cc9" stroke="#0b1015" stroke-width="0.35"/><rect x="805.5751503006012" y="394.26853707414836" width="7.663326653306612" height="7.663326653306612" rx="1.6859318637274547" fill="#4d8cc9" stroke="#0b1015" stroke-width="0.35"/><rect x="790.2484969939878" y="394.26853707414836" width="7.663326653306612" height="7.663326653306612" rx="1.6859318637274547" fill="#4d8cc9" stroke="#0b1015" stroke-width="0.35"/><rect x="774.9218436873747" y="394.26853707414836" width="7.663326653306612" height="7.663326653306612" rx="1.6859318637274547" fill="#4d8cc9" stroke="#0b1015" stroke-width="0.35"/><rect x="759.5951903807616" y="394.26853707414836" width="7.663326653306612" height="7.663326653306612" rx="1.6859318637274547" fill="#4d8cc9" stroke="#0b1015" stroke-width="0.35"/><rect x="744.2685370741483" y="394.26853707414836" width="7.663326653306612" height="7.663326653306612" rx="1.6859318637274547" fill="#4d8cc9" stroke="#0b1015" stroke-width="0.35"/><rect x="728.941883767535" y="394.26853707414836" width="7.663326653306612" height="7.663326653306612" rx="1.6859318637274547" fill="#4d8cc9" stroke="#0b1015" stroke-width="0.35"/><rect x="713.6152304609217" y="394.26853707414836" width="7.663326653306612" height="7.663326653306612" rx="1.6859318637274547" fill="#4d8cc9" stroke="#0b1015" stroke-width="0.35"/><rect x="698.2885771543085" y="394.26853707414836" width="7.663326653306612" height="7.663326653306612" rx="1.6859318637274547" fill="#4d8cc9" stroke="#0b1015" stroke-width="0.35"/><rect x="682.9619238476954" y="394.26853707414836" width="7.663326653306612" height="7.663326653306612" rx="1.6859318637274547" fill="#4d8cc9" stroke="#0b1015" stroke-width="0.35"/><rect x="667.635270541082" y="394.26853707414836" width="7.663326653306612" height="7.663326653306612" rx="1.6859318637274547" fill="#4d8cc9" stroke="#0b1015" stroke-width="0.35"/><rect x="652.3086172344689" y="394.26853707414836" width="7.663326653306612" height="7.663326653306612" rx="1.6859318637274547" fill="#4d8cc9" stroke="#0b1015" stroke-width="0.35"/><rect x="636.9819639278556" y="394.26853707414836" width="7.663326653306612" height="7.663326653306612" rx="1.6859318637274547" fill="#4d8cc9" stroke="#0b1015" stroke-width="0.35"/><rect x="621.6553106212424" y="394.26853707414836" width="7.663326653306612" height="7.663326653306612" rx="1.6859318637274547" fill="#4d8cc9" stroke="#0b1015" stroke-width="0.35"/><rect x="606.3286573146293" y="394.26853707414836" width="7.663326653306612" height="7.663326653306612" rx="1.6859318637274547" fill="#4d8cc9" stroke="#0b1015" stroke-width="0.35"/><rect x="591.002004008016" y="394.26853707414836" width="7.663326653306612" height="7.663326653306612" rx="1.6859318637274547" fill="#4d8cc9" stroke="#0b1015" stroke-width="0.35"/><rect x="575.6753507014027" y="394.26853707414836" width="7.663326653306612" height="7.663326653306612" rx="1.6859318637274547" fill="#4d8cc9" stroke="#0b1015" stroke-width="0.35"/><rect x="560.3486973947896" y="394.26853707414836" width="7.663326653306612" height="7.663326653306612" rx="1.6859318637274547" fill="#4d8cc9" stroke="#0b1015" stroke-width="0.35"/><rect x="545.0220440881764" y="394.26853707414836" width="7.663326653306612" height="7.663326653306612" rx="1.6859318637274547" fill="#4d8cc9" stroke="#0b1015" stroke-width="0.35"/><rect x="836.2284569138276" y="378.9418837675351" width="7.663326653306612" height="7.663326653306612" rx="1.6859318637274547" fill="#4d8cc9" stroke="#0b1015" stroke-width="0.35"/><rect x="820.9018036072144" y="378.9418837675351" width="7.663326653306612" height="7.663326653306612" rx="1.6859318637274547" fill="#4d8cc9" stroke="#0b1015" stroke-width="0.35"/><rect x="805.5751503006012" y="378.9418837675351" width="7.663326653306612" height="7.663326653306612" rx="1.6859318637274547" fill="#4d8cc9" stroke="#0b1015" stroke-width="0.35"/><rect x="790.2484969939878" y="378.9418837675351" width="7.663326653306612" height="7.663326653306612" rx="1.6859318637274547" fill="#4d8cc9" stroke="#0b1015" stroke-width="0.35"/><rect x="774.9218436873747" y="378.9418837675351" width="7.663326653306612" height="7.663326653306612" rx="1.6859318637274547" fill="#4d8cc9" stroke="#0b1015" stroke-width="0.35"/><rect x="759.5951903807616" y="378.9418837675351" width="7.663326653306612" height="7.663326653306612" rx="1.6859318637274547" fill="#4d8cc9" stroke="#0b1015" stroke-width="0.35"/><rect x="744.2685370741483" y="378.9418837675351" width="7.663326653306612" height="7.663326653306612" rx="1.6859318637274547" fill="#4d8cc9" stroke="#0b1015" stroke-width="0.35"/><rect x="728.941883767535" y="378.9418837675351" width="7.663326653306612" height="7.663326653306612" rx="1.6859318637274547" fill="#4d8cc9" stroke="#0b1015" stroke-width="0.35"/><rect x="713.6152304609217" y="378.9418837675351" width="7.663326653306612" height="7.663326653306612" rx="1.6859318637274547" fill="#4d8cc9" stroke="#0b1015" stroke-width="0.35"/><rect x="698.2885771543085" y="378.9418837675351" width="7.663326653306612" height="7.663326653306612" rx="1.6859318637274547" fill="#4d8cc9" stroke="#0b1015" stroke-width="0.35"/><rect x="682.9619238476954" y="378.9418837675351" width="7.663326653306612" height="7.663326653306612" rx="1.6859318637274547" fill="#4d8cc9" stroke="#0b1015" stroke-width="0.35"/><rect x="667.635270541082" y="378.9418837675351" width="7.663326653306612" height="7.663326653306612" rx="1.6859318637274547" fill="#4d8cc9" stroke="#0b1015" stroke-width="0.35"/><rect x="652.3086172344689" y="378.9418837675351" width="7.663326653306612" height="7.663326653306612" rx="1.6859318637274547" fill="#4d8cc9" stroke="#0b1015" stroke-width="0.35"/><rect x="636.9819639278556" y="378.9418837675351" width="7.663326653306612" height="7.663326653306612" rx="1.6859318637274547" fill="#4d8cc9" stroke="#0b1015" stroke-width="0.35"/><rect x="621.6553106212424" y="378.9418837675351" width="7.663326653306612" height="7.663326653306612" rx="1.6859318637274547" fill="#4d8cc9" stroke="#0b1015" stroke-width="0.35"/><rect x="606.3286573146293" y="378.9418837675351" width="7.663326653306612" height="7.663326653306612" rx="1.6859318637274547" fill="#4d8cc9" stroke="#0b1015" stroke-width="0.35"/><rect x="591.002004008016" y="378.9418837675351" width="7.663326653306612" height="7.663326653306612" rx="1.6859318637274547" fill="#4d8cc9" stroke="#0b1015" stroke-width="0.35"/><rect x="575.6753507014027" y="378.9418837675351" width="7.663326653306612" height="7.663326653306612" rx="1.6859318637274547" fill="#4d8cc9" stroke="#0b1015" stroke-width="0.35"/><rect x="560.3486973947896" y="378.9418837675351" width="7.663326653306612" height="7.663326653306612" rx="1.6859318637274547" fill="#4d8cc9" stroke="#0b1015" stroke-width="0.35"/><rect x="545.0220440881764" y="378.9418837675351" width="7.663326653306612" height="7.663326653306612" rx="1.6859318637274547" fill="#4d8cc9" stroke="#0b1015" stroke-width="0.35"/><rect x="836.2284569138276" y="363.6152304609219" width="7.663326653306612" height="7.663326653306612" rx="1.6859318637274547" fill="#4d8cc9" stroke="#0b1015" stroke-width="0.35"/><rect x="820.9018036072144" y="363.6152304609219" width="7.663326653306612" height="7.663326653306612" rx="1.6859318637274547" fill="#4d8cc9" stroke="#0b1015" stroke-width="0.35"/><rect x="805.5751503006012" y="363.6152304609219" width="7.663326653306612" height="7.663326653306612" rx="1.6859318637274547" fill="#4d8cc9" stroke="#0b1015" stroke-width="0.35"/><rect x="790.2484969939878" y="363.6152304609219" width="7.663326653306612" height="7.663326653306612" rx="1.6859318637274547" fill="#4d8cc9" stroke="#0b1015" stroke-width="0.35"/><rect x="774.9218436873747" y="363.6152304609219" width="7.663326653306612" height="7.663326653306612" rx="1.6859318637274547" fill="#4d8cc9" stroke="#0b1015" stroke-width="0.35"/><rect x="759.5951903807616" y="363.6152304609219" width="7.663326653306612" height="7.663326653306612" rx="1.6859318637274547" fill="#4d8cc9" stroke="#0b1015" stroke-width="0.35"/><rect x="744.2685370741483" y="363.6152304609219" width="7.663326653306612" height="7.663326653306612" rx="1.6859318637274547" fill="#4d8cc9" stroke="#0b1015" stroke-width="0.35"/><rect x="728.941883767535" y="363.6152304609219" width="7.663326653306612" height="7.663326653306612" rx="1.6859318637274547" fill="#4d8cc9" stroke="#0b1015" stroke-width="0.35"/><rect x="713.6152304609217" y="363.6152304609219" width="7.663326653306612" height="7.663326653306612" rx="1.6859318637274547" fill="#4d8cc9" stroke="#0b1015" stroke-width="0.35"/><rect x="698.2885771543085" y="363.6152304609219" width="7.663326653306612" height="7.663326653306612" rx="1.6859318637274547" fill="#4d8cc9" stroke="#0b1015" stroke-width="0.35"/><rect x="682.9619238476954" y="363.6152304609219" width="7.663326653306612" height="7.663326653306612" rx="1.6859318637274547" fill="#4d8cc9" stroke="#0b1015" stroke-width="0.35"/><rect x="667.635270541082" y="363.6152304609219" width="7.663326653306612" height="7.663326653306612" rx="1.6859318637274547" fill="#4d8cc9" stroke="#0b1015" stroke-width="0.35"/><rect x="652.3086172344689" y="363.6152304609219" width="7.663326653306612" height="7.663326653306612" rx="1.6859318637274547" fill="#4d8cc9" stroke="#0b1015" stroke-width="0.35"/><rect x="636.9819639278556" y="363.6152304609219" width="7.663326653306612" height="7.663326653306612" rx="1.6859318637274547" fill="#4d8cc9" stroke="#0b1015" stroke-width="0.35"/><rect x="621.6553106212424" y="363.6152304609219" width="7.663326653306612" height="7.663326653306612" rx="1.6859318637274547" fill="#4d8cc9" stroke="#0b1015" stroke-width="0.35"/><rect x="606.3286573146293" y="363.6152304609219" width="7.663326653306612" height="7.663326653306612" rx="1.6859318637274547" fill="#4d8cc9" stroke="#0b1015" stroke-width="0.35"/><rect x="591.002004008016" y="363.6152304609219" width="7.663326653306612" height="7.663326653306612" rx="1.6859318637274547" fill="#4d8cc9" stroke="#0b1015" stroke-width="0.35"/><rect x="575.6753507014027" y="363.6152304609219" width="7.663326653306612" height="7.663326653306612" rx="1.6859318637274547" fill="#4d8cc9" stroke="#0b1015" stroke-width="0.35"/><rect x="560.3486973947896" y="363.6152304609219" width="7.663326653306612" height="7.663326653306612" rx="1.6859318637274547" fill="#4d8cc9" stroke="#0b1015" stroke-width="0.35"/><rect x="545.0220440881764" y="363.6152304609219" width="7.663326653306612" height="7.663326653306612" rx="1.6859318637274547" fill="#4d8cc9" stroke="#0b1015" stroke-width="0.35"/><rect x="836.2284569138276" y="348.28857715430865" width="7.663326653306612" height="7.663326653306612" rx="1.6859318637274547" fill="#4d8cc9" stroke="#0b1015" stroke-width="0.35"/><rect x="820.9018036072144" y="348.28857715430865" width="7.663326653306612" height="7.663326653306612" rx="1.6859318637274547" fill="#4d8cc9" stroke="#0b1015" stroke-width="0.35"/><rect x="805.5751503006012" y="348.28857715430865" width="7.663326653306612" height="7.663326653306612" rx="1.6859318637274547" fill="#4d8cc9" stroke="#0b1015" stroke-width="0.35"/><rect x="790.2484969939878" y="348.28857715430865" width="7.663326653306612" height="7.663326653306612" rx="1.6859318637274547" fill="#4d8cc9" stroke="#0b1015" stroke-width="0.35"/><rect x="774.9218436873747" y="348.28857715430865" width="7.663326653306612" height="7.663326653306612" rx="1.6859318637274547" fill="#4d8cc9" stroke="#0b1015" stroke-width="0.35"/><rect x="759.5951903807616" y="348.28857715430865" width="7.663326653306612" height="7.663326653306612" rx="1.6859318637274547" fill="#4d8cc9" stroke="#0b1015" stroke-width="0.35"/><rect x="744.2685370741483" y="348.28857715430865" width="7.663326653306612" height="7.663326653306612" rx="1.6859318637274547" fill="#4d8cc9" stroke="#0b1015" stroke-width="0.35"/><rect x="728.941883767535" y="348.28857715430865" width="7.663326653306612" height="7.663326653306612" rx="1.6859318637274547" fill="#4d8cc9" stroke="#0b1015" stroke-width="0.35"/><rect x="713.6152304609217" y="348.28857715430865" width="7.663326653306612" height="7.663326653306612" rx="1.6859318637274547" fill="#4d8cc9" stroke="#0b1015" stroke-width="0.35"/><rect x="698.2885771543085" y="348.28857715430865" width="7.663326653306612" height="7.663326653306612" rx="1.6859318637274547" fill="#4d8cc9" stroke="#0b1015" stroke-width="0.35"/><rect x="682.9619238476954" y="348.28857715430865" width="7.663326653306612" height="7.663326653306612" rx="1.6859318637274547" fill="#4d8cc9" stroke="#0b1015" stroke-width="0.35"/><rect x="667.635270541082" y="348.28857715430865" width="7.663326653306612" height="7.663326653306612" rx="1.6859318637274547" fill="#4d8cc9" stroke="#0b1015" stroke-width="0.35"/><rect x="652.3086172344689" y="348.28857715430865" width="7.663326653306612" height="7.663326653306612" rx="1.6859318637274547" fill="#4d8cc9" stroke="#0b1015" stroke-width="0.35"/><rect x="636.9819639278556" y="348.28857715430865" width="7.663326653306612" height="7.663326653306612" rx="1.6859318637274547" fill="#4d8cc9" stroke="#0b1015" stroke-width="0.35"/><rect x="621.6553106212424" y="348.28857715430865" width="7.663326653306612" height="7.663326653306612" rx="1.6859318637274547" fill="#4d8cc9" stroke="#0b1015" stroke-width="0.35"/><rect x="606.3286573146293" y="348.28857715430865" width="7.663326653306612" height="7.663326653306612" rx="1.6859318637274547" fill="#4d8cc9" stroke="#0b1015" stroke-width="0.35"/><rect x="591.002004008016" y="348.28857715430865" width="7.663326653306612" height="7.663326653306612" rx="1.6859318637274547" fill="#4d8cc9" stroke="#0b1015" stroke-width="0.35"/><rect x="575.6753507014027" y="348.28857715430865" width="7.663326653306612" height="7.663326653306612" rx="1.6859318637274547" fill="#4d8cc9" stroke="#0b1015" stroke-width="0.35"/><rect x="560.3486973947896" y="348.28857715430865" width="7.663326653306612" height="7.663326653306612" rx="1.6859318637274547" fill="#4d8cc9" stroke="#0b1015" stroke-width="0.35"/><rect x="545.0220440881764" y="348.28857715430865" width="7.663326653306612" height="7.663326653306612" rx="1.6859318637274547" fill="#4d8cc9" stroke="#0b1015" stroke-width="0.35"/><rect x="836.2284569138276" y="332.96192384769546" width="7.663326653306612" height="7.663326653306612" rx="1.6859318637274547" fill="#4d8cc9" stroke="#0b1015" stroke-width="0.35"/><rect x="820.9018036072144" y="332.96192384769546" width="7.663326653306612" height="7.663326653306612" rx="1.6859318637274547" fill="#4d8cc9" stroke="#0b1015" stroke-width="0.35"/><rect x="805.5751503006012" y="332.96192384769546" width="7.663326653306612" height="7.663326653306612" rx="1.6859318637274547" fill="#4d8cc9" stroke="#0b1015" stroke-width="0.35"/><rect x="790.2484969939878" y="332.96192384769546" width="7.663326653306612" height="7.663326653306612" rx="1.6859318637274547" fill="#4d8cc9" stroke="#0b1015" stroke-width="0.35"/><rect x="774.9218436873747" y="332.96192384769546" width="7.663326653306612" height="7.663326653306612" rx="1.6859318637274547" fill="#4d8cc9" stroke="#0b1015" stroke-width="0.35"/><rect x="759.5951903807616" y="332.96192384769546" width="7.663326653306612" height="7.663326653306612" rx="1.6859318637274547" fill="#4d8cc9" stroke="#0b1015" stroke-width="0.35"/><rect x="744.2685370741483" y="332.96192384769546" width="7.663326653306612" height="7.663326653306612" rx="1.6859318637274547" fill="#4d8cc9" stroke="#0b1015" stroke-width="0.35"/><rect x="728.941883767535" y="332.96192384769546" width="7.663326653306612" height="7.663326653306612" rx="1.6859318637274547" fill="#4d8cc9" stroke="#0b1015" stroke-width="0.35"/><rect x="713.6152304609217" y="332.96192384769546" width="7.663326653306612" height="7.663326653306612" rx="1.6859318637274547" fill="#4d8cc9" stroke="#0b1015" stroke-width="0.35"/><rect x="698.2885771543085" y="332.96192384769546" width="7.663326653306612" height="7.663326653306612" rx="1.6859318637274547" fill="#4d8cc9" stroke="#0b1015" stroke-width="0.35"/><rect x="682.9619238476954" y="332.96192384769546" width="7.663326653306612" height="7.663326653306612" rx="1.6859318637274547" fill="#4d8cc9" stroke="#0b1015" stroke-width="0.35"/><rect x="667.635270541082" y="332.96192384769546" width="7.663326653306612" height="7.663326653306612" rx="1.6859318637274547" fill="#4d8cc9" stroke="#0b1015" stroke-width="0.35"/><rect x="652.3086172344689" y="332.96192384769546" width="7.663326653306612" height="7.663326653306612" rx="1.6859318637274547" fill="#4d8cc9" stroke="#0b1015" stroke-width="0.35"/><rect x="636.9819639278556" y="332.96192384769546" width="7.663326653306612" height="7.663326653306612" rx="1.6859318637274547" fill="#4d8cc9" stroke="#0b1015" stroke-width="0.35"/><rect x="621.6553106212424" y="332.96192384769546" width="7.663326653306612" height="7.663326653306612" rx="1.6859318637274547" fill="#4d8cc9" stroke="#0b1015" stroke-width="0.35"/><rect x="606.3286573146293" y="332.96192384769546" width="7.663326653306612" height="7.663326653306612" rx="1.6859318637274547" fill="#4d8cc9" stroke="#0b1015" stroke-width="0.35"/><rect x="591.002004008016" y="332.96192384769546" width="7.663326653306612" height="7.663326653306612" rx="1.6859318637274547" fill="#4d8cc9" stroke="#0b1015" stroke-width="0.35"/><rect x="575.6753507014027" y="332.96192384769546" width="7.663326653306612" height="7.663326653306612" rx="1.6859318637274547" fill="#4d8cc9" stroke="#0b1015" stroke-width="0.35"/><rect x="560.3486973947896" y="332.96192384769546" width="7.663326653306612" height="7.663326653306612" rx="1.6859318637274547" fill="#4d8cc9" stroke="#0b1015" stroke-width="0.35"/><rect x="545.0220440881764" y="332.96192384769546" width="7.663326653306612" height="7.663326653306612" rx="1.6859318637274547" fill="#4d8cc9" stroke="#0b1015" stroke-width="0.35"/><rect x="836.2284569138276" y="317.6352705410822" width="7.663326653306612" height="7.663326653306612" rx="1.6859318637274547" fill="#4d8cc9" stroke="#0b1015" stroke-width="0.35"/><rect x="820.9018036072144" y="317.6352705410822" width="7.663326653306612" height="7.663326653306612" rx="1.6859318637274547" fill="#4d8cc9" stroke="#0b1015" stroke-width="0.35"/><rect x="805.5751503006012" y="317.6352705410822" width="7.663326653306612" height="7.663326653306612" rx="1.6859318637274547" fill="#4d8cc9" stroke="#0b1015" stroke-width="0.35"/><rect x="790.2484969939878" y="317.6352705410822" width="7.663326653306612" height="7.663326653306612" rx="1.6859318637274547" fill="#4d8cc9" stroke="#0b1015" stroke-width="0.35"/><rect x="774.9218436873747" y="317.6352705410822" width="7.663326653306612" height="7.663326653306612" rx="1.6859318637274547" fill="#4d8cc9" stroke="#0b1015" stroke-width="0.35"/><rect x="759.5951903807616" y="317.6352705410822" width="7.663326653306612" height="7.663326653306612" rx="1.6859318637274547" fill="#4d8cc9" stroke="#0b1015" stroke-width="0.35"/><rect x="744.2685370741483" y="317.6352705410822" width="7.663326653306612" height="7.663326653306612" rx="1.6859318637274547" fill="#4d8cc9" stroke="#0b1015" stroke-width="0.35"/><rect x="728.941883767535" y="317.6352705410822" width="7.663326653306612" height="7.663326653306612" rx="1.6859318637274547" fill="#4d8cc9" stroke="#0b1015" stroke-width="0.35"/><rect x="713.6152304609217" y="317.6352705410822" width="7.663326653306612" height="7.663326653306612" rx="1.6859318637274547" fill="#4d8cc9" stroke="#0b1015" stroke-width="0.35"/><rect x="698.2885771543085" y="317.6352705410822" width="7.663326653306612" height="7.663326653306612" rx="1.6859318637274547" fill="#4d8cc9" stroke="#0b1015" stroke-width="0.35"/><rect x="682.9619238476954" y="317.6352705410822" width="7.663326653306612" height="7.663326653306612" rx="1.6859318637274547" fill="#4d8cc9" stroke="#0b1015" stroke-width="0.35"/><rect x="667.635270541082" y="317.6352705410822" width="7.663326653306612" height="7.663326653306612" rx="1.6859318637274547" fill="#4d8cc9" stroke="#0b1015" stroke-width="0.35"/><rect x="652.3086172344689" y="317.6352705410822" width="7.663326653306612" height="7.663326653306612" rx="1.6859318637274547" fill="#4d8cc9" stroke="#0b1015" stroke-width="0.35"/><rect x="636.9819639278556" y="317.6352705410822" width="7.663326653306612" height="7.663326653306612" rx="1.6859318637274547" fill="#4d8cc9" stroke="#0b1015" stroke-width="0.35"/><rect x="621.6553106212424" y="317.6352705410822" width="7.663326653306612" height="7.663326653306612" rx="1.6859318637274547" fill="#4d8cc9" stroke="#0b1015" stroke-width="0.35"/><rect x="606.3286573146293" y="317.6352705410822" width="7.663326653306612" height="7.663326653306612" rx="1.6859318637274547" fill="#4d8cc9" stroke="#0b1015" stroke-width="0.35"/><rect x="591.002004008016" y="317.6352705410822" width="7.663326653306612" height="7.663326653306612" rx="1.6859318637274547" fill="#4d8cc9" stroke="#0b1015" stroke-width="0.35"/><rect x="575.6753507014027" y="317.6352705410822" width="7.663326653306612" height="7.663326653306612" rx="1.6859318637274547" fill="#4d8cc9" stroke="#0b1015" stroke-width="0.35"/><rect x="560.3486973947896" y="317.6352705410822" width="7.663326653306612" height="7.663326653306612" rx="1.6859318637274547" fill="#4d8cc9" stroke="#0b1015" stroke-width="0.35"/><rect x="545.0220440881764" y="317.6352705410822" width="7.663326653306612" height="7.663326653306612" rx="1.6859318637274547" fill="#4d8cc9" stroke="#0b1015" stroke-width="0.35"/><rect x="836.2284569138276" y="302.30861723446895" width="7.663326653306612" height="7.663326653306612" rx="1.6859318637274547" fill="#4d8cc9" stroke="#0b1015" stroke-width="0.35"/><rect x="820.9018036072144" y="302.30861723446895" width="7.663326653306612" height="7.663326653306612" rx="1.6859318637274547" fill="#4d8cc9" stroke="#0b1015" stroke-width="0.35"/><rect x="805.5751503006012" y="302.30861723446895" width="7.663326653306612" height="7.663326653306612" rx="1.6859318637274547" fill="#4d8cc9" stroke="#0b1015" stroke-width="0.35"/><rect x="790.2484969939878" y="302.30861723446895" width="7.663326653306612" height="7.663326653306612" rx="1.6859318637274547" fill="#4d8cc9" stroke="#0b1015" stroke-width="0.35"/><rect x="774.9218436873747" y="302.30861723446895" width="7.663326653306612" height="7.663326653306612" rx="1.6859318637274547" fill="#4d8cc9" stroke="#0b1015" stroke-width="0.35"/><rect x="759.5951903807616" y="302.30861723446895" width="7.663326653306612" height="7.663326653306612" rx="1.6859318637274547" fill="#4d8cc9" stroke="#0b1015" stroke-width="0.35"/><rect x="744.2685370741483" y="302.30861723446895" width="7.663326653306612" height="7.663326653306612" rx="1.6859318637274547" fill="#4d8cc9" stroke="#0b1015" stroke-width="0.35"/><rect x="728.941883767535" y="302.30861723446895" width="7.663326653306612" height="7.663326653306612" rx="1.6859318637274547" fill="#4d8cc9" stroke="#0b1015" stroke-width="0.35"/><rect x="713.6152304609217" y="302.30861723446895" width="7.663326653306612" height="7.663326653306612" rx="1.6859318637274547" fill="#4d8cc9" stroke="#0b1015" stroke-width="0.35"/><rect x="698.2885771543085" y="302.30861723446895" width="7.663326653306612" height="7.663326653306612" rx="1.6859318637274547" fill="#4d8cc9" stroke="#0b1015" stroke-width="0.35"/><rect x="682.9619238476954" y="302.30861723446895" width="7.663326653306612" height="7.663326653306612" rx="1.6859318637274547" fill="#4d8cc9" stroke="#0b1015" stroke-width="0.35"/><rect x="667.635270541082" y="302.30861723446895" width="7.663326653306612" height="7.663326653306612" rx="1.6859318637274547" fill="#4d8cc9" stroke="#0b1015" stroke-width="0.35"/><rect x="652.3086172344689" y="302.30861723446895" width="7.663326653306612" height="7.663326653306612" rx="1.6859318637274547" fill="#4d8cc9" stroke="#0b1015" stroke-width="0.35"/><rect x="636.9819639278556" y="302.30861723446895" width="7.663326653306612" height="7.663326653306612" rx="1.6859318637274547" fill="#4d8cc9" stroke="#0b1015" stroke-width="0.35"/><rect x="621.6553106212424" y="302.30861723446895" width="7.663326653306612" height="7.663326653306612" rx="1.6859318637274547" fill="#4d8cc9" stroke="#0b1015" stroke-width="0.35"/><rect x="606.3286573146293" y="302.30861723446895" width="7.663326653306612" height="7.663326653306612" rx="1.6859318637274547" fill="#4d8cc9" stroke="#0b1015" stroke-width="0.35"/><rect x="591.002004008016" y="302.30861723446895" width="7.663326653306612" height="7.663326653306612" rx="1.6859318637274547" fill="#4d8cc9" stroke="#0b1015" stroke-width="0.35"/><rect x="575.6753507014027" y="302.30861723446895" width="7.663326653306612" height="7.663326653306612" rx="1.6859318637274547" fill="#4d8cc9" stroke="#0b1015" stroke-width="0.35"/><rect x="560.3486973947896" y="302.30861723446895" width="7.663326653306612" height="7.663326653306612" rx="1.6859318637274547" fill="#4d8cc9" stroke="#0b1015" stroke-width="0.35"/><rect x="545.0220440881764" y="302.30861723446895" width="7.663326653306612" height="7.663326653306612" rx="1.6859318637274547" fill="#4d8cc9" stroke="#0b1015" stroke-width="0.35"/><rect x="836.2284569138276" y="286.98196392785576" width="7.663326653306612" height="7.663326653306612" rx="1.6859318637274547" fill="#4d8cc9" stroke="#0b1015" stroke-width="0.35"/><rect x="820.9018036072144" y="286.98196392785576" width="7.663326653306612" height="7.663326653306612" rx="1.6859318637274547" fill="#4d8cc9" stroke="#0b1015" stroke-width="0.35"/><rect x="805.5751503006012" y="286.98196392785576" width="7.663326653306612" height="7.663326653306612" rx="1.6859318637274547" fill="#4d8cc9" stroke="#0b1015" stroke-width="0.35"/><rect x="790.2484969939878" y="286.98196392785576" width="7.663326653306612" height="7.663326653306612" rx="1.6859318637274547" fill="#4d8cc9" stroke="#0b1015" stroke-width="0.35"/><rect x="774.9218436873747" y="286.98196392785576" width="7.663326653306612" height="7.663326653306612" rx="1.6859318637274547" fill="#4d8cc9" stroke="#0b1015" stroke-width="0.35"/><rect x="759.5951903807616" y="286.98196392785576" width="7.663326653306612" height="7.663326653306612" rx="1.6859318637274547" fill="#4d8cc9" stroke="#0b1015" stroke-width="0.35"/><rect x="744.2685370741483" y="286.98196392785576" width="7.663326653306612" height="7.663326653306612" rx="1.6859318637274547" fill="#4d8cc9" stroke="#0b1015" stroke-width="0.35"/><rect x="728.941883767535" y="286.98196392785576" width="7.663326653306612" height="7.663326653306612" rx="1.6859318637274547" fill="#4d8cc9" stroke="#0b1015" stroke-width="0.35"/><rect x="713.6152304609217" y="286.98196392785576" width="7.663326653306612" height="7.663326653306612" rx="1.6859318637274547" fill="#4d8cc9" stroke="#0b1015" stroke-width="0.35"/><rect x="698.2885771543085" y="286.98196392785576" width="7.663326653306612" height="7.663326653306612" rx="1.6859318637274547" fill="#4d8cc9" stroke="#0b1015" stroke-width="0.35"/><rect x="682.9619238476954" y="286.98196392785576" width="7.663326653306612" height="7.663326653306612" rx="1.6859318637274547" fill="#4d8cc9" stroke="#0b1015" stroke-width="0.35"/><rect x="667.635270541082" y="286.98196392785576" width="7.663326653306612" height="7.663326653306612" rx="1.6859318637274547" fill="#4d8cc9" stroke="#0b1015" stroke-width="0.35"/><rect x="652.3086172344689" y="286.98196392785576" width="7.663326653306612" height="7.663326653306612" rx="1.6859318637274547" fill="#4d8cc9" stroke="#0b1015" stroke-width="0.35"/><rect x="636.9819639278556" y="286.98196392785576" width="7.663326653306612" height="7.663326653306612" rx="1.6859318637274547" fill="#4d8cc9" stroke="#0b1015" stroke-width="0.35"/><rect x="621.6553106212424" y="286.98196392785576" width="7.663326653306612" height="7.663326653306612" rx="1.6859318637274547" fill="#4d8cc9" stroke="#0b1015" stroke-width="0.35"/><rect x="606.3286573146293" y="286.98196392785576" width="7.663326653306612" height="7.663326653306612" rx="1.6859318637274547" fill="#4d8cc9" stroke="#0b1015" stroke-width="0.35"/><rect x="591.002004008016" y="286.98196392785576" width="7.663326653306612" height="7.663326653306612" rx="1.6859318637274547" fill="#4d8cc9" stroke="#0b1015" stroke-width="0.35"/><rect x="575.6753507014027" y="286.98196392785576" width="7.663326653306612" height="7.663326653306612" rx="1.6859318637274547" fill="#4d8cc9" stroke="#0b1015" stroke-width="0.35"/><rect x="560.3486973947896" y="286.98196392785576" width="7.663326653306612" height="7.663326653306612" rx="1.6859318637274547" fill="#4d8cc9" stroke="#0b1015" stroke-width="0.35"/><rect x="545.0220440881764" y="286.98196392785576" width="7.663326653306612" height="7.663326653306612" rx="1.6859318637274547" fill="#4d8cc9" stroke="#0b1015" stroke-width="0.35"/><rect x="836.2284569138276" y="271.65531062124256" width="7.663326653306612" height="7.663326653306612" rx="1.6859318637274547" fill="#4d8cc9" stroke="#0b1015" stroke-width="0.35"/><rect x="820.9018036072144" y="271.65531062124256" width="7.663326653306612" height="7.663326653306612" rx="1.6859318637274547" fill="#4d8cc9" stroke="#0b1015" stroke-width="0.35"/><rect x="805.5751503006012" y="271.65531062124256" width="7.663326653306612" height="7.663326653306612" rx="1.6859318637274547" fill="#4d8cc9" stroke="#0b1015" stroke-width="0.35"/><rect x="790.2484969939878" y="271.65531062124256" width="7.663326653306612" height="7.663326653306612" rx="1.6859318637274547" fill="#4d8cc9" stroke="#0b1015" stroke-width="0.35"/><rect x="774.9218436873747" y="271.65531062124256" width="7.663326653306612" height="7.663326653306612" rx="1.6859318637274547" fill="#4d8cc9" stroke="#0b1015" stroke-width="0.35"/><rect x="759.5951903807616" y="271.65531062124256" width="7.663326653306612" height="7.663326653306612" rx="1.6859318637274547" fill="#4d8cc9" stroke="#0b1015" stroke-width="0.35"/><rect x="744.2685370741483" y="271.65531062124256" width="7.663326653306612" height="7.663326653306612" rx="1.6859318637274547" fill="#4d8cc9" stroke="#0b1015" stroke-width="0.35"/><rect x="728.941883767535" y="271.65531062124256" width="7.663326653306612" height="7.663326653306612" rx="1.6859318637274547" fill="#4d8cc9" stroke="#0b1015" stroke-width="0.35"/><rect x="713.6152304609217" y="271.65531062124256" width="7.663326653306612" height="7.663326653306612" rx="1.6859318637274547" fill="#4d8cc9" stroke="#0b1015" stroke-width="0.35"/><rect x="698.2885771543085" y="271.65531062124256" width="7.663326653306612" height="7.663326653306612" rx="1.6859318637274547" fill="#4d8cc9" stroke="#0b1015" stroke-width="0.35"/><rect x="682.9619238476954" y="271.65531062124256" width="7.663326653306612" height="7.663326653306612" rx="1.6859318637274547" fill="#4d8cc9" stroke="#0b1015" stroke-width="0.35"/><rect x="667.635270541082" y="271.65531062124256" width="7.663326653306612" height="7.663326653306612" rx="1.6859318637274547" fill="#4d8cc9" stroke="#0b1015" stroke-width="0.35"/><rect x="652.3086172344689" y="271.65531062124256" width="7.663326653306612" height="7.663326653306612" rx="1.6859318637274547" fill="#4d8cc9" stroke="#0b1015" stroke-width="0.35"/><rect x="636.9819639278556" y="271.65531062124256" width="7.663326653306612" height="7.663326653306612" rx="1.6859318637274547" fill="#4d8cc9" stroke="#0b1015" stroke-width="0.35"/><rect x="621.6553106212424" y="271.65531062124256" width="7.663326653306612" height="7.663326653306612" rx="1.6859318637274547" fill="#4d8cc9" stroke="#0b1015" stroke-width="0.35"/><rect x="606.3286573146293" y="271.65531062124256" width="7.663326653306612" height="7.663326653306612" rx="1.6859318637274547" fill="#4d8cc9" stroke="#0b1015" stroke-width="0.35"/><rect x="591.002004008016" y="271.65531062124256" width="7.663326653306612" height="7.663326653306612" rx="1.6859318637274547" fill="#4d8cc9" stroke="#0b1015" stroke-width="0.35"/><rect x="575.6753507014027" y="271.65531062124256" width="7.663326653306612" height="7.663326653306612" rx="1.6859318637274547" fill="#4d8cc9" stroke="#0b1015" stroke-width="0.35"/><rect x="560.3486973947896" y="271.65531062124256" width="7.663326653306612" height="7.663326653306612" rx="1.6859318637274547" fill="#4d8cc9" stroke="#0b1015" stroke-width="0.35"/><rect x="545.0220440881764" y="271.65531062124256" width="7.663326653306612" height="7.663326653306612" rx="1.6859318637274547" fill="#4d8cc9" stroke="#0b1015" stroke-width="0.35"/><rect x="836.2284569138276" y="256.3286573146293" width="7.663326653306612" height="7.663326653306612" rx="1.6859318637274547" fill="#4d8cc9" stroke="#0b1015" stroke-width="0.35"/><rect x="820.9018036072144" y="256.3286573146293" width="7.663326653306612" height="7.663326653306612" rx="1.6859318637274547" fill="#4d8cc9" stroke="#0b1015" stroke-width="0.35"/><rect x="805.5751503006012" y="256.3286573146293" width="7.663326653306612" height="7.663326653306612" rx="1.6859318637274547" fill="#4d8cc9" stroke="#0b1015" stroke-width="0.35"/><rect x="790.2484969939878" y="256.3286573146293" width="7.663326653306612" height="7.663326653306612" rx="1.6859318637274547" fill="#4d8cc9" stroke="#0b1015" stroke-width="0.35"/><rect x="774.9218436873747" y="256.3286573146293" width="7.663326653306612" height="7.663326653306612" rx="1.6859318637274547" fill="#4d8cc9" stroke="#0b1015" stroke-width="0.35"/><rect x="759.5951903807616" y="256.3286573146293" width="7.663326653306612" height="7.663326653306612" rx="1.6859318637274547" fill="#4d8cc9" stroke="#0b1015" stroke-width="0.35"/><rect x="744.2685370741483" y="256.3286573146293" width="7.663326653306612" height="7.663326653306612" rx="1.6859318637274547" fill="#4d8cc9" stroke="#0b1015" stroke-width="0.35"/><rect x="728.941883767535" y="256.3286573146293" width="7.663326653306612" height="7.663326653306612" rx="1.6859318637274547" fill="#4d8cc9" stroke="#0b1015" stroke-width="0.35"/><rect x="713.6152304609217" y="256.3286573146293" width="7.663326653306612" height="7.663326653306612" rx="1.6859318637274547" fill="#4d8cc9" stroke="#0b1015" stroke-width="0.35"/><rect x="698.2885771543085" y="256.3286573146293" width="7.663326653306612" height="7.663326653306612" rx="1.6859318637274547" fill="#4d8cc9" stroke="#0b1015" stroke-width="0.35"/><rect x="682.9619238476954" y="256.3286573146293" width="7.663326653306612" height="7.663326653306612" rx="1.6859318637274547" fill="#4d8cc9" stroke="#0b1015" stroke-width="0.35"/><rect x="667.635270541082" y="256.3286573146293" width="7.663326653306612" height="7.663326653306612" rx="1.6859318637274547" fill="#4d8cc9" stroke="#0b1015" stroke-width="0.35"/><rect x="652.3086172344689" y="256.3286573146293" width="7.663326653306612" height="7.663326653306612" rx="1.6859318637274547" fill="#4d8cc9" stroke="#0b1015" stroke-width="0.35"/><rect x="636.9819639278556" y="256.3286573146293" width="7.663326653306612" height="7.663326653306612" rx="1.6859318637274547" fill="#4d8cc9" stroke="#0b1015" stroke-width="0.35"/><rect x="621.6553106212424" y="256.3286573146293" width="7.663326653306612" height="7.663326653306612" rx="1.6859318637274547" fill="#4d8cc9" stroke="#0b1015" stroke-width="0.35"/><rect x="606.3286573146293" y="256.3286573146293" width="7.663326653306612" height="7.663326653306612" rx="1.6859318637274547" fill="#4d8cc9" stroke="#0b1015" stroke-width="0.35"/><rect x="591.002004008016" y="256.3286573146293" width="7.663326653306612" height="7.663326653306612" rx="1.6859318637274547" fill="#4d8cc9" stroke="#0b1015" stroke-width="0.35"/><rect x="575.6753507014027" y="256.3286573146293" width="7.663326653306612" height="7.663326653306612" rx="1.6859318637274547" fill="#4d8cc9" stroke="#0b1015" stroke-width="0.35"/><rect x="560.3486973947896" y="256.3286573146293" width="7.663326653306612" height="7.663326653306612" rx="1.6859318637274547" fill="#4d8cc9" stroke="#0b1015" stroke-width="0.35"/><rect x="545.0220440881764" y="256.3286573146293" width="7.663326653306612" height="7.663326653306612" rx="1.6859318637274547" fill="#4d8cc9" stroke="#0b1015" stroke-width="0.35"/><rect x="836.2284569138276" y="241.00200400801606" width="7.663326653306612" height="7.663326653306612" rx="1.6859318637274547" fill="#4d8cc9" stroke="#0b1015" stroke-width="0.35"/><rect x="820.9018036072144" y="241.00200400801606" width="7.663326653306612" height="7.663326653306612" rx="1.6859318637274547" fill="#4d8cc9" stroke="#0b1015" stroke-width="0.35"/><rect x="805.5751503006012" y="241.00200400801606" width="7.663326653306612" height="7.663326653306612" rx="1.6859318637274547" fill="#4d8cc9" stroke="#0b1015" stroke-width="0.35"/><rect x="790.2484969939878" y="241.00200400801606" width="7.663326653306612" height="7.663326653306612" rx="1.6859318637274547" fill="#4d8cc9" stroke="#0b1015" stroke-width="0.35"/><rect x="774.9218436873747" y="241.00200400801606" width="7.663326653306612" height="7.663326653306612" rx="1.6859318637274547" fill="#4d8cc9" stroke="#0b1015" stroke-width="0.35"/><rect x="759.5951903807616" y="241.00200400801606" width="7.663326653306612" height="7.663326653306612" rx="1.6859318637274547" fill="#4d8cc9" stroke="#0b1015" stroke-width="0.35"/><rect x="744.2685370741483" y="241.00200400801606" width="7.663326653306612" height="7.663326653306612" rx="1.6859318637274547" fill="#4d8cc9" stroke="#0b1015" stroke-width="0.35"/><rect x="728.941883767535" y="241.00200400801606" width="7.663326653306612" height="7.663326653306612" rx="1.6859318637274547" fill="#4d8cc9" stroke="#0b1015" stroke-width="0.35"/><rect x="713.6152304609217" y="241.00200400801606" width="7.663326653306612" height="7.663326653306612" rx="1.6859318637274547" fill="#4d8cc9" stroke="#0b1015" stroke-width="0.35"/><rect x="698.2885771543085" y="241.00200400801606" width="7.663326653306612" height="7.663326653306612" rx="1.6859318637274547" fill="#4d8cc9" stroke="#0b1015" stroke-width="0.35"/><rect x="682.9619238476954" y="241.00200400801606" width="7.663326653306612" height="7.663326653306612" rx="1.6859318637274547" fill="#4d8cc9" stroke="#0b1015" stroke-width="0.35"/><rect x="667.635270541082" y="241.00200400801606" width="7.663326653306612" height="7.663326653306612" rx="1.6859318637274547" fill="#4d8cc9" stroke="#0b1015" stroke-width="0.35"/><rect x="652.3086172344689" y="241.00200400801606" width="7.663326653306612" height="7.663326653306612" rx="1.6859318637274547" fill="#4d8cc9" stroke="#0b1015" stroke-width="0.35"/><rect x="636.9819639278556" y="241.00200400801606" width="7.663326653306612" height="7.663326653306612" rx="1.6859318637274547" fill="#4d8cc9" stroke="#0b1015" stroke-width="0.35"/><rect x="621.6553106212424" y="241.00200400801606" width="7.663326653306612" height="7.663326653306612" rx="1.6859318637274547" fill="#4d8cc9" stroke="#0b1015" stroke-width="0.35"/><rect x="606.3286573146293" y="241.00200400801606" width="7.663326653306612" height="7.663326653306612" rx="1.6859318637274547" fill="#4d8cc9" stroke="#0b1015" stroke-width="0.35"/><rect x="591.002004008016" y="241.00200400801606" width="7.663326653306612" height="7.663326653306612" rx="1.6859318637274547" fill="#4d8cc9" stroke="#0b1015" stroke-width="0.35"/><rect x="575.6753507014027" y="241.00200400801606" width="7.663326653306612" height="7.663326653306612" rx="1.6859318637274547" fill="#4d8cc9" stroke="#0b1015" stroke-width="0.35"/><rect x="560.3486973947896" y="241.00200400801606" width="7.663326653306612" height="7.663326653306612" rx="1.6859318637274547" fill="#4d8cc9" stroke="#0b1015" stroke-width="0.35"/><rect x="545.0220440881764" y="241.00200400801606" width="7.663326653306612" height="7.663326653306612" rx="1.6859318637274547" fill="#4d8cc9" stroke="#0b1015" stroke-width="0.35"/><rect x="836.2284569138276" y="225.67535070140286" width="7.663326653306612" height="7.663326653306612" rx="1.6859318637274547" fill="#4d8cc9" stroke="#0b1015" stroke-width="0.35"/><rect x="820.9018036072144" y="225.67535070140286" width="7.663326653306612" height="7.663326653306612" rx="1.6859318637274547" fill="#4d8cc9" stroke="#0b1015" stroke-width="0.35"/><rect x="805.5751503006012" y="225.67535070140286" width="7.663326653306612" height="7.663326653306612" rx="1.6859318637274547" fill="#4d8cc9" stroke="#0b1015" stroke-width="0.35"/><rect x="790.2484969939878" y="225.67535070140286" width="7.663326653306612" height="7.663326653306612" rx="1.6859318637274547" fill="#4d8cc9" stroke="#0b1015" stroke-width="0.35"/><rect x="774.9218436873747" y="225.67535070140286" width="7.663326653306612" height="7.663326653306612" rx="1.6859318637274547" fill="#4d8cc9" stroke="#0b1015" stroke-width="0.35"/><rect x="759.5951903807616" y="225.67535070140286" width="7.663326653306612" height="7.663326653306612" rx="1.6859318637274547" fill="#4d8cc9" stroke="#0b1015" stroke-width="0.35"/><rect x="744.2685370741483" y="225.67535070140286" width="7.663326653306612" height="7.663326653306612" rx="1.6859318637274547" fill="#4d8cc9" stroke="#0b1015" stroke-width="0.35"/><rect x="728.941883767535" y="225.67535070140286" width="7.663326653306612" height="7.663326653306612" rx="1.6859318637274547" fill="#4d8cc9" stroke="#0b1015" stroke-width="0.35"/><rect x="713.6152304609217" y="225.67535070140286" width="7.663326653306612" height="7.663326653306612" rx="1.6859318637274547" fill="#4d8cc9" stroke="#0b1015" stroke-width="0.35"/><rect x="698.2885771543085" y="225.67535070140286" width="7.663326653306612" height="7.663326653306612" rx="1.6859318637274547" fill="#4d8cc9" stroke="#0b1015" stroke-width="0.35"/><rect x="682.9619238476954" y="225.67535070140286" width="7.663326653306612" height="7.663326653306612" rx="1.6859318637274547" fill="#4d8cc9" stroke="#0b1015" stroke-width="0.35"/><rect x="667.635270541082" y="225.67535070140286" width="7.663326653306612" height="7.663326653306612" rx="1.6859318637274547" fill="#4d8cc9" stroke="#0b1015" stroke-width="0.35"/><rect x="652.3086172344689" y="225.67535070140286" width="7.663326653306612" height="7.663326653306612" rx="1.6859318637274547" fill="#4d8cc9" stroke="#0b1015" stroke-width="0.35"/><rect x="636.9819639278556" y="225.67535070140286" width="7.663326653306612" height="7.663326653306612" rx="1.6859318637274547" fill="#4d8cc9" stroke="#0b1015" stroke-width="0.35"/><rect x="621.6553106212424" y="225.67535070140286" width="7.663326653306612" height="7.663326653306612" rx="1.6859318637274547" fill="#4d8cc9" stroke="#0b1015" stroke-width="0.35"/><rect x="606.3286573146293" y="225.67535070140286" width="7.663326653306612" height="7.663326653306612" rx="1.6859318637274547" fill="#4d8cc9" stroke="#0b1015" stroke-width="0.35"/><rect x="591.002004008016" y="225.67535070140286" width="7.663326653306612" height="7.663326653306612" rx="1.6859318637274547" fill="#4d8cc9" stroke="#0b1015" stroke-width="0.35"/><rect x="575.6753507014027" y="225.67535070140286" width="7.663326653306612" height="7.663326653306612" rx="1.6859318637274547" fill="#4d8cc9" stroke="#0b1015" stroke-width="0.35"/><rect x="560.3486973947896" y="225.67535070140286" width="7.663326653306612" height="7.663326653306612" rx="1.6859318637274547" fill="#4d8cc9" stroke="#0b1015" stroke-width="0.35"/><rect x="545.0220440881764" y="225.67535070140286" width="7.663326653306612" height="7.663326653306612" rx="1.6859318637274547" fill="#4d8cc9" stroke="#0b1015" stroke-width="0.35"/><rect x="836.2284569138276" y="210.3486973947896" width="7.663326653306612" height="7.663326653306612" rx="1.6859318637274547" fill="#4d8cc9" stroke="#0b1015" stroke-width="0.35"/><rect x="820.9018036072144" y="210.3486973947896" width="7.663326653306612" height="7.663326653306612" rx="1.6859318637274547" fill="#4d8cc9" stroke="#0b1015" stroke-width="0.35"/><rect x="805.5751503006012" y="210.3486973947896" width="7.663326653306612" height="7.663326653306612" rx="1.6859318637274547" fill="#4d8cc9" stroke="#0b1015" stroke-width="0.35"/><rect x="790.2484969939878" y="210.3486973947896" width="7.663326653306612" height="7.663326653306612" rx="1.6859318637274547" fill="#4d8cc9" stroke="#0b1015" stroke-width="0.35"/><rect x="774.9218436873747" y="210.3486973947896" width="7.663326653306612" height="7.663326653306612" rx="1.6859318637274547" fill="#4d8cc9" stroke="#0b1015" stroke-width="0.35"/><rect x="759.5951903807616" y="210.3486973947896" width="7.663326653306612" height="7.663326653306612" rx="1.6859318637274547" fill="#4d8cc9" stroke="#0b1015" stroke-width="0.35"/><rect x="744.2685370741483" y="210.3486973947896" width="7.663326653306612" height="7.663326653306612" rx="1.6859318637274547" fill="#4d8cc9" stroke="#0b1015" stroke-width="0.35"/><rect x="728.941883767535" y="210.3486973947896" width="7.663326653306612" height="7.663326653306612" rx="1.6859318637274547" fill="#4d8cc9" stroke="#0b1015" stroke-width="0.35"/><rect x="713.6152304609217" y="210.3486973947896" width="7.663326653306612" height="7.663326653306612" rx="1.6859318637274547" fill="#4d8cc9" stroke="#0b1015" stroke-width="0.35"/><rect x="698.2885771543085" y="210.3486973947896" width="7.663326653306612" height="7.663326653306612" rx="1.6859318637274547" fill="#4d8cc9" stroke="#0b1015" stroke-width="0.35"/><rect x="682.9619238476954" y="210.3486973947896" width="7.663326653306612" height="7.663326653306612" rx="1.6859318637274547" fill="#4d8cc9" stroke="#0b1015" stroke-width="0.35"/><rect x="667.635270541082" y="210.3486973947896" width="7.663326653306612" height="7.663326653306612" rx="1.6859318637274547" fill="#4d8cc9" stroke="#0b1015" stroke-width="0.35"/><rect x="652.3086172344689" y="210.3486973947896" width="7.663326653306612" height="7.663326653306612" rx="1.6859318637274547" fill="#4d8cc9" stroke="#0b1015" stroke-width="0.35"/><rect x="636.9819639278556" y="210.3486973947896" width="7.663326653306612" height="7.663326653306612" rx="1.6859318637274547" fill="#4d8cc9" stroke="#0b1015" stroke-width="0.35"/><rect x="621.6553106212424" y="210.3486973947896" width="7.663326653306612" height="7.663326653306612" rx="1.6859318637274547" fill="#4d8cc9" stroke="#0b1015" stroke-width="0.35"/><rect x="606.3286573146293" y="210.3486973947896" width="7.663326653306612" height="7.663326653306612" rx="1.6859318637274547" fill="#4d8cc9" stroke="#0b1015" stroke-width="0.35"/><rect x="591.002004008016" y="210.3486973947896" width="7.663326653306612" height="7.663326653306612" rx="1.6859318637274547" fill="#4d8cc9" stroke="#0b1015" stroke-width="0.35"/><rect x="575.6753507014027" y="210.3486973947896" width="7.663326653306612" height="7.663326653306612" rx="1.6859318637274547" fill="#4d8cc9" stroke="#0b1015" stroke-width="0.35"/><rect x="560.3486973947896" y="210.3486973947896" width="7.663326653306612" height="7.663326653306612" rx="1.6859318637274547" fill="#4d8cc9" stroke="#0b1015" stroke-width="0.35"/><rect x="545.0220440881764" y="210.3486973947896" width="7.663326653306612" height="7.663326653306612" rx="1.6859318637274547" fill="#4d8cc9" stroke="#0b1015" stroke-width="0.35"/><rect x="836.2284569138276" y="195.02204408817641" width="7.663326653306612" height="7.663326653306612" rx="1.6859318637274547" fill="#4d8cc9" stroke="#0b1015" stroke-width="0.35"/><rect x="820.9018036072144" y="195.02204408817641" width="7.663326653306612" height="7.663326653306612" rx="1.6859318637274547" fill="#4d8cc9" stroke="#0b1015" stroke-width="0.35"/><rect x="805.5751503006012" y="195.02204408817641" width="7.663326653306612" height="7.663326653306612" rx="1.6859318637274547" fill="#4d8cc9" stroke="#0b1015" stroke-width="0.35"/><rect x="790.2484969939878" y="195.02204408817641" width="7.663326653306612" height="7.663326653306612" rx="1.6859318637274547" fill="#4d8cc9" stroke="#0b1015" stroke-width="0.35"/><rect x="774.9218436873747" y="195.02204408817641" width="7.663326653306612" height="7.663326653306612" rx="1.6859318637274547" fill="#4d8cc9" stroke="#0b1015" stroke-width="0.35"/><rect x="759.5951903807616" y="195.02204408817641" width="7.663326653306612" height="7.663326653306612" rx="1.6859318637274547" fill="#4d8cc9" stroke="#0b1015" stroke-width="0.35"/><rect x="744.2685370741483" y="195.02204408817641" width="7.663326653306612" height="7.663326653306612" rx="1.6859318637274547" fill="#4d8cc9" stroke="#0b1015" stroke-width="0.35"/><rect x="728.941883767535" y="195.02204408817641" width="7.663326653306612" height="7.663326653306612" rx="1.6859318637274547" fill="#4d8cc9" stroke="#0b1015" stroke-width="0.35"/><rect x="713.6152304609217" y="195.02204408817641" width="7.663326653306612" height="7.663326653306612" rx="1.6859318637274547" fill="#4d8cc9" stroke="#0b1015" stroke-width="0.35"/><rect x="698.2885771543085" y="195.02204408817641" width="7.663326653306612" height="7.663326653306612" rx="1.6859318637274547" fill="#4d8cc9" stroke="#0b1015" stroke-width="0.35"/><rect x="682.9619238476954" y="195.02204408817641" width="7.663326653306612" height="7.663326653306612" rx="1.6859318637274547" fill="#4d8cc9" stroke="#0b1015" stroke-width="0.35"/><rect x="667.635270541082" y="195.02204408817641" width="7.663326653306612" height="7.663326653306612" rx="1.6859318637274547" fill="#4d8cc9" stroke="#0b1015" stroke-width="0.35"/><rect x="652.3086172344689" y="195.02204408817641" width="7.663326653306612" height="7.663326653306612" rx="1.6859318637274547" fill="#4d8cc9" stroke="#0b1015" stroke-width="0.35"/><rect x="636.9819639278556" y="195.02204408817641" width="7.663326653306612" height="7.663326653306612" rx="1.6859318637274547" fill="#4d8cc9" stroke="#0b1015" stroke-width="0.35"/><rect x="621.6553106212424" y="195.02204408817641" width="7.663326653306612" height="7.663326653306612" rx="1.6859318637274547" fill="#4d8cc9" stroke="#0b1015" stroke-width="0.35"/><rect x="606.3286573146293" y="195.02204408817641" width="7.663326653306612" height="7.663326653306612" rx="1.6859318637274547" fill="#4d8cc9" stroke="#0b1015" stroke-width="0.35"/><rect x="591.002004008016" y="195.02204408817641" width="7.663326653306612" height="7.663326653306612" rx="1.6859318637274547" fill="#4d8cc9" stroke="#0b1015" stroke-width="0.35"/><rect x="575.6753507014027" y="195.02204408817641" width="7.663326653306612" height="7.663326653306612" rx="1.6859318637274547" fill="#4d8cc9" stroke="#0b1015" stroke-width="0.35"/><rect x="560.3486973947896" y="195.02204408817641" width="7.663326653306612" height="7.663326653306612" rx="1.6859318637274547" fill="#4d8cc9" stroke="#0b1015" stroke-width="0.35"/><rect x="545.0220440881764" y="195.02204408817641" width="7.663326653306612" height="7.663326653306612" rx="1.6859318637274547" fill="#4d8cc9" stroke="#0b1015" stroke-width="0.35"/></g><text x="221.24649298597194" y="442.2585170340682" text-anchor="middle" fill="#ffc977" font-family="ui-monospace, monospace" font-size="12" font-weight="700">U7 · MT41K256M16HA · 96 balls</text><text x="694.4569138276553" y="518.8917835671343" text-anchor="middle" fill="#88b9eb" font-family="ui-monospace, monospace" font-size="12" font-weight="700">U6 · XC7Z010-CLG400 · 400 balls</text>
  <text x="28" y="36" fill="#eef5fb" font-family="ui-sans-serif, system-ui" font-size="17" font-weight="700">sample018 · 49 real board nets · 18 layers</text>
  <text x="28" y="57" fill="#9fb0bf" font-family="ui-sans-serif, system-ui" font-size="12">NekoInk Gen2 mainboard · 13.5 mm gap · unrouted</text>
</svg>