<?xml version="1.0" encoding="UTF-8"?>
<svg xmlns="http://www.w3.org/2000/svg" width="1000" height="650" viewBox="0 0 1000 650">
  <rect width="100%" height="100%" fill="#0d1218"/>
  <rect x="22" y="58.1595505617978" width="956" height="569.8404494382022" rx="8" fill="#13251f" stroke="#4f806c" stroke-width="2"/>
  <g><line x1="672.1337078651685" y1="203.4393258426967" x2="435.8191011235955" y2="203.4393258426967" stroke="#4ecdc4" stroke-width="0.85" opacity="0.46"/><line x1="693.6168539325843" y1="203.4393258426967" x2="414.3359550561797" y2="203.4393258426967" stroke="#4ecdc4" stroke-width="0.85" opacity="0.46"/><line x1="715.1" y1="203.4393258426967" x2="392.852808988764" y2="203.4393258426967" stroke="#4ecdc4" stroke-width="0.85" opacity="0.46"/><line x1="736.5831460674157" y1="203.4393258426967" x2="371.3696629213483" y2="203.4393258426967" stroke="#4ecdc4" stroke-width="0.85" opacity="0.46"/><line x1="758.0662921348314" y1="203.4393258426967" x2="435.8191011235955" y2="224.9224719101124" stroke="#4ecdc4" stroke-width="0.85" opacity="0.46"/><line x1="672.1337078651685" y1="224.9224719101124" x2="414.3359550561797" y2="224.9224719101124" stroke="#4ecdc4" stroke-width="0.85" opacity="0.46"/><line x1="693.6168539325843" y1="224.9224719101124" x2="392.852808988764" y2="224.9224719101124" stroke="#4ecdc4" stroke-width="0.85" opacity="0.46"/><line x1="715.1" y1="224.9224719101124" x2="371.3696629213483" y2="224.9224719101124" stroke="#4ecdc4" stroke-width="0.85" opacity="0.46"/><line x1="736.5831460674157" y1="224.9224719101124" x2="414.3359550561797" y2="246.40561797752815" stroke="#4ecdc4" stroke-width="0.85" opacity="0.46"/><line x1="758.0662921348314" y1="224.9224719101124" x2="392.852808988764" y2="246.40561797752815" stroke="#4ecdc4" stroke-width="0.85" opacity="0.46"/><line x1="672.1337078651685" y1="246.40561797752815" x2="435.8191011235955" y2="246.40561797752815" stroke="#4ecdc4" stroke-width="0.85" opacity="0.46"/><line x1="693.6168539325843" y1="246.40561797752815" x2="371.3696629213483" y2="246.40561797752815" stroke="#4ecdc4" stroke-width="0.85" opacity="0.46"/><line x1="715.1" y1="246.40561797752815" x2="435.8191011235955" y2="267.88876404494385" stroke="#4ecdc4" stroke-width="0.85" opacity="0.46"/><line x1="672.1337078651685" y1="332.338202247191" x2="414.3359550561797" y2="267.88876404494385" stroke="#4ecdc4" stroke-width="0.85" opacity="0.46"/><line x1="693.6168539325843" y1="332.338202247191" x2="371.3696629213483" y2="332.338202247191" stroke="#4ecdc4" stroke-width="0.85" opacity="0.46"/><line x1="715.1" y1="332.338202247191" x2="392.852808988764" y2="332.338202247191" stroke="#4ecdc4" stroke-width="0.85" opacity="0.46"/><line x1="758.0662921348314" y1="332.338202247191" x2="414.3359550561797" y2="332.338202247191" stroke="#ff6b6b" stroke-width="0.85" opacity="0.46"/><line x1="693.6168539325843" y1="310.8550561797753" x2="435.8191011235955" y2="332.338202247191" stroke="#ff6b6b" stroke-width="0.85" opacity="0.46"/><line x1="715.1" y1="310.8550561797753" x2="371.3696629213483" y2="310.8550561797753" stroke="#ffd166" stroke-width="0.85" opacity="0.46"/><line x1="672.1337078651685" y1="310.8550561797753" x2="392.852808988764" y2="310.8550561797753" stroke="#ff6b6b" stroke-width="0.85" opacity="0.46"/><line x1="715.1" y1="289.3719101123596" x2="414.3359550561797" y2="310.8550561797753" stroke="#ff6b6b" stroke-width="0.85" opacity="0.46"/><line x1="693.6168539325843" y1="289.3719101123596" x2="435.8191011235955" y2="310.8550561797753" stroke="#ffd166" stroke-width="0.85" opacity="0.46"/><line x1="672.1337078651685" y1="289.3719101123596" x2="371.3696629213483" y2="289.3719101123596" stroke="#5f9df7" stroke-width="0.85" opacity="0.46"/><line x1="715.1" y1="267.88876404494385" x2="392.852808988764" y2="289.3719101123596" stroke="#5f9df7" stroke-width="0.85" opacity="0.46"/><line x1="693.6168539325843" y1="267.88876404494385" x2="414.3359550561797" y2="289.3719101123596" stroke="#5f9df7" stroke-width="0.85" opacity="0.46"/><line x1="672.1337078651685" y1="267.88876404494385" x2="435.8191011235955" y2="289.3719101123596" stroke="#5f9df7" stroke-width="0.85" opacity="0.46"/><line x1="736.5831460674157" y1="332.338202247191" x2="371.3696629213483" y2="267.88876404494385" stroke="#5f9df7" stroke-width="0.85" opacity="0.46"/><line x1="672.1337078651685" y1="353.8213483146068" x2="392.852808988764" y2="267.88876404494385" stroke="#5f9df7" stroke-width="0.85" opacity="0.46"/><line x1="693.6168539325843" y1="353.8213483146068" x2="435.8191011235955" y2="353.8213483146068" stroke="#5f9df7" stroke-width="0.85" opacity="0.46"/><line x1="715.1" y1="353.8213483146068" x2="414.3359550561797" y2="353.8213483146068" stroke="#5f9df7" stroke-width="0.85" opacity="0.46"/><line x1="736.5831460674157" y1="353.8213483146068" x2="371.3696629213483" y2="353.8213483146068" stroke="#5f9df7" stroke-width="0.85" opacity="0.46"/><line x1="758.0662921348314" y1="353.8213483146068" x2="392.852808988764" y2="353.8213483146068" stroke="#5f9df7" stroke-width="0.85" opacity="0.46"/><line x1="672.1337078651685" y1="375.3044943820225" x2="435.8191011235955" y2="375.3044943820225" stroke="#5f9df7" stroke-width="0.85" opacity="0.46"/><line x1="693.6168539325843" y1="375.3044943820225" x2="414.3359550561797" y2="375.3044943820225" stroke="#5f9df7" stroke-width="0.85" opacity="0.46"/><line x1="715.1" y1="375.3044943820225" x2="392.852808988764" y2="375.3044943820225" stroke="#5f9df7" stroke-width="0.85" opacity="0.46"/><line x1="693.6168539325843" y1="396.78764044943824" x2="371.3696629213483" y2="375.3044943820225" stroke="#5f9df7" stroke-width="0.85" opacity="0.46"/><line x1="715.1" y1="396.78764044943824" x2="435.8191011235955" y2="396.78764044943824" stroke="#5f9df7" stroke-width="0.85" opacity="0.46"/><line x1="672.1337078651685" y1="396.78764044943824" x2="414.3359550561797" y2="396.78764044943824" stroke="#9b7ede" stroke-width="0.85" opacity="0.46"/><line x1="672.1337078651685" y1="418.27078651685395" x2="392.852808988764" y2="396.78764044943824" stroke="#9b7ede" stroke-width="0.85" opacity="0.46"/><line x1="715.1" y1="482.72022471910117" x2="371.3696629213483" y2="396.78764044943824" stroke="#9b7ede" stroke-width="0.85" opacity="0.46"/><line x1="693.6168539325843" y1="482.72022471910117" x2="414.3359550561797" y2="418.27078651685395" stroke="#f28e2b" stroke-width="0.85" opacity="0.46"/><line x1="672.1337078651685" y1="482.72022471910117" x2="371.3696629213483" y2="418.27078651685395" stroke="#f28e2b" stroke-width="0.85" opacity="0.46"/><line x1="715.1" y1="461.23707865168547" x2="371.3696629213483" y2="482.72022471910117" stroke="#f28e2b" stroke-width="0.85" opacity="0.46"/><line x1="693.6168539325843" y1="461.23707865168547" x2="392.852808988764" y2="482.72022471910117" stroke="#e15759" stroke-width="0.85" opacity="0.46"/><line x1="672.1337078651685" y1="461.23707865168547" x2="414.3359550561797" y2="482.72022471910117" stroke="#e15759" stroke-width="0.85" opacity="0.46"/><line x1="715.1" y1="439.7539325842697" x2="435.8191011235955" y2="482.72022471910117" stroke="#76b7b2" stroke-width="0.85" opacity="0.46"/><line x1="693.6168539325843" y1="439.7539325842697" x2="371.3696629213483" y2="461.23707865168547" stroke="#76b7b2" stroke-width="0.85" opacity="0.46"/><line x1="672.1337078651685" y1="439.7539325842697" x2="392.852808988764" y2="461.23707865168547" stroke="#76b7b2" stroke-width="0.85" opacity="0.46"/><line x1="693.6168539325843" y1="418.27078651685395" x2="414.3359550561797" y2="461.23707865168547" stroke="#76b7b2" stroke-width="0.85" opacity="0.46"/></g>
  <g><rect x="667.0314606741573" y="198.33707865168546" width="10.204494382022471" height="10.204494382022471" rx="2.2449887640449435" fill="#f5a742" stroke="#0b1015" stroke-width="0.45"/><rect x="688.5146067415731" y="198.33707865168546" width="10.204494382022471" height="10.204494382022471" rx="2.2449887640449435" fill="#f5a742" stroke="#0b1015" stroke-width="0.45"/><rect x="709.9977528089888" y="198.33707865168546" width="10.204494382022471" height="10.204494382022471" rx="2.2449887640449435" fill="#f5a742" stroke="#0b1015" stroke-width="0.45"/><rect x="731.4808988764045" y="198.33707865168546" width="10.204494382022471" height="10.204494382022471" rx="2.2449887640449435" fill="#f5a742" stroke="#0b1015" stroke-width="0.45"/><rect x="752.9640449438202" y="198.33707865168546" width="10.204494382022471" height="10.204494382022471" rx="2.2449887640449435" fill="#f5a742" stroke="#0b1015" stroke-width="0.45"/><rect x="774.447191011236" y="198.33707865168546" width="10.204494382022471" height="10.204494382022471" rx="2.2449887640449435" fill="#f5a742" stroke="#0b1015" stroke-width="0.45"/><rect x="795.9303370786516" y="198.33707865168546" width="10.204494382022471" height="10.204494382022471" rx="2.2449887640449435" fill="#f5a742" stroke="#0b1015" stroke-width="0.45"/><rect x="817.4134831460674" y="198.33707865168546" width="10.204494382022471" height="10.204494382022471" rx="2.2449887640449435" fill="#f5a742" stroke="#0b1015" stroke-width="0.45"/><rect x="838.896629213483" y="198.33707865168546" width="10.204494382022471" height="10.204494382022471" rx="2.2449887640449435" fill="#f5a742" stroke="#0b1015" stroke-width="0.45"/><rect x="667.0314606741573" y="219.82022471910116" width="10.204494382022471" height="10.204494382022471" rx="2.2449887640449435" fill="#f5a742" stroke="#0b1015" stroke-width="0.45"/><rect x="688.5146067415731" y="219.82022471910116" width="10.204494382022471" height="10.204494382022471" rx="2.2449887640449435" fill="#f5a742" stroke="#0b1015" stroke-width="0.45"/><rect x="709.9977528089888" y="219.82022471910116" width="10.204494382022471" height="10.204494382022471" rx="2.2449887640449435" fill="#f5a742" stroke="#0b1015" stroke-width="0.45"/><rect x="731.4808988764045" y="219.82022471910116" width="10.204494382022471" height="10.204494382022471" rx="2.2449887640449435" fill="#f5a742" stroke="#0b1015" stroke-width="0.45"/><rect x="752.9640449438202" y="219.82022471910116" width="10.204494382022471" height="10.204494382022471" rx="2.2449887640449435" fill="#f5a742" stroke="#0b1015" stroke-width="0.45"/><rect x="774.447191011236" y="219.82022471910116" width="10.204494382022471" height="10.204494382022471" rx="2.2449887640449435" fill="#f5a742" stroke="#0b1015" stroke-width="0.45"/><rect x="795.9303370786516" y="219.82022471910116" width="10.204494382022471" height="10.204494382022471" rx="2.2449887640449435" fill="#f5a742" stroke="#0b1015" stroke-width="0.45"/><rect x="817.4134831460674" y="219.82022471910116" width="10.204494382022471" height="10.204494382022471" rx="2.2449887640449435" fill="#f5a742" stroke="#0b1015" stroke-width="0.45"/><rect x="838.896629213483" y="219.82022471910116" width="10.204494382022471" height="10.204494382022471" rx="2.2449887640449435" fill="#f5a742" stroke="#0b1015" stroke-width="0.45"/><rect x="667.0314606741573" y="241.30337078651692" width="10.204494382022471" height="10.204494382022471" rx="2.2449887640449435" fill="#f5a742" stroke="#0b1015" stroke-width="0.45"/><rect x="688.5146067415731" y="241.30337078651692" width="10.204494382022471" height="10.204494382022471" rx="2.2449887640449435" fill="#f5a742" stroke="#0b1015" stroke-width="0.45"/><rect x="709.9977528089888" y="241.30337078651692" width="10.204494382022471" height="10.204494382022471" rx="2.2449887640449435" fill="#f5a742" stroke="#0b1015" stroke-width="0.45"/><rect x="795.9303370786516" y="241.30337078651692" width="10.204494382022471" height="10.204494382022471" rx="2.2449887640449435" fill="#f5a742" stroke="#0b1015" stroke-width="0.45"/><rect x="817.4134831460674" y="241.30337078651692" width="10.204494382022471" height="10.204494382022471" rx="2.2449887640449435" fill="#f5a742" stroke="#0b1015" stroke-width="0.45"/><rect x="838.896629213483" y="241.30337078651692" width="10.204494382022471" height="10.204494382022471" rx="2.2449887640449435" fill="#f5a742" stroke="#0b1015" stroke-width="0.45"/><rect x="667.0314606741573" y="262.7865168539326" width="10.204494382022471" height="10.204494382022471" rx="2.2449887640449435" fill="#f5a742" stroke="#0b1015" stroke-width="0.45"/><rect x="688.5146067415731" y="262.7865168539326" width="10.204494382022471" height="10.204494382022471" rx="2.2449887640449435" fill="#f5a742" stroke="#0b1015" stroke-width="0.45"/><rect x="709.9977528089888" y="262.7865168539326" width="10.204494382022471" height="10.204494382022471" rx="2.2449887640449435" fill="#f5a742" stroke="#0b1015" stroke-width="0.45"/><rect x="795.9303370786516" y="262.7865168539326" width="10.204494382022471" height="10.204494382022471" rx="2.2449887640449435" fill="#f5a742" stroke="#0b1015" stroke-width="0.45"/><rect x="817.4134831460674" y="262.7865168539326" width="10.204494382022471" height="10.204494382022471" rx="2.2449887640449435" fill="#f5a742" stroke="#0b1015" stroke-width="0.45"/><rect x="838.896629213483" y="262.7865168539326" width="10.204494382022471" height="10.204494382022471" rx="2.2449887640449435" fill="#f5a742" stroke="#0b1015" stroke-width="0.45"/><rect x="667.0314606741573" y="284.26966292134836" width="10.204494382022471" height="10.204494382022471" rx="2.2449887640449435" fill="#f5a742" stroke="#0b1015" stroke-width="0.45"/><rect x="688.5146067415731" y="284.26966292134836" width="10.204494382022471" height="10.204494382022471" rx="2.2449887640449435" fill="#f5a742" stroke="#0b1015" stroke-width="0.45"/><rect x="709.9977528089888" y="284.26966292134836" width="10.204494382022471" height="10.204494382022471" rx="2.2449887640449435" fill="#f5a742" stroke="#0b1015" stroke-width="0.45"/><rect x="795.9303370786516" y="284.26966292134836" width="10.204494382022471" height="10.204494382022471" rx="2.2449887640449435" fill="#f5a742" stroke="#0b1015" stroke-width="0.45"/><rect x="817.4134831460674" y="284.26966292134836" width="10.204494382022471" height="10.204494382022471" rx="2.2449887640449435" fill="#f5a742" stroke="#0b1015" stroke-width="0.45"/><rect x="838.896629213483" y="284.26966292134836" width="10.204494382022471" height="10.204494382022471" rx="2.2449887640449435" fill="#f5a742" stroke="#0b1015" stroke-width="0.45"/><rect x="667.0314606741573" y="305.75280898876406" width="10.204494382022471" height="10.204494382022471" rx="2.2449887640449435" fill="#f5a742" stroke="#0b1015" stroke-width="0.45"/><rect x="688.5146067415731" y="305.75280898876406" width="10.204494382022471" height="10.204494382022471" rx="2.2449887640449435" fill="#f5a742" stroke="#0b1015" stroke-width="0.45"/><rect x="709.9977528089888" y="305.75280898876406" width="10.204494382022471" height="10.204494382022471" rx="2.2449887640449435" fill="#f5a742" stroke="#0b1015" stroke-width="0.45"/><rect x="795.9303370786516" y="305.75280898876406" width="10.204494382022471" height="10.204494382022471" rx="2.2449887640449435" fill="#f5a742" stroke="#0b1015" stroke-width="0.45"/><rect x="817.4134831460674" y="305.75280898876406" width="10.204494382022471" height="10.204494382022471" rx="2.2449887640449435" fill="#f5a742" stroke="#0b1015" stroke-width="0.45"/><rect x="838.896629213483" y="305.75280898876406" width="10.204494382022471" height="10.204494382022471" rx="2.2449887640449435" fill="#f5a742" stroke="#0b1015" stroke-width="0.45"/><rect x="667.0314606741573" y="327.23595505617976" width="10.204494382022471" height="10.204494382022471" rx="2.2449887640449435" fill="#f5a742" stroke="#0b1015" stroke-width="0.45"/><rect x="688.5146067415731" y="327.23595505617976" width="10.204494382022471" height="10.204494382022471" rx="2.2449887640449435" fill="#f5a742" stroke="#0b1015" stroke-width="0.45"/><rect x="709.9977528089888" y="327.23595505617976" width="10.204494382022471" height="10.204494382022471" rx="2.2449887640449435" fill="#f5a742" stroke="#0b1015" stroke-width="0.45"/><rect x="731.4808988764045" y="327.23595505617976" width="10.204494382022471" height="10.204494382022471" rx="2.2449887640449435" fill="#f5a742" stroke="#0b1015" stroke-width="0.45"/><rect x="752.9640449438202" y="327.23595505617976" width="10.204494382022471" height="10.204494382022471" rx="2.2449887640449435" fill="#f5a742" stroke="#0b1015" stroke-width="0.45"/><rect x="774.447191011236" y="327.23595505617976" width="10.204494382022471" height="10.204494382022471" rx="2.2449887640449435" fill="#f5a742" stroke="#0b1015" stroke-width="0.45"/><rect x="795.9303370786516" y="327.23595505617976" width="10.204494382022471" height="10.204494382022471" rx="2.2449887640449435" fill="#f5a742" stroke="#0b1015" stroke-width="0.45"/><rect x="817.4134831460674" y="327.23595505617976" width="10.204494382022471" height="10.204494382022471" rx="2.2449887640449435" fill="#f5a742" stroke="#0b1015" stroke-width="0.45"/><rect x="838.896629213483" y="327.23595505617976" width="10.204494382022471" height="10.204494382022471" rx="2.2449887640449435" fill="#f5a742" stroke="#0b1015" stroke-width="0.45"/><rect x="667.0314606741573" y="348.7191011235955" width="10.204494382022471" height="10.204494382022471" rx="2.2449887640449435" fill="#f5a742" stroke="#0b1015" stroke-width="0.45"/><rect x="688.5146067415731" y="348.7191011235955" width="10.204494382022471" height="10.204494382022471" rx="2.2449887640449435" fill="#f5a742" stroke="#0b1015" stroke-width="0.45"/><rect x="709.9977528089888" y="348.7191011235955" width="10.204494382022471" height="10.204494382022471" rx="2.2449887640449435" fill="#f5a742" stroke="#0b1015" stroke-width="0.45"/><rect x="731.4808988764045" y="348.7191011235955" width="10.204494382022471" height="10.204494382022471" rx="2.2449887640449435" fill="#f5a742" stroke="#0b1015" stroke-width="0.45"/><rect x="752.9640449438202" y="348.7191011235955" width="10.204494382022471" height="10.204494382022471" rx="2.2449887640449435" fill="#f5a742" stroke="#0b1015" stroke-width="0.45"/><rect x="774.447191011236" y="348.7191011235955" width="10.204494382022471" height="10.204494382022471" rx="2.2449887640449435" fill="#f5a742" stroke="#0b1015" stroke-width="0.45"/><rect x="795.9303370786516" y="348.7191011235955" width="10.204494382022471" height="10.204494382022471" rx="2.2449887640449435" fill="#f5a742" stroke="#0b1015" stroke-width="0.45"/><rect x="817.4134831460674" y="348.7191011235955" width="10.204494382022471" height="10.204494382022471" rx="2.2449887640449435" fill="#f5a742" stroke="#0b1015" stroke-width="0.45"/><rect x="838.896629213483" y="348.7191011235955" width="10.204494382022471" height="10.204494382022471" rx="2.2449887640449435" fill="#f5a742" stroke="#0b1015" stroke-width="0.45"/><rect x="667.0314606741573" y="370.2022471910112" width="10.204494382022471" height="10.204494382022471" rx="2.2449887640449435" fill="#f5a742" stroke="#0b1015" stroke-width="0.45"/><rect x="688.5146067415731" y="370.2022471910112" width="10.204494382022471" height="10.204494382022471" rx="2.2449887640449435" fill="#f5a742" stroke="#0b1015" stroke-width="0.45"/><rect x="709.9977528089888" y="370.2022471910112" width="10.204494382022471" height="10.204494382022471" rx="2.2449887640449435" fill="#f5a742" stroke="#0b1015" stroke-width="0.45"/><rect x="795.9303370786516" y="370.2022471910112" width="10.204494382022471" height="10.204494382022471" rx="2.2449887640449435" fill="#f5a742" stroke="#0b1015" stroke-width="0.45"/><rect x="817.4134831460674" y="370.2022471910112" width="10.204494382022471" height="10.204494382022471" rx="2.2449887640449435" fill="#f5a742" stroke="#0b1015" stroke-width="0.45"/><rect x="838.896629213483" y="370.2022471910112" width="10.204494382022471" height="10.204494382022471" rx="2.2449887640449435" fill="#f5a742" stroke="#0b1015" stroke-width="0.45"/><rect x="667.0314606741573" y="391.685393258427" width="10.204494382022471" height="10.204494382022471" rx="2.2449887640449435" fill="#f5a742" stroke="#0b1015" stroke-width="0.45"/><rect x="688.5146067415731" y="391.685393258427" width="10.204494382022471" height="10.204494382022471" rx="2.2449887640449435" fill="#f5a742" stroke="#0b1015" stroke-width="0.45"/><rect x="709.9977528089888" y="391.685393258427" width="10.204494382022471" height="10.204494382022471" rx="2.2449887640449435" fill="#f5a742" stroke="#0b1015" stroke-width="0.45"/><rect x="795.9303370786516" y="391.685393258427" width="10.204494382022471" height="10.204494382022471" rx="2.2449887640449435" fill="#f5a742" stroke="#0b1015" stroke-width="0.45"/><rect x="817.4134831460674" y="391.685393258427" width="10.204494382022471" height="10.204494382022471" rx="2.2449887640449435" fill="#f5a742" stroke="#0b1015" stroke-width="0.45"/><rect x="838.896629213483" y="391.685393258427" width="10.204494382022471" height="10.204494382022471" rx="2.2449887640449435" fill="#f5a742" stroke="#0b1015" stroke-width="0.45"/><rect x="667.0314606741573" y="413.1685393258427" width="10.204494382022471" height="10.204494382022471" rx="2.2449887640449435" fill="#f5a742" stroke="#0b1015" stroke-width="0.45"/><rect x="688.5146067415731" y="413.1685393258427" width="10.204494382022471" height="10.204494382022471" rx="2.2449887640449435" fill="#f5a742" stroke="#0b1015" stroke-width="0.45"/><rect x="709.9977528089888" y="413.1685393258427" width="10.204494382022471" height="10.204494382022471" rx="2.2449887640449435" fill="#f5a742" stroke="#0b1015" stroke-width="0.45"/><rect x="795.9303370786516" y="413.1685393258427" width="10.204494382022471" height="10.204494382022471" rx="2.2449887640449435" fill="#f5a742" stroke="#0b1015" stroke-width="0.45"/><rect x="817.4134831460674" y="413.1685393258427" width="10.204494382022471" height="10.204494382022471" rx="2.2449887640449435" fill="#f5a742" stroke="#0b1015" stroke-width="0.45"/><rect x="838.896629213483" y="413.1685393258427" width="10.204494382022471" height="10.204494382022471" rx="2.2449887640449435" fill="#f5a742" stroke="#0b1015" stroke-width="0.45"/><rect x="667.0314606741573" y="434.65168539325845" width="10.204494382022471" height="10.204494382022471" rx="2.2449887640449435" fill="#f5a742" stroke="#0b1015" stroke-width="0.45"/><rect x="688.5146067415731" y="434.65168539325845" width="10.204494382022471" height="10.204494382022471" rx="2.2449887640449435" fill="#f5a742" stroke="#0b1015" stroke-width="0.45"/><rect x="709.9977528089888" y="434.65168539325845" width="10.204494382022471" height="10.204494382022471" rx="2.2449887640449435" fill="#f5a742" stroke="#0b1015" stroke-width="0.45"/><rect x="795.9303370786516" y="434.65168539325845" width="10.204494382022471" height="10.204494382022471" rx="2.2449887640449435" fill="#f5a742" stroke="#0b1015" stroke-width="0.45"/><rect x="817.4134831460674" y="434.65168539325845" width="10.204494382022471" height="10.204494382022471" rx="2.2449887640449435" fill="#f5a742" stroke="#0b1015" stroke-width="0.45"/><rect x="838.896629213483" y="434.65168539325845" width="10.204494382022471" height="10.204494382022471" rx="2.2449887640449435" fill="#f5a742" stroke="#0b1015" stroke-width="0.45"/><rect x="667.0314606741573" y="456.1348314606742" width="10.204494382022471" height="10.204494382022471" rx="2.2449887640449435" fill="#f5a742" stroke="#0b1015" stroke-width="0.45"/><rect x="688.5146067415731" y="456.1348314606742" width="10.204494382022471" height="10.204494382022471" rx="2.2449887640449435" fill="#f5a742" stroke="#0b1015" stroke-width="0.45"/><rect x="709.9977528089888" y="456.1348314606742" width="10.204494382022471" height="10.204494382022471" rx="2.2449887640449435" fill="#f5a742" stroke="#0b1015" stroke-width="0.45"/><rect x="795.9303370786516" y="456.1348314606742" width="10.204494382022471" height="10.204494382022471" rx="2.2449887640449435" fill="#f5a742" stroke="#0b1015" stroke-width="0.45"/><rect x="817.4134831460674" y="456.1348314606742" width="10.204494382022471" height="10.204494382022471" rx="2.2449887640449435" fill="#f5a742" stroke="#0b1015" stroke-width="0.45"/><rect x="838.896629213483" y="456.1348314606742" width="10.204494382022471" height="10.204494382022471" rx="2.2449887640449435" fill="#f5a742" stroke="#0b1015" stroke-width="0.45"/><rect x="667.0314606741573" y="477.6179775280899" width="10.204494382022471" height="10.204494382022471" rx="2.2449887640449435" fill="#f5a742" stroke="#0b1015" stroke-width="0.45"/><rect x="688.5146067415731" y="477.6179775280899" width="10.204494382022471" height="10.204494382022471" rx="2.2449887640449435" fill="#f5a742" stroke="#0b1015" stroke-width="0.45"/><rect x="709.9977528089888" y="477.6179775280899" width="10.204494382022471" height="10.204494382022471" rx="2.2449887640449435" fill="#f5a742" stroke="#0b1015" stroke-width="0.45"/><rect x="795.9303370786516" y="477.6179775280899" width="10.204494382022471" height="10.204494382022471" rx="2.2449887640449435" fill="#f5a742" stroke="#0b1015" stroke-width="0.45"/><rect x="817.4134831460674" y="477.6179775280899" width="10.204494382022471" height="10.204494382022471" rx="2.2449887640449435" fill="#f5a742" stroke="#0b1015" stroke-width="0.45"/><rect x="838.896629213483" y="477.6179775280899" width="10.204494382022471" height="10.204494382022471" rx="2.2449887640449435" fill="#f5a742" stroke="#0b1015" stroke-width="0.45"/><rect x="150.89887640449436" y="197.80000000000007" width="11.278651685393257" height="11.278651685393257" rx="2.4813033707865166" fill="#4d8cc9" stroke="#0b1015" stroke-width="0.45"/><rect x="172.38202247191012" y="197.80000000000007" width="11.278651685393257" height="11.278651685393257" rx="2.4813033707865166" fill="#4d8cc9" stroke="#0b1015" stroke-width="0.45"/><rect x="193.86516853932582" y="197.80000000000007" width="11.278651685393257" height="11.278651685393257" rx="2.4813033707865166" fill="#4d8cc9" stroke="#0b1015" stroke-width="0.45"/><rect x="215.34831460674155" y="197.80000000000007" width="11.278651685393257" height="11.278651685393257" rx="2.4813033707865166" fill="#4d8cc9" stroke="#0b1015" stroke-width="0.45"/><rect x="236.8314606741573" y="197.80000000000007" width="11.278651685393257" height="11.278651685393257" rx="2.4813033707865166" fill="#4d8cc9" stroke="#0b1015" stroke-width="0.45"/><rect x="258.314606741573" y="197.80000000000007" width="11.278651685393257" height="11.278651685393257" rx="2.4813033707865166" fill="#4d8cc9" stroke="#0b1015" stroke-width="0.45"/><rect x="279.7977528089888" y="197.80000000000007" width="11.278651685393257" height="11.278651685393257" rx="2.4813033707865166" fill="#4d8cc9" stroke="#0b1015" stroke-width="0.45"/><rect x="301.2808988764045" y="197.80000000000007" width="11.278651685393257" height="11.278651685393257" rx="2.4813033707865166" fill="#4d8cc9" stroke="#0b1015" stroke-width="0.45"/><rect x="322.7640449438202" y="197.80000000000007" width="11.278651685393257" height="11.278651685393257" rx="2.4813033707865166" fill="#4d8cc9" stroke="#0b1015" stroke-width="0.45"/><rect x="344.24719101123594" y="197.80000000000007" width="11.278651685393257" height="11.278651685393257" rx="2.4813033707865166" fill="#4d8cc9" stroke="#0b1015" stroke-width="0.45"/><rect x="365.7303370786517" y="197.80000000000007" width="11.278651685393257" height="11.278651685393257" rx="2.4813033707865166" fill="#4d8cc9" stroke="#0b1015" stroke-width="0.45"/><rect x="387.2134831460674" y="197.80000000000007" width="11.278651685393257" height="11.278651685393257" rx="2.4813033707865166" fill="#4d8cc9" stroke="#0b1015" stroke-width="0.45"/><rect x="408.6966292134831" y="197.80000000000007" width="11.278651685393257" height="11.278651685393257" rx="2.4813033707865166" fill="#4d8cc9" stroke="#0b1015" stroke-width="0.45"/><rect x="430.17977528089887" y="197.80000000000007" width="11.278651685393257" height="11.278651685393257" rx="2.4813033707865166" fill="#4d8cc9" stroke="#0b1015" stroke-width="0.45"/><rect x="150.89887640449436" y="219.28314606741577" width="11.278651685393257" height="11.278651685393257" rx="2.4813033707865166" fill="#4d8cc9" stroke="#0b1015" stroke-width="0.45"/><rect x="172.38202247191012" y="219.28314606741577" width="11.278651685393257" height="11.278651685393257" rx="2.4813033707865166" fill="#4d8cc9" stroke="#0b1015" stroke-width="0.45"/><rect x="193.86516853932582" y="219.28314606741577" width="11.278651685393257" height="11.278651685393257" rx="2.4813033707865166" fill="#4d8cc9" stroke="#0b1015" stroke-width="0.45"/><rect x="215.34831460674155" y="219.28314606741577" width="11.278651685393257" height="11.278651685393257" rx="2.4813033707865166" fill="#4d8cc9" stroke="#0b1015" stroke-width="0.45"/><rect x="236.8314606741573" y="219.28314606741577" width="11.278651685393257" height="11.278651685393257" rx="2.4813033707865166" fill="#4d8cc9" stroke="#0b1015" stroke-width="0.45"/><rect x="258.314606741573" y="219.28314606741577" width="11.278651685393257" height="11.278651685393257" rx="2.4813033707865166" fill="#4d8cc9" stroke="#0b1015" stroke-width="0.45"/><rect x="279.7977528089888" y="219.28314606741577" width="11.278651685393257" height="11.278651685393257" rx="2.4813033707865166" fill="#4d8cc9" stroke="#0b1015" stroke-width="0.45"/><rect x="301.2808988764045" y="219.28314606741577" width="11.278651685393257" height="11.278651685393257" rx="2.4813033707865166" fill="#4d8cc9" stroke="#0b1015" stroke-width="0.45"/><rect x="322.7640449438202" y="219.28314606741577" width="11.278651685393257" height="11.278651685393257" rx="2.4813033707865166" fill="#4d8cc9" stroke="#0b1015" stroke-width="0.45"/><rect x="344.24719101123594" y="219.28314606741577" width="11.278651685393257" height="11.278651685393257" rx="2.4813033707865166" fill="#4d8cc9" stroke="#0b1015" stroke-width="0.45"/><rect x="365.7303370786517" y="219.28314606741577" width="11.278651685393257" height="11.278651685393257" rx="2.4813033707865166" fill="#4d8cc9" stroke="#0b1015" stroke-width="0.45"/><rect x="387.2134831460674" y="219.28314606741577" width="11.278651685393257" height="11.278651685393257" rx="2.4813033707865166" fill="#4d8cc9" stroke="#0b1015" stroke-width="0.45"/><rect x="408.6966292134831" y="219.28314606741577" width="11.278651685393257" height="11.278651685393257" rx="2.4813033707865166" fill="#4d8cc9" stroke="#0b1015" stroke-width="0.45"/><rect x="430.17977528089887" y="219.28314606741577" width="11.278651685393257" height="11.278651685393257" rx="2.4813033707865166" fill="#4d8cc9" stroke="#0b1015" stroke-width="0.45"/><rect x="150.89887640449436" y="240.76629213483153" width="11.278651685393257" height="11.278651685393257" rx="2.4813033707865166" fill="#4d8cc9" stroke="#0b1015" stroke-width="0.45"/><rect x="172.38202247191012" y="240.76629213483153" width="11.278651685393257" height="11.278651685393257" rx="2.4813033707865166" fill="#4d8cc9" stroke="#0b1015" stroke-width="0.45"/><rect x="193.86516853932582" y="240.76629213483153" width="11.278651685393257" height="11.278651685393257" rx="2.4813033707865166" fill="#4d8cc9" stroke="#0b1015" stroke-width="0.45"/><rect x="215.34831460674155" y="240.76629213483153" width="11.278651685393257" height="11.278651685393257" rx="2.4813033707865166" fill="#4d8cc9" stroke="#0b1015" stroke-width="0.45"/><rect x="236.8314606741573" y="240.76629213483153" width="11.278651685393257" height="11.278651685393257" rx="2.4813033707865166" fill="#4d8cc9" stroke="#0b1015" stroke-width="0.45"/><rect x="258.314606741573" y="240.76629213483153" width="11.278651685393257" height="11.278651685393257" rx="2.4813033707865166" fill="#4d8cc9" stroke="#0b1015" stroke-width="0.45"/><rect x="279.7977528089888" y="240.76629213483153" width="11.278651685393257" height="11.278651685393257" rx="2.4813033707865166" fill="#4d8cc9" stroke="#0b1015" stroke-width="0.45"/><rect x="301.2808988764045" y="240.76629213483153" width="11.278651685393257" height="11.278651685393257" rx="2.4813033707865166" fill="#4d8cc9" stroke="#0b1015" stroke-width="0.45"/><rect x="322.7640449438202" y="240.76629213483153" width="11.278651685393257" height="11.278651685393257" rx="2.4813033707865166" fill="#4d8cc9" stroke="#0b1015" stroke-width="0.45"/><rect x="344.24719101123594" y="240.76629213483153" width="11.278651685393257" height="11.278651685393257" rx="2.4813033707865166" fill="#4d8cc9" stroke="#0b1015" stroke-width="0.45"/><rect x="365.7303370786517" y="240.76629213483153" width="11.278651685393257" height="11.278651685393257" rx="2.4813033707865166" fill="#4d8cc9" stroke="#0b1015" stroke-width="0.45"/><rect x="387.2134831460674" y="240.76629213483153" width="11.278651685393257" height="11.278651685393257" rx="2.4813033707865166" fill="#4d8cc9" stroke="#0b1015" stroke-width="0.45"/><rect x="408.6966292134831" y="240.76629213483153" width="11.278651685393257" height="11.278651685393257" rx="2.4813033707865166" fill="#4d8cc9" stroke="#0b1015" stroke-width="0.45"/><rect x="430.17977528089887" y="240.76629213483153" width="11.278651685393257" height="11.278651685393257" rx="2.4813033707865166" fill="#4d8cc9" stroke="#0b1015" stroke-width="0.45"/><rect x="150.89887640449436" y="262.24943820224723" width="11.278651685393257" height="11.278651685393257" rx="2.4813033707865166" fill="#4d8cc9" stroke="#0b1015" stroke-width="0.45"/><rect x="172.38202247191012" y="262.24943820224723" width="11.278651685393257" height="11.278651685393257" rx="2.4813033707865166" fill="#4d8cc9" stroke="#0b1015" stroke-width="0.45"/><rect x="193.86516853932582" y="262.24943820224723" width="11.278651685393257" height="11.278651685393257" rx="2.4813033707865166" fill="#4d8cc9" stroke="#0b1015" stroke-width="0.45"/><rect x="215.34831460674155" y="262.24943820224723" width="11.278651685393257" height="11.278651685393257" rx="2.4813033707865166" fill="#4d8cc9" stroke="#0b1015" stroke-width="0.45"/><rect x="236.8314606741573" y="262.24943820224723" width="11.278651685393257" height="11.278651685393257" rx="2.4813033707865166" fill="#4d8cc9" stroke="#0b1015" stroke-width="0.45"/><rect x="258.314606741573" y="262.24943820224723" width="11.278651685393257" height="11.278651685393257" rx="2.4813033707865166" fill="#4d8cc9" stroke="#0b1015" stroke-width="0.45"/><rect x="279.7977528089888" y="262.24943820224723" width="11.278651685393257" height="11.278651685393257" rx="2.4813033707865166" fill="#4d8cc9" stroke="#0b1015" stroke-width="0.45"/><rect x="301.2808988764045" y="262.24943820224723" width="11.278651685393257" height="11.278651685393257" rx="2.4813033707865166" fill="#4d8cc9" stroke="#0b1015" stroke-width="0.45"/><rect x="322.7640449438202" y="262.24943820224723" width="11.278651685393257" height="11.278651685393257" rx="2.4813033707865166" fill="#4d8cc9" stroke="#0b1015" stroke-width="0.45"/><rect x="344.24719101123594" y="262.24943820224723" width="11.278651685393257" height="11.278651685393257" rx="2.4813033707865166" fill="#4d8cc9" stroke="#0b1015" stroke-width="0.45"/><rect x="365.7303370786517" y="262.24943820224723" width="11.278651685393257" height="11.278651685393257" rx="2.4813033707865166" fill="#4d8cc9" stroke="#0b1015" stroke-width="0.45"/><rect x="387.2134831460674" y="262.24943820224723" width="11.278651685393257" height="11.278651685393257" rx="2.4813033707865166" fill="#4d8cc9" stroke="#0b1015" stroke-width="0.45"/><rect x="408.6966292134831" y="262.24943820224723" width="11.278651685393257" height="11.278651685393257" rx="2.4813033707865166" fill="#4d8cc9" stroke="#0b1015" stroke-width="0.45"/><rect x="430.17977528089887" y="262.24943820224723" width="11.278651685393257" height="11.278651685393257" rx="2.4813033707865166" fill="#4d8cc9" stroke="#0b1015" stroke-width="0.45"/><rect x="150.89887640449436" y="283.732584269663" width="11.278651685393257" height="11.278651685393257" rx="2.4813033707865166" fill="#4d8cc9" stroke="#0b1015" stroke-width="0.45"/><rect x="172.38202247191012" y="283.732584269663" width="11.278651685393257" height="11.278651685393257" rx="2.4813033707865166" fill="#4d8cc9" stroke="#0b1015" stroke-width="0.45"/><rect x="193.86516853932582" y="283.732584269663" width="11.278651685393257" height="11.278651685393257" rx="2.4813033707865166" fill="#4d8cc9" stroke="#0b1015" stroke-width="0.45"/><rect x="215.34831460674155" y="283.732584269663" width="11.278651685393257" height="11.278651685393257" rx="2.4813033707865166" fill="#4d8cc9" stroke="#0b1015" stroke-width="0.45"/><rect x="236.8314606741573" y="283.732584269663" width="11.278651685393257" height="11.278651685393257" rx="2.4813033707865166" fill="#4d8cc9" stroke="#0b1015" stroke-width="0.45"/><rect x="258.314606741573" y="283.732584269663" width="11.278651685393257" height="11.278651685393257" rx="2.4813033707865166" fill="#4d8cc9" stroke="#0b1015" stroke-width="0.45"/><rect x="279.7977528089888" y="283.732584269663" width="11.278651685393257" height="11.278651685393257" rx="2.4813033707865166" fill="#4d8cc9" stroke="#0b1015" stroke-width="0.45"/><rect x="301.2808988764045" y="283.732584269663" width="11.278651685393257" height="11.278651685393257" rx="2.4813033707865166" fill="#4d8cc9" stroke="#0b1015" stroke-width="0.45"/><rect x="322.7640449438202" y="283.732584269663" width="11.278651685393257" height="11.278651685393257" rx="2.4813033707865166" fill="#4d8cc9" stroke="#0b1015" stroke-width="0.45"/><rect x="344.24719101123594" y="283.732584269663" width="11.278651685393257" height="11.278651685393257" rx="2.4813033707865166" fill="#4d8cc9" stroke="#0b1015" stroke-width="0.45"/><rect x="365.7303370786517" y="283.732584269663" width="11.278651685393257" height="11.278651685393257" rx="2.4813033707865166" fill="#4d8cc9" stroke="#0b1015" stroke-width="0.45"/><rect x="387.2134831460674" y="283.732584269663" width="11.278651685393257" height="11.278651685393257" rx="2.4813033707865166" fill="#4d8cc9" stroke="#0b1015" stroke-width="0.45"/><rect x="408.6966292134831" y="283.732584269663" width="11.278651685393257" height="11.278651685393257" rx="2.4813033707865166" fill="#4d8cc9" stroke="#0b1015" stroke-width="0.45"/><rect x="430.17977528089887" y="283.732584269663" width="11.278651685393257" height="11.278651685393257" rx="2.4813033707865166" fill="#4d8cc9" stroke="#0b1015" stroke-width="0.45"/><rect x="150.89887640449436" y="305.2157303370787" width="11.278651685393257" height="11.278651685393257" rx="2.4813033707865166" fill="#4d8cc9" stroke="#0b1015" stroke-width="0.45"/><rect x="172.38202247191012" y="305.2157303370787" width="11.278651685393257" height="11.278651685393257" rx="2.4813033707865166" fill="#4d8cc9" stroke="#0b1015" stroke-width="0.45"/><rect x="193.86516853932582" y="305.2157303370787" width="11.278651685393257" height="11.278651685393257" rx="2.4813033707865166" fill="#4d8cc9" stroke="#0b1015" stroke-width="0.45"/><rect x="215.34831460674155" y="305.2157303370787" width="11.278651685393257" height="11.278651685393257" rx="2.4813033707865166" fill="#4d8cc9" stroke="#0b1015" stroke-width="0.45"/><rect x="236.8314606741573" y="305.2157303370787" width="11.278651685393257" height="11.278651685393257" rx="2.4813033707865166" fill="#4d8cc9" stroke="#0b1015" stroke-width="0.45"/><rect x="258.314606741573" y="305.2157303370787" width="11.278651685393257" height="11.278651685393257" rx="2.4813033707865166" fill="#4d8cc9" stroke="#0b1015" stroke-width="0.45"/><rect x="279.7977528089888" y="305.2157303370787" width="11.278651685393257" height="11.278651685393257" rx="2.4813033707865166" fill="#4d8cc9" stroke="#0b1015" stroke-width="0.45"/><rect x="301.2808988764045" y="305.2157303370787" width="11.278651685393257" height="11.278651685393257" rx="2.4813033707865166" fill="#4d8cc9" stroke="#0b1015" stroke-width="0.45"/><rect x="322.7640449438202" y="305.2157303370787" width="11.278651685393257" height="11.278651685393257" rx="2.4813033707865166" fill="#4d8cc9" stroke="#0b1015" stroke-width="0.45"/><rect x="344.24719101123594" y="305.2157303370787" width="11.278651685393257" height="11.278651685393257" rx="2.4813033707865166" fill="#4d8cc9" stroke="#0b1015" stroke-width="0.45"/><rect x="365.7303370786517" y="305.2157303370787" width="11.278651685393257" height="11.278651685393257" rx="2.4813033707865166" fill="#4d8cc9" stroke="#0b1015" stroke-width="0.45"/><rect x="387.2134831460674" y="305.2157303370787" width="11.278651685393257" height="11.278651685393257" rx="2.4813033707865166" fill="#4d8cc9" stroke="#0b1015" stroke-width="0.45"/><rect x="408.6966292134831" y="305.2157303370787" width="11.278651685393257" height="11.278651685393257" rx="2.4813033707865166" fill="#4d8cc9" stroke="#0b1015" stroke-width="0.45"/><rect x="430.17977528089887" y="305.2157303370787" width="11.278651685393257" height="11.278651685393257" rx="2.4813033707865166" fill="#4d8cc9" stroke="#0b1015" stroke-width="0.45"/><rect x="150.89887640449436" y="326.6988764044944" width="11.278651685393257" height="11.278651685393257" rx="2.4813033707865166" fill="#4d8cc9" stroke="#0b1015" stroke-width="0.45"/><rect x="172.38202247191012" y="326.6988764044944" width="11.278651685393257" height="11.278651685393257" rx="2.4813033707865166" fill="#4d8cc9" stroke="#0b1015" stroke-width="0.45"/><rect x="193.86516853932582" y="326.6988764044944" width="11.278651685393257" height="11.278651685393257" rx="2.4813033707865166" fill="#4d8cc9" stroke="#0b1015" stroke-width="0.45"/><rect x="215.34831460674155" y="326.6988764044944" width="11.278651685393257" height="11.278651685393257" rx="2.4813033707865166" fill="#4d8cc9" stroke="#0b1015" stroke-width="0.45"/><rect x="236.8314606741573" y="326.6988764044944" width="11.278651685393257" height="11.278651685393257" rx="2.4813033707865166" fill="#4d8cc9" stroke="#0b1015" stroke-width="0.45"/><rect x="258.314606741573" y="326.6988764044944" width="11.278651685393257" height="11.278651685393257" rx="2.4813033707865166" fill="#4d8cc9" stroke="#0b1015" stroke-width="0.45"/><rect x="279.7977528089888" y="326.6988764044944" width="11.278651685393257" height="11.278651685393257" rx="2.4813033707865166" fill="#4d8cc9" stroke="#0b1015" stroke-width="0.45"/><rect x="301.2808988764045" y="326.6988764044944" width="11.278651685393257" height="11.278651685393257" rx="2.4813033707865166" fill="#4d8cc9" stroke="#0b1015" stroke-width="0.45"/><rect x="322.7640449438202" y="326.6988764044944" width="11.278651685393257" height="11.278651685393257" rx="2.4813033707865166" fill="#4d8cc9" stroke="#0b1015" stroke-width="0.45"/><rect x="344.24719101123594" y="326.6988764044944" width="11.278651685393257" height="11.278651685393257" rx="2.4813033707865166" fill="#4d8cc9" stroke="#0b1015" stroke-width="0.45"/><rect x="365.7303370786517" y="326.6988764044944" width="11.278651685393257" height="11.278651685393257" rx="2.4813033707865166" fill="#4d8cc9" stroke="#0b1015" stroke-width="0.45"/><rect x="387.2134831460674" y="326.6988764044944" width="11.278651685393257" height="11.278651685393257" rx="2.4813033707865166" fill="#4d8cc9" stroke="#0b1015" stroke-width="0.45"/><rect x="408.6966292134831" y="326.6988764044944" width="11.278651685393257" height="11.278651685393257" rx="2.4813033707865166" fill="#4d8cc9" stroke="#0b1015" stroke-width="0.45"/><rect x="430.17977528089887" y="326.6988764044944" width="11.278651685393257" height="11.278651685393257" rx="2.4813033707865166" fill="#4d8cc9" stroke="#0b1015" stroke-width="0.45"/><rect x="150.89887640449436" y="348.18202247191016" width="11.278651685393257" height="11.278651685393257" rx="2.4813033707865166" fill="#4d8cc9" stroke="#0b1015" stroke-width="0.45"/><rect x="172.38202247191012" y="348.18202247191016" width="11.278651685393257" height="11.278651685393257" rx="2.4813033707865166" fill="#4d8cc9" stroke="#0b1015" stroke-width="0.45"/><rect x="193.86516853932582" y="348.18202247191016" width="11.278651685393257" height="11.278651685393257" rx="2.4813033707865166" fill="#4d8cc9" stroke="#0b1015" stroke-width="0.45"/><rect x="215.34831460674155" y="348.18202247191016" width="11.278651685393257" height="11.278651685393257" rx="2.4813033707865166" fill="#4d8cc9" stroke="#0b1015" stroke-width="0.45"/><rect x="236.8314606741573" y="348.18202247191016" width="11.278651685393257" height="11.278651685393257" rx="2.4813033707865166" fill="#4d8cc9" stroke="#0b1015" stroke-width="0.45"/><rect x="258.314606741573" y="348.18202247191016" width="11.278651685393257" height="11.278651685393257" rx="2.4813033707865166" fill="#4d8cc9" stroke="#0b1015" stroke-width="0.45"/><rect x="279.7977528089888" y="348.18202247191016" width="11.278651685393257" height="11.278651685393257" rx="2.4813033707865166" fill="#4d8cc9" stroke="#0b1015" stroke-width="0.45"/><rect x="301.2808988764045" y="348.18202247191016" width="11.278651685393257" height="11.278651685393257" rx="2.4813033707865166" fill="#4d8cc9" stroke="#0b1015" stroke-width="0.45"/><rect x="322.7640449438202" y="348.18202247191016" width="11.278651685393257" height="11.278651685393257" rx="2.4813033707865166" fill="#4d8cc9" stroke="#0b1015" stroke-width="0.45"/><rect x="344.24719101123594" y="348.18202247191016" width="11.278651685393257" height="11.278651685393257" rx="2.4813033707865166" fill="#4d8cc9" stroke="#0b1015" stroke-width="0.45"/><rect x="365.7303370786517" y="348.18202247191016" width="11.278651685393257" height="11.278651685393257" rx="2.4813033707865166" fill="#4d8cc9" stroke="#0b1015" stroke-width="0.45"/><rect x="387.2134831460674" y="348.18202247191016" width="11.278651685393257" height="11.278651685393257" rx="2.4813033707865166" fill="#4d8cc9" stroke="#0b1015" stroke-width="0.45"/><rect x="408.6966292134831" y="348.18202247191016" width="11.278651685393257" height="11.278651685393257" rx="2.4813033707865166" fill="#4d8cc9" stroke="#0b1015" stroke-width="0.45"/><rect x="430.17977528089887" y="348.18202247191016" width="11.278651685393257" height="11.278651685393257" rx="2.4813033707865166" fill="#4d8cc9" stroke="#0b1015" stroke-width="0.45"/><rect x="150.89887640449436" y="369.66516853932586" width="11.278651685393257" height="11.278651685393257" rx="2.4813033707865166" fill="#4d8cc9" stroke="#0b1015" stroke-width="0.45"/><rect x="172.38202247191012" y="369.66516853932586" width="11.278651685393257" height="11.278651685393257" rx="2.4813033707865166" fill="#4d8cc9" stroke="#0b1015" stroke-width="0.45"/><rect x="193.86516853932582" y="369.66516853932586" width="11.278651685393257" height="11.278651685393257" rx="2.4813033707865166" fill="#4d8cc9" stroke="#0b1015" stroke-width="0.45"/><rect x="215.34831460674155" y="369.66516853932586" width="11.278651685393257" height="11.278651685393257" rx="2.4813033707865166" fill="#4d8cc9" stroke="#0b1015" stroke-width="0.45"/><rect x="236.8314606741573" y="369.66516853932586" width="11.278651685393257" height="11.278651685393257" rx="2.4813033707865166" fill="#4d8cc9" stroke="#0b1015" stroke-width="0.45"/><rect x="258.314606741573" y="369.66516853932586" width="11.278651685393257" height="11.278651685393257" rx="2.4813033707865166" fill="#4d8cc9" stroke="#0b1015" stroke-width="0.45"/><rect x="279.7977528089888" y="369.66516853932586" width="11.278651685393257" height="11.278651685393257" rx="2.4813033707865166" fill="#4d8cc9" stroke="#0b1015" stroke-width="0.45"/><rect x="301.2808988764045" y="369.66516853932586" width="11.278651685393257" height="11.278651685393257" rx="2.4813033707865166" fill="#4d8cc9" stroke="#0b1015" stroke-width="0.45"/><rect x="322.7640449438202" y="369.66516853932586" width="11.278651685393257" height="11.278651685393257" rx="2.4813033707865166" fill="#4d8cc9" stroke="#0b1015" stroke-width="0.45"/><rect x="344.24719101123594" y="369.66516853932586" width="11.278651685393257" height="11.278651685393257" rx="2.4813033707865166" fill="#4d8cc9" stroke="#0b1015" stroke-width="0.45"/><rect x="365.7303370786517" y="369.66516853932586" width="11.278651685393257" height="11.278651685393257" rx="2.4813033707865166" fill="#4d8cc9" stroke="#0b1015" stroke-width="0.45"/><rect x="387.2134831460674" y="369.66516853932586" width="11.278651685393257" height="11.278651685393257" rx="2.4813033707865166" fill="#4d8cc9" stroke="#0b1015" stroke-width="0.45"/><rect x="408.6966292134831" y="369.66516853932586" width="11.278651685393257" height="11.278651685393257" rx="2.4813033707865166" fill="#4d8cc9" stroke="#0b1015" stroke-width="0.45"/><rect x="430.17977528089887" y="369.66516853932586" width="11.278651685393257" height="11.278651685393257" rx="2.4813033707865166" fill="#4d8cc9" stroke="#0b1015" stroke-width="0.45"/><rect x="150.89887640449436" y="391.1483146067416" width="11.278651685393257" height="11.278651685393257" rx="2.4813033707865166" fill="#4d8cc9" stroke="#0b1015" stroke-width="0.45"/><rect x="172.38202247191012" y="391.1483146067416" width="11.278651685393257" height="11.278651685393257" rx="2.4813033707865166" fill="#4d8cc9" stroke="#0b1015" stroke-width="0.45"/><rect x="193.86516853932582" y="391.1483146067416" width="11.278651685393257" height="11.278651685393257" rx="2.4813033707865166" fill="#4d8cc9" stroke="#0b1015" stroke-width="0.45"/><rect x="215.34831460674155" y="391.1483146067416" width="11.278651685393257" height="11.278651685393257" rx="2.4813033707865166" fill="#4d8cc9" stroke="#0b1015" stroke-width="0.45"/><rect x="236.8314606741573" y="391.1483146067416" width="11.278651685393257" height="11.278651685393257" rx="2.4813033707865166" fill="#4d8cc9" stroke="#0b1015" stroke-width="0.45"/><rect x="258.314606741573" y="391.1483146067416" width="11.278651685393257" height="11.278651685393257" rx="2.4813033707865166" fill="#4d8cc9" stroke="#0b1015" stroke-width="0.45"/><rect x="279.7977528089888" y="391.1483146067416" width="11.278651685393257" height="11.278651685393257" rx="2.4813033707865166" fill="#4d8cc9" stroke="#0b1015" stroke-width="0.45"/><rect x="301.2808988764045" y="391.1483146067416" width="11.278651685393257" height="11.278651685393257" rx="2.4813033707865166" fill="#4d8cc9" stroke="#0b1015" stroke-width="0.45"/><rect x="322.7640449438202" y="391.1483146067416" width="11.278651685393257" height="11.278651685393257" rx="2.4813033707865166" fill="#4d8cc9" stroke="#0b1015" stroke-width="0.45"/><rect x="344.24719101123594" y="391.1483146067416" width="11.278651685393257" height="11.278651685393257" rx="2.4813033707865166" fill="#4d8cc9" stroke="#0b1015" stroke-width="0.45"/><rect x="365.7303370786517" y="391.1483146067416" width="11.278651685393257" height="11.278651685393257" rx="2.4813033707865166" fill="#4d8cc9" stroke="#0b1015" stroke-width="0.45"/><rect x="387.2134831460674" y="391.1483146067416" width="11.278651685393257" height="11.278651685393257" rx="2.4813033707865166" fill="#4d8cc9" stroke="#0b1015" stroke-width="0.45"/><rect x="408.6966292134831" y="391.1483146067416" width="11.278651685393257" height="11.278651685393257" rx="2.4813033707865166" fill="#4d8cc9" stroke="#0b1015" stroke-width="0.45"/><rect x="430.17977528089887" y="391.1483146067416" width="11.278651685393257" height="11.278651685393257" rx="2.4813033707865166" fill="#4d8cc9" stroke="#0b1015" stroke-width="0.45"/><rect x="150.89887640449436" y="412.6314606741573" width="11.278651685393257" height="11.278651685393257" rx="2.4813033707865166" fill="#4d8cc9" stroke="#0b1015" stroke-width="0.45"/><rect x="172.38202247191012" y="412.6314606741573" width="11.278651685393257" height="11.278651685393257" rx="2.4813033707865166" fill="#4d8cc9" stroke="#0b1015" stroke-width="0.45"/><rect x="193.86516853932582" y="412.6314606741573" width="11.278651685393257" height="11.278651685393257" rx="2.4813033707865166" fill="#4d8cc9" stroke="#0b1015" stroke-width="0.45"/><rect x="215.34831460674155" y="412.6314606741573" width="11.278651685393257" height="11.278651685393257" rx="2.4813033707865166" fill="#4d8cc9" stroke="#0b1015" stroke-width="0.45"/><rect x="236.8314606741573" y="412.6314606741573" width="11.278651685393257" height="11.278651685393257" rx="2.4813033707865166" fill="#4d8cc9" stroke="#0b1015" stroke-width="0.45"/><rect x="258.314606741573" y="412.6314606741573" width="11.278651685393257" height="11.278651685393257" rx="2.4813033707865166" fill="#4d8cc9" stroke="#0b1015" stroke-width="0.45"/><rect x="279.7977528089888" y="412.6314606741573" width="11.278651685393257" height="11.278651685393257" rx="2.4813033707865166" fill="#4d8cc9" stroke="#0b1015" stroke-width="0.45"/><rect x="301.2808988764045" y="412.6314606741573" width="11.278651685393257" height="11.278651685393257" rx="2.4813033707865166" fill="#4d8cc9" stroke="#0b1015" stroke-width="0.45"/><rect x="322.7640449438202" y="412.6314606741573" width="11.278651685393257" height="11.278651685393257" rx="2.4813033707865166" fill="#4d8cc9" stroke="#0b1015" stroke-width="0.45"/><rect x="344.24719101123594" y="412.6314606741573" width="11.278651685393257" height="11.278651685393257" rx="2.4813033707865166" fill="#4d8cc9" stroke="#0b1015" stroke-width="0.45"/><rect x="365.7303370786517" y="412.6314606741573" width="11.278651685393257" height="11.278651685393257" rx="2.4813033707865166" fill="#4d8cc9" stroke="#0b1015" stroke-width="0.45"/><rect x="387.2134831460674" y="412.6314606741573" width="11.278651685393257" height="11.278651685393257" rx="2.4813033707865166" fill="#4d8cc9" stroke="#0b1015" stroke-width="0.45"/><rect x="408.6966292134831" y="412.6314606741573" width="11.278651685393257" height="11.278651685393257" rx="2.4813033707865166" fill="#4d8cc9" stroke="#0b1015" stroke-width="0.45"/><rect x="430.17977528089887" y="412.6314606741573" width="11.278651685393257" height="11.278651685393257" rx="2.4813033707865166" fill="#4d8cc9" stroke="#0b1015" stroke-width="0.45"/><rect x="150.89887640449436" y="434.1146067415731" width="11.278651685393257" height="11.278651685393257" rx="2.4813033707865166" fill="#4d8cc9" stroke="#0b1015" stroke-width="0.45"/><rect x="172.38202247191012" y="434.1146067415731" width="11.278651685393257" height="11.278651685393257" rx="2.4813033707865166" fill="#4d8cc9" stroke="#0b1015" stroke-width="0.45"/><rect x="193.86516853932582" y="434.1146067415731" width="11.278651685393257" height="11.278651685393257" rx="2.4813033707865166" fill="#4d8cc9" stroke="#0b1015" stroke-width="0.45"/><rect x="215.34831460674155" y="434.1146067415731" width="11.278651685393257" height="11.278651685393257" rx="2.4813033707865166" fill="#4d8cc9" stroke="#0b1015" stroke-width="0.45"/><rect x="236.8314606741573" y="434.1146067415731" width="11.278651685393257" height="11.278651685393257" rx="2.4813033707865166" fill="#4d8cc9" stroke="#0b1015" stroke-width="0.45"/><rect x="258.314606741573" y="434.1146067415731" width="11.278651685393257" height="11.278651685393257" rx="2.4813033707865166" fill="#4d8cc9" stroke="#0b1015" stroke-width="0.45"/><rect x="279.7977528089888" y="434.1146067415731" width="11.278651685393257" height="11.278651685393257" rx="2.4813033707865166" fill="#4d8cc9" stroke="#0b1015" stroke-width="0.45"/><rect x="301.2808988764045" y="434.1146067415731" width="11.278651685393257" height="11.278651685393257" rx="2.4813033707865166" fill="#4d8cc9" stroke="#0b1015" stroke-width="0.45"/><rect x="322.7640449438202" y="434.1146067415731" width="11.278651685393257" height="11.278651685393257" rx="2.4813033707865166" fill="#4d8cc9" stroke="#0b1015" stroke-width="0.45"/><rect x="344.24719101123594" y="434.1146067415731" width="11.278651685393257" height="11.278651685393257" rx="2.4813033707865166" fill="#4d8cc9" stroke="#0b1015" stroke-width="0.45"/><rect x="365.7303370786517" y="434.1146067415731" width="11.278651685393257" height="11.278651685393257" rx="2.4813033707865166" fill="#4d8cc9" stroke="#0b1015" stroke-width="0.45"/><rect x="387.2134831460674" y="434.1146067415731" width="11.278651685393257" height="11.278651685393257" rx="2.4813033707865166" fill="#4d8cc9" stroke="#0b1015" stroke-width="0.45"/><rect x="408.6966292134831" y="434.1146067415731" width="11.278651685393257" height="11.278651685393257" rx="2.4813033707865166" fill="#4d8cc9" stroke="#0b1015" stroke-width="0.45"/><rect x="430.17977528089887" y="434.1146067415731" width="11.278651685393257" height="11.278651685393257" rx="2.4813033707865166" fill="#4d8cc9" stroke="#0b1015" stroke-width="0.45"/><rect x="150.89887640449436" y="455.59775280898884" width="11.278651685393257" height="11.278651685393257" rx="2.4813033707865166" fill="#4d8cc9" stroke="#0b1015" stroke-width="0.45"/><rect x="172.38202247191012" y="455.59775280898884" width="11.278651685393257" height="11.278651685393257" rx="2.4813033707865166" fill="#4d8cc9" stroke="#0b1015" stroke-width="0.45"/><rect x="193.86516853932582" y="455.59775280898884" width="11.278651685393257" height="11.278651685393257" rx="2.4813033707865166" fill="#4d8cc9" stroke="#0b1015" stroke-width="0.45"/><rect x="215.34831460674155" y="455.59775280898884" width="11.278651685393257" height="11.278651685393257" rx="2.4813033707865166" fill="#4d8cc9" stroke="#0b1015" stroke-width="0.45"/><rect x="236.8314606741573" y="455.59775280898884" width="11.278651685393257" height="11.278651685393257" rx="2.4813033707865166" fill="#4d8cc9" stroke="#0b1015" stroke-width="0.45"/><rect x="258.314606741573" y="455.59775280898884" width="11.278651685393257" height="11.278651685393257" rx="2.4813033707865166" fill="#4d8cc9" stroke="#0b1015" stroke-width="0.45"/><rect x="279.7977528089888" y="455.59775280898884" width="11.278651685393257" height="11.278651685393257" rx="2.4813033707865166" fill="#4d8cc9" stroke="#0b1015" stroke-width="0.45"/><rect x="301.2808988764045" y="455.59775280898884" width="11.278651685393257" height="11.278651685393257" rx="2.4813033707865166" fill="#4d8cc9" stroke="#0b1015" stroke-width="0.45"/><rect x="322.7640449438202" y="455.59775280898884" width="11.278651685393257" height="11.278651685393257" rx="2.4813033707865166" fill="#4d8cc9" stroke="#0b1015" stroke-width="0.45"/><rect x="344.24719101123594" y="455.59775280898884" width="11.278651685393257" height="11.278651685393257" rx="2.4813033707865166" fill="#4d8cc9" stroke="#0b1015" stroke-width="0.45"/><rect x="365.7303370786517" y="455.59775280898884" width="11.278651685393257" height="11.278651685393257" rx="2.4813033707865166" fill="#4d8cc9" stroke="#0b1015" stroke-width="0.45"/><rect x="387.2134831460674" y="455.59775280898884" width="11.278651685393257" height="11.278651685393257" rx="2.4813033707865166" fill="#4d8cc9" stroke="#0b1015" stroke-width="0.45"/><rect x="408.6966292134831" y="455.59775280898884" width="11.278651685393257" height="11.278651685393257" rx="2.4813033707865166" fill="#4d8cc9" stroke="#0b1015" stroke-width="0.45"/><rect x="430.17977528089887" y="455.59775280898884" width="11.278651685393257" height="11.278651685393257" rx="2.4813033707865166" fill="#4d8cc9" stroke="#0b1015" stroke-width="0.45"/><rect x="150.89887640449436" y="477.08089887640455" width="11.278651685393257" height="11.278651685393257" rx="2.4813033707865166" fill="#4d8cc9" stroke="#0b1015" stroke-width="0.45"/><rect x="172.38202247191012" y="477.08089887640455" width="11.278651685393257" height="11.278651685393257" rx="2.4813033707865166" fill="#4d8cc9" stroke="#0b1015" stroke-width="0.45"/><rect x="193.86516853932582" y="477.08089887640455" width="11.278651685393257" height="11.278651685393257" rx="2.4813033707865166" fill="#4d8cc9" stroke="#0b1015" stroke-width="0.45"/><rect x="215.34831460674155" y="477.08089887640455" width="11.278651685393257" height="11.278651685393257" rx="2.4813033707865166" fill="#4d8cc9" stroke="#0b1015" stroke-width="0.45"/><rect x="236.8314606741573" y="477.08089887640455" width="11.278651685393257" height="11.278651685393257" rx="2.4813033707865166" fill="#4d8cc9" stroke="#0b1015" stroke-width="0.45"/><rect x="258.314606741573" y="477.08089887640455" width="11.278651685393257" height="11.278651685393257" rx="2.4813033707865166" fill="#4d8cc9" stroke="#0b1015" stroke-width="0.45"/><rect x="279.7977528089888" y="477.08089887640455" width="11.278651685393257" height="11.278651685393257" rx="2.4813033707865166" fill="#4d8cc9" stroke="#0b1015" stroke-width="0.45"/><rect x="301.2808988764045" y="477.08089887640455" width="11.278651685393257" height="11.278651685393257" rx="2.4813033707865166" fill="#4d8cc9" stroke="#0b1015" stroke-width="0.45"/><rect x="322.7640449438202" y="477.08089887640455" width="11.278651685393257" height="11.278651685393257" rx="2.4813033707865166" fill="#4d8cc9" stroke="#0b1015" stroke-width="0.45"/><rect x="344.24719101123594" y="477.08089887640455" width="11.278651685393257" height="11.278651685393257" rx="2.4813033707865166" fill="#4d8cc9" stroke="#0b1015" stroke-width="0.45"/><rect x="365.7303370786517" y="477.08089887640455" width="11.278651685393257" height="11.278651685393257" rx="2.4813033707865166" fill="#4d8cc9" stroke="#0b1015" stroke-width="0.45"/><rect x="387.2134831460674" y="477.08089887640455" width="11.278651685393257" height="11.278651685393257" rx="2.4813033707865166" fill="#4d8cc9" stroke="#0b1015" stroke-width="0.45"/><rect x="408.6966292134831" y="477.08089887640455" width="11.278651685393257" height="11.278651685393257" rx="2.4813033707865166" fill="#4d8cc9" stroke="#0b1015" stroke-width="0.45"/><rect x="430.17977528089887" y="477.08089887640455" width="11.278651685393257" height="11.278651685393257" rx="2.4813033707865166" fill="#4d8cc9" stroke="#0b1015" stroke-width="0.45"/></g>
  <text x="758.0662921348315" y="515.8224719101124" text-anchor="middle" fill="#ffc977" font-family="ui-monospace, monospace" font-size="15" font-weight="700">DDR3 x16 · FBGA-96</text>
  <text x="296.17865168539333" y="516.3595505617977" text-anchor="middle" fill="#88b9eb" font-family="ui-monospace, monospace" font-size="15" font-weight="700">CONTROLLER · 14x14 BGA</text>
  <text x="28" y="38" fill="#eef5fb" font-family="ui-sans-serif, system-ui" font-size="19" font-weight="700">sample012 · 49 DDR3 signals · 8 layers</text>
  <text x="28" y="61" fill="#9fb0bf" font-family="ui-sans-serif, system-ui" font-size="13">8.4 mm package gap · via-in-pad disabled · unrouted ratsnest</text>
</svg>